<svg width="56" height="50" viewBox="0 0 56 50" fill="none" xmlns="http://www.w3.org/2000/svg">
<path d="M51.0995 9.35579H41.9728V4.58134C41.9728 2.05526 39.9175 0 37.3915 0H18.2894C15.7633 0 13.7081 2.05526 13.7081 4.58134V9.35509H4.58134C2.05526 9.35509 0 11.4103 0 13.9364V45.4187C0 47.9447 2.05526 50 4.58134 50H51.0995C53.6256 50 55.6809 47.9447 55.6809 45.4187V13.9371C55.6809 11.4111 53.6256 9.35579 51.0995 9.35579ZM17.2322 4.58134C17.2322 3.99845 17.7065 3.52411 18.2894 3.52411H37.3915C37.9743 3.52411 38.4487 3.99845 38.4487 4.58134V9.35509H17.2322V4.58134ZM52.1567 45.4187C52.1567 46.0015 51.6824 46.4759 51.0995 46.4759H4.58134C3.99845 46.4759 3.5241 46.0015 3.5241 45.4187V13.9371C3.5241 13.3542 3.99845 12.8799 4.58134 12.8799H51.0995C51.6824 12.8799 52.1567 13.3542 52.1567 13.9371V45.4187Z" fill="#000"/>
</svg>
