<svg xmlns="http://www.w3.org/2000/svg" xmlns:xlink="http://www.w3.org/1999/xlink" width="19" height="18" viewBox="0 0 19 18">
  <defs>
    <clipPath id="clip-Calender">
      <rect width="19" height="18"/>
    </clipPath>
  </defs>
  <g id="Calender" clip-path="url(#clip-Calender)">
    <g id="Group_17423" data-name="Group 17423" transform="translate(-6274.596 -17696.309)">
      <path id="Path_17804" data-name="Path 17804" d="M142,87h14a2,2,0,0,0,2-2V73a2,2,0,0,0-2-2h-2v-.5a.5.5,0,0,0-1,0V71h-8v-.5a.5.5,0,1,0-1,0V71h-2a2,2,0,0,0-2,2V85a2,2,0,0,0,2,2Zm-1-14a1,1,0,0,1,1-1h2v1.5h0a.5.5,0,0,0,1,0V72h8v1.5a.5.5,0,0,0,1,0V72h2a1,1,0,0,1,1,1v1.5H143a.5.5,0,1,0,0,1h14V85a1,1,0,0,1-1,1H142a1,1,0,0,1-1-1Z" transform="translate(6135.094 17626.807)"/>
      <path id="Path_17805" data-name="Path 17805" d="M268.878,228.766h.085a.5.5,0,0,0,.41-.58,2.5,2.5,0,1,1,4.96-.42,2.571,2.571,0,0,1-.035.42.507.507,0,0,0,1,.165,3.5,3.5,0,0,0-1.965-3.755,2,2,0,1,0-2.955,0,3.5,3.5,0,0,0-2.045,3.17,3.449,3.449,0,0,0,.055.585.5.5,0,0,0,.49.415Zm2.955-6.5a1,1,0,1,1-.707.293A1,1,0,0,1,271.833,222.266Z" transform="translate(6012.263 17482.043)"/>
    </g>
  </g>
</svg>
