<svg xmlns="http://www.w3.org/2000/svg" xmlns:xlink="http://www.w3.org/1999/xlink" width="594" height="604" viewBox="0 0 594 604">
  <defs>
    <clipPath id="clip-Circle">
      <rect width="594" height="604"/>
    </clipPath>
  </defs>
  <g id="Circle" clip-path="url(#clip-Circle)">
    <g id="Group_18471" data-name="Group 18471" transform="translate(-30)">
      <path id="Bullet_Points" data-name="Bullet Points" d="M237.2,3.184A3.184,3.184,0,1,0,240.382,0,3.184,3.184,0,0,0,237.2,3.184Z" transform="translate(87.373 404.039)" fill="#3048c1" stroke="#3048c1" stroke-width="0" opacity="0.3"/>
      <path id="Bullet_Points-2" data-name="Bullet Points" d="M237.2,71.847a3.184,3.184,0,1,0,3.184-3.184A3.184,3.184,0,0,0,237.2,71.847Z" transform="translate(87.373 391.422)" fill="#3048c1" stroke="#3048c1" stroke-width="0" opacity="0.3"/>
      <path id="Bullet_Points-3" data-name="Bullet Points" d="M237.2,140.509a3.184,3.184,0,1,0,3.184-3.184A3.184,3.184,0,0,0,237.2,140.509Z" transform="translate(87.373 378.805)" fill="#3048c1" stroke="#3048c1" stroke-width="0" opacity="0.3"/>
      <path id="Bullet_Points-4" data-name="Bullet Points" d="M237.2,37.516a3.184,3.184,0,1,0,3.184-3.184A3.184,3.184,0,0,0,237.2,37.516Z" transform="translate(87.373 397.73)" fill="#3048c1" stroke="#3048c1" stroke-width="0" opacity="0.3"/>
      <path id="Bullet_Points-5" data-name="Bullet Points" d="M237.2,106.178a3.184,3.184,0,1,0,3.184-3.184A3.184,3.184,0,0,0,237.2,106.178Z" transform="translate(87.373 385.113)" fill="#3048c1" stroke="#3048c1" stroke-width="0" opacity="0.3"/>
      <path id="Bullet_Points-6" data-name="Bullet Points" d="M237.2,174.84a3.184,3.184,0,1,0,3.184-3.184A3.184,3.184,0,0,0,237.2,174.84Z" transform="translate(87.373 372.496)" fill="#3048c1" stroke="#3048c1" stroke-width="0" opacity="0.3"/>
      <path id="Bullet_Points-7" data-name="Bullet Points" d="M148.248,3.184A3.184,3.184,0,1,0,151.433,0,3.184,3.184,0,0,0,148.248,3.184Z" transform="translate(103.717 404.039)" fill="#3048c1" stroke="#3048c1" stroke-width="0" opacity="0.3"/>
      <path id="Bullet_Points-8" data-name="Bullet Points" d="M148.248,71.847a3.184,3.184,0,1,0,3.184-3.184A3.184,3.184,0,0,0,148.248,71.847Z" transform="translate(103.717 391.422)" fill="#3048c1" stroke="#3048c1" stroke-width="0" opacity="0.3"/>
      <path id="Bullet_Points-9" data-name="Bullet Points" d="M148.248,140.509a3.184,3.184,0,1,0,3.184-3.184A3.184,3.184,0,0,0,148.248,140.509Z" transform="translate(103.717 378.805)" fill="#3048c1" stroke="#3048c1" stroke-width="0" opacity="0.3"/>
      <path id="Bullet_Points-10" data-name="Bullet Points" d="M148.248,37.516a3.184,3.184,0,1,0,3.184-3.184A3.184,3.184,0,0,0,148.248,37.516Z" transform="translate(103.717 397.73)" fill="#3048c1" stroke="#3048c1" stroke-width="0" opacity="0.3"/>
      <path id="Bullet_Points-11" data-name="Bullet Points" d="M148.248,106.178a3.184,3.184,0,1,0,3.184-3.184A3.184,3.184,0,0,0,148.248,106.178Z" transform="translate(103.717 385.113)" fill="#3048c1" stroke="#3048c1" stroke-width="0" opacity="0.3"/>
      <path id="Bullet_Points-12" data-name="Bullet Points" d="M148.248,174.84a3.184,3.184,0,1,0,3.184-3.184A3.184,3.184,0,0,0,148.248,174.84Z" transform="translate(103.717 372.496)" fill="#3048c1" stroke="#3048c1" stroke-width="0" opacity="0.3"/>
      <path id="Bullet_Points-13" data-name="Bullet Points" d="M59.3,3.184A3.184,3.184,0,1,0,62.484,0,3.184,3.184,0,0,0,59.3,3.184Z" transform="translate(120.063 404.039)" fill="#3048c1" stroke="#3048c1" stroke-width="0" opacity="0.3"/>
      <path id="Bullet_Points-14" data-name="Bullet Points" d="M59.3,71.847a3.184,3.184,0,1,0,3.184-3.184A3.184,3.184,0,0,0,59.3,71.847Z" transform="translate(120.063 391.422)" fill="#3048c1" stroke="#3048c1" stroke-width="0" opacity="0.3"/>
      <path id="Bullet_Points-15" data-name="Bullet Points" d="M59.3,140.509a3.184,3.184,0,1,0,3.184-3.184A3.184,3.184,0,0,0,59.3,140.509Z" transform="translate(120.063 378.805)" fill="#3048c1" stroke="#3048c1" stroke-width="0" opacity="0.3"/>
      <path id="Bullet_Points-16" data-name="Bullet Points" d="M59.3,37.516a3.184,3.184,0,1,0,3.184-3.184A3.184,3.184,0,0,0,59.3,37.516Z" transform="translate(120.063 397.73)" fill="#3048c1" stroke="#3048c1" stroke-width="0" opacity="0.3"/>
      <path id="Bullet_Points-17" data-name="Bullet Points" d="M59.3,106.178a3.184,3.184,0,1,0,3.184-3.184A3.184,3.184,0,0,0,59.3,106.178Z" transform="translate(120.063 385.113)" fill="#3048c1" stroke="#3048c1" stroke-width="0" opacity="0.3"/>
      <path id="Bullet_Points-18" data-name="Bullet Points" d="M59.3,174.84a3.184,3.184,0,1,0,3.184-3.184A3.184,3.184,0,0,0,59.3,174.84Z" transform="translate(120.063 372.496)" fill="#3048c1" stroke="#3048c1" stroke-width="0" opacity="0.3"/>
      <path id="Bullet_Points-19" data-name="Bullet Points" d="M207.548,3.184A3.184,3.184,0,1,0,210.732,0,3.184,3.184,0,0,0,207.548,3.184Z" transform="translate(92.821 404.039)" fill="#3048c1" stroke="#3048c1" stroke-width="0" opacity="0.3"/>
      <path id="Bullet_Points-20" data-name="Bullet Points" d="M207.548,71.847a3.184,3.184,0,1,0,3.184-3.184A3.184,3.184,0,0,0,207.548,71.847Z" transform="translate(92.821 391.422)" fill="#3048c1" stroke="#3048c1" stroke-width="0" opacity="0.3"/>
      <path id="Bullet_Points-21" data-name="Bullet Points" d="M207.548,140.509a3.184,3.184,0,1,0,3.184-3.184A3.184,3.184,0,0,0,207.548,140.509Z" transform="translate(92.821 378.805)" fill="#3048c1" stroke="#3048c1" stroke-width="0" opacity="0.3"/>
      <path id="Bullet_Points-22" data-name="Bullet Points" d="M207.548,37.516a3.184,3.184,0,1,0,3.184-3.184A3.184,3.184,0,0,0,207.548,37.516Z" transform="translate(92.821 397.73)" fill="#3048c1" stroke="#3048c1" stroke-width="0" opacity="0.3"/>
      <path id="Bullet_Points-23" data-name="Bullet Points" d="M207.548,106.178a3.184,3.184,0,1,0,3.184-3.184A3.184,3.184,0,0,0,207.548,106.178Z" transform="translate(92.821 385.113)" fill="#3048c1" stroke="#3048c1" stroke-width="0" opacity="0.3"/>
      <path id="Bullet_Points-24" data-name="Bullet Points" d="M207.548,174.84a3.184,3.184,0,1,0,3.184-3.184A3.184,3.184,0,0,0,207.548,174.84Z" transform="translate(92.821 372.496)" fill="#3048c1" stroke="#3048c1" stroke-width="0" opacity="0.3"/>
      <path id="Bullet_Points-25" data-name="Bullet Points" d="M118.6,3.184A3.184,3.184,0,1,0,121.783,0,3.184,3.184,0,0,0,118.6,3.184Z" transform="translate(109.166 404.039)" fill="#3048c1" stroke="#3048c1" stroke-width="0" opacity="0.3"/>
      <path id="Bullet_Points-26" data-name="Bullet Points" d="M118.6,71.847a3.184,3.184,0,1,0,3.184-3.184A3.184,3.184,0,0,0,118.6,71.847Z" transform="translate(109.166 391.422)" fill="#3048c1" stroke="#3048c1" stroke-width="0" opacity="0.3"/>
      <path id="Bullet_Points-27" data-name="Bullet Points" d="M118.6,140.509a3.184,3.184,0,1,0,3.184-3.184A3.184,3.184,0,0,0,118.6,140.509Z" transform="translate(109.166 378.805)" fill="#3048c1" stroke="#3048c1" stroke-width="0" opacity="0.3"/>
      <path id="Bullet_Points-28" data-name="Bullet Points" d="M118.6,37.516a3.184,3.184,0,1,0,3.184-3.184A3.184,3.184,0,0,0,118.6,37.516Z" transform="translate(109.166 397.73)" fill="#3048c1" stroke="#3048c1" stroke-width="0" opacity="0.3"/>
      <path id="Bullet_Points-29" data-name="Bullet Points" d="M118.6,106.178a3.184,3.184,0,1,0,3.184-3.184A3.184,3.184,0,0,0,118.6,106.178Z" transform="translate(109.166 385.113)" fill="#3048c1" stroke="#3048c1" stroke-width="0" opacity="0.3"/>
      <path id="Bullet_Points-30" data-name="Bullet Points" d="M118.6,174.84a3.184,3.184,0,1,0,3.184-3.184A3.184,3.184,0,0,0,118.6,174.84Z" transform="translate(109.166 372.496)" fill="#3048c1" stroke="#3048c1" stroke-width="0" opacity="0.3"/>
      <path id="Bullet_Points-31" data-name="Bullet Points" d="M29.65,3.184A3.184,3.184,0,1,0,32.834,0,3.184,3.184,0,0,0,29.65,3.184Z" transform="translate(125.511 404.039)" fill="#3048c1" stroke="#3048c1" stroke-width="0" opacity="0.3"/>
      <path id="Bullet_Points-32" data-name="Bullet Points" d="M29.65,71.847a3.184,3.184,0,1,0,3.184-3.184A3.184,3.184,0,0,0,29.65,71.847Z" transform="translate(125.511 391.422)" fill="#3048c1" stroke="#3048c1" stroke-width="0" opacity="0.3"/>
      <path id="Bullet_Points-33" data-name="Bullet Points" d="M29.65,140.509a3.184,3.184,0,1,0,3.184-3.184A3.184,3.184,0,0,0,29.65,140.509Z" transform="translate(125.511 378.805)" fill="#3048c1" stroke="#3048c1" stroke-width="0" opacity="0.3"/>
      <path id="Bullet_Points-34" data-name="Bullet Points" d="M29.65,37.516a3.184,3.184,0,1,0,3.184-3.184A3.184,3.184,0,0,0,29.65,37.516Z" transform="translate(125.511 397.73)" fill="#3048c1" stroke="#3048c1" stroke-width="0" opacity="0.3"/>
      <path id="Bullet_Points-35" data-name="Bullet Points" d="M29.65,106.178a3.184,3.184,0,1,0,3.184-3.184A3.184,3.184,0,0,0,29.65,106.178Z" transform="translate(125.511 385.113)" fill="#3048c1" stroke="#3048c1" stroke-width="0" opacity="0.3"/>
      <path id="Bullet_Points-36" data-name="Bullet Points" d="M29.65,174.84a3.184,3.184,0,1,0,3.184-3.184A3.184,3.184,0,0,0,29.65,174.84Z" transform="translate(125.511 372.496)" fill="#3048c1" stroke="#3048c1" stroke-width="0" opacity="0.3"/>
      <path id="Bullet_Points-37" data-name="Bullet Points" d="M177.9,3.184A3.184,3.184,0,1,0,181.082,0,3.184,3.184,0,0,0,177.9,3.184Z" transform="translate(98.269 404.039)" fill="#3048c1" stroke="#3048c1" stroke-width="0" opacity="0.3"/>
      <path id="Bullet_Points-38" data-name="Bullet Points" d="M177.9,71.847a3.184,3.184,0,1,0,3.184-3.184A3.184,3.184,0,0,0,177.9,71.847Z" transform="translate(98.269 391.422)" fill="#3048c1" stroke="#3048c1" stroke-width="0" opacity="0.3"/>
      <path id="Bullet_Points-39" data-name="Bullet Points" d="M177.9,140.509a3.184,3.184,0,1,0,3.184-3.184A3.184,3.184,0,0,0,177.9,140.509Z" transform="translate(98.269 378.805)" fill="#3048c1" stroke="#3048c1" stroke-width="0" opacity="0.3"/>
      <path id="Bullet_Points-40" data-name="Bullet Points" d="M177.9,37.516a3.184,3.184,0,1,0,3.184-3.184A3.184,3.184,0,0,0,177.9,37.516Z" transform="translate(98.269 397.73)" fill="#3048c1" stroke="#3048c1" stroke-width="0" opacity="0.3"/>
      <path id="Bullet_Points-41" data-name="Bullet Points" d="M177.9,106.178a3.184,3.184,0,1,0,3.184-3.184A3.184,3.184,0,0,0,177.9,106.178Z" transform="translate(98.269 385.113)" fill="#3048c1" stroke="#3048c1" stroke-width="0" opacity="0.3"/>
      <path id="Bullet_Points-42" data-name="Bullet Points" d="M177.9,174.84a3.184,3.184,0,1,0,3.184-3.184A3.184,3.184,0,0,0,177.9,174.84Z" transform="translate(98.269 372.496)" fill="#3048c1" stroke="#3048c1" stroke-width="0" opacity="0.3"/>
      <path id="Bullet_Points-43" data-name="Bullet Points" d="M88.949,3.184A3.184,3.184,0,1,0,92.133,0,3.184,3.184,0,0,0,88.949,3.184Z" transform="translate(114.614 404.039)" fill="#3048c1" stroke="#3048c1" stroke-width="0" opacity="0.3"/>
      <path id="Bullet_Points-44" data-name="Bullet Points" d="M88.949,71.847a3.184,3.184,0,1,0,3.184-3.184A3.184,3.184,0,0,0,88.949,71.847Z" transform="translate(114.614 391.422)" fill="#3048c1" stroke="#3048c1" stroke-width="0" opacity="0.3"/>
      <path id="Bullet_Points-45" data-name="Bullet Points" d="M88.949,140.509a3.184,3.184,0,1,0,3.184-3.184A3.184,3.184,0,0,0,88.949,140.509Z" transform="translate(114.614 378.805)" fill="#3048c1" stroke="#3048c1" stroke-width="0" opacity="0.3"/>
      <path id="Bullet_Points-46" data-name="Bullet Points" d="M88.949,37.516a3.184,3.184,0,1,0,3.184-3.184A3.184,3.184,0,0,0,88.949,37.516Z" transform="translate(114.614 397.73)" fill="#3048c1" stroke="#3048c1" stroke-width="0" opacity="0.3"/>
      <path id="Bullet_Points-47" data-name="Bullet Points" d="M88.949,106.178a3.184,3.184,0,1,0,3.184-3.184A3.184,3.184,0,0,0,88.949,106.178Z" transform="translate(114.614 385.113)" fill="#3048c1" stroke="#3048c1" stroke-width="0" opacity="0.3"/>
      <path id="Bullet_Points-48" data-name="Bullet Points" d="M88.949,174.84a3.184,3.184,0,1,0,3.184-3.184A3.184,3.184,0,0,0,88.949,174.84Z" transform="translate(114.614 372.496)" fill="#3048c1" stroke="#3048c1" stroke-width="0" opacity="0.3"/>
      <path id="Bullet_Points-49" data-name="Bullet Points" d="M0,3.184A3.184,3.184,0,1,0,3.184,0,3.184,3.184,0,0,0,0,3.184Z" transform="translate(130.959 404.039)" fill="#3048c1" stroke="#3048c1" stroke-width="0" opacity="0.3"/>
      <path id="Bullet_Points-50" data-name="Bullet Points" d="M0,71.847a3.184,3.184,0,1,0,3.184-3.184A3.184,3.184,0,0,0,0,71.847Z" transform="translate(130.959 391.422)" fill="#3048c1" stroke="#3048c1" stroke-width="0" opacity="0.3"/>
      <path id="Bullet_Points-51" data-name="Bullet Points" d="M0,140.509a3.184,3.184,0,1,0,3.184-3.184A3.184,3.184,0,0,0,0,140.509Z" transform="translate(130.959 378.805)" fill="#3048c1" stroke="#3048c1" stroke-width="0" opacity="0.3"/>
      <path id="Bullet_Points-52" data-name="Bullet Points" d="M0,37.516a3.184,3.184,0,1,0,3.184-3.184A3.184,3.184,0,0,0,0,37.516Z" transform="translate(130.959 397.73)" fill="#3048c1" stroke="#3048c1" stroke-width="0" opacity="0.3"/>
      <path id="Bullet_Points-53" data-name="Bullet Points" d="M0,106.178a3.184,3.184,0,1,0,3.184-3.184A3.184,3.184,0,0,0,0,106.178Z" transform="translate(130.959 385.113)" fill="#3048c1" stroke="#3048c1" stroke-width="0" opacity="0.3"/>
      <path id="Bullet_Points-54" data-name="Bullet Points" d="M0,174.84a3.184,3.184,0,1,0,3.184-3.184A3.184,3.184,0,0,0,0,174.84Z" transform="translate(130.959 372.496)" fill="#3048c1" stroke="#3048c1" stroke-width="0" opacity="0.3"/>
      <g id="Image" transform="translate(63.21 44.074)">
        <ellipse id="Circle-2" data-name="Circle" cx="248" cy="248.5" rx="248" ry="248.5" transform="translate(0.251 -0.355)" fill="none" stroke="#828282" stroke-width="2" opacity="0.16"/>
      </g>
      <circle id="Ellipse_34" data-name="Ellipse 34" cx="234" cy="234" r="234" transform="translate(113.461 39)" fill="#c4c4c4"/>
      <g id="Group_8" data-name="Group 8" transform="translate(31 19)">
        <path id="Polygon_2" data-name="Polygon 2" d="M24.645,0,49.29,49.29H0Z" transform="translate(510.131 503.943) rotate(-30)" fill="#3048c1"/>
        <path id="Polygon_4" data-name="Polygon 4" d="M23,0,46,46H0Z" transform="translate(32.524 65.047) rotate(-135)" fill="#fdad00"/>
        <g id="Polygon_3" data-name="Polygon 3" transform="translate(504.187 512.731) rotate(-30)" fill="none">
          <path d="M24.645,0,49.29,49.29H0Z" stroke="none"/>
          <path d="M 24.64485359191895 2.236072540283203 L 1.618038177490234 48.28970336914062 L 47.67166900634766 48.28970336914062 L 24.64485359191895 2.236072540283203 M 24.64485359191895 0 L 49.28970336914062 49.28970336914062 L 3.814697265625e-06 49.28970336914062 L 24.64485359191895 0 Z" stroke="none" fill="#000"/>
        </g>
        <g id="Polygon_5" data-name="Polygon 5" transform="translate(41.88 68.282) rotate(-135)" fill="none">
          <path d="M23,0,46,46H0Z" stroke="none"/>
          <path d="M 22.99765968322754 2.236068725585938 L 1.618034362792969 44.99531936645508 L 44.37728500366211 44.99531936645508 L 22.99765968322754 2.236068725585938 M 22.99765968322754 -3.814697265625e-06 L 45.99531936645508 45.99531936645508 L 0 45.99531936645508 L 22.99765968322754 -3.814697265625e-06 Z" stroke="none" fill="#000"/>
        </g>
      </g>
    </g>
  </g>
</svg>
