<svg xmlns="http://www.w3.org/2000/svg" xmlns:xlink="http://www.w3.org/1999/xlink" width="34" height="33" viewBox="0 0 34 33">
  <defs>
    <clipPath id="clip-Insta">
      <rect width="34" height="33"/>
    </clipPath>
  </defs>
  <g id="Insta" clip-path="url(#clip-Insta)">
    <path id="_5279112_camera_instagram_social_media_instagram_logo_icon" data-name="5279112_camera_instagram_social media_instagram logo_icon" d="M15.639,0A15.639,15.639,0,1,1,0,15.639,15.646,15.646,0,0,1,15.639,0Zm0,5.864c-2.654,0-2.987.011-4.03.059a7.175,7.175,0,0,0-2.373.454A5,5,0,0,0,6.378,9.236a7.176,7.176,0,0,0-.454,2.373c-.048,1.043-.059,1.375-.059,4.03s.011,2.987.059,4.03a7.176,7.176,0,0,0,.454,2.373A5,5,0,0,0,9.236,24.9a7.177,7.177,0,0,0,2.373.454c1.043.048,1.375.059,4.03.059s2.987-.011,4.03-.059a7.176,7.176,0,0,0,2.373-.454A5,5,0,0,0,24.9,22.041a7.176,7.176,0,0,0,.454-2.373c.048-1.043.059-1.375.059-4.03s-.011-2.987-.059-4.03A7.176,7.176,0,0,0,24.9,9.236a5,5,0,0,0-2.859-2.859,7.174,7.174,0,0,0-2.373-.454C18.626,5.876,18.293,5.864,15.639,5.864Zm0,1.761c2.61,0,2.919.01,3.95.057a5.408,5.408,0,0,1,1.815.337,3.237,3.237,0,0,1,1.855,1.855,5.407,5.407,0,0,1,.337,1.815c.047,1.031.057,1.34.057,3.95s-.01,2.919-.057,3.95a5.407,5.407,0,0,1-.337,1.815A3.237,3.237,0,0,1,21.4,23.258a5.407,5.407,0,0,1-1.815.337c-1.03.047-1.34.057-3.95.057s-2.919-.01-3.95-.057a5.407,5.407,0,0,1-1.815-.337A3.237,3.237,0,0,1,8.019,21.4a5.408,5.408,0,0,1-.337-1.815c-.047-1.031-.057-1.34-.057-3.95s.01-2.919.057-3.95a5.408,5.408,0,0,1,.337-1.815A3.237,3.237,0,0,1,9.874,8.019a5.408,5.408,0,0,1,1.815-.337c1.031-.047,1.34-.057,3.95-.057Zm0,2.994a5.019,5.019,0,1,0,5.019,5.019,5.019,5.019,0,0,0-5.019-5.019Zm0,8.277A3.258,3.258,0,1,1,18.9,15.639,3.258,3.258,0,0,1,15.639,18.9Zm6.39-8.475a1.173,1.173,0,1,1-1.173-1.173A1.173,1.173,0,0,1,22.029,10.421Z" transform="translate(1.005 0.777)" fill="#429be6" fill-rule="evenodd"/>
  </g>
</svg>
