<svg xmlns="http://www.w3.org/2000/svg" xmlns:xlink="http://www.w3.org/1999/xlink" width="82" height="64" viewBox="0 0 82 64">
  <defs>
    <clipPath id="clip-Blogs_Videos">
      <rect width="82" height="64"/>
    </clipPath>
  </defs>
  <g id="Blogs_Videos" data-name="Blogs &amp; Videos" clip-path="url(#clip-Blogs_Videos)">
    <g id="Blog_Videos" data-name="Blog &amp; Videos" transform="translate(12 5)">
      <path id="Vector" d="M3.468,54.359H53.744a3.49,3.49,0,0,0,3.468-3.5c0-6.05,0,19.492.009-47.35A3.49,3.49,0,0,0,53.752,0H3.476A3.49,3.49,0,0,0,.009,3.5c0,10.956,0,31.614-.009,47.35a3.49,3.49,0,0,0,3.468,3.5Zm52.01-3.5a1.745,1.745,0,0,1-1.734,1.752H3.468a1.745,1.745,0,0,1-1.734-1.752V12.348H17.086a1.717,1.717,0,0,0,1.41-.738l2.083-2.97H32.663v1.954A1.745,1.745,0,0,0,34.4,12.347H55.478ZM1.742,3.5A1.745,1.745,0,0,1,3.476,1.752H53.752A1.745,1.745,0,0,1,55.486,3.5v7.09H34.4V8.64a1.745,1.745,0,0,0-1.734-1.752H20.579a1.755,1.755,0,0,0-1.419.738l-2.074,2.968H1.742Z" transform="translate(0 0)" stroke="#000" stroke-width="0.3"/>
      <path id="Vector_2" d="M5.535,6.708A1.752,1.752,0,1,0,3.8,4.955,1.752,1.752,0,0,0,5.535,6.708Z" transform="translate(1.636 1.379)" stroke="#000" stroke-width="0.3"/>
      <path id="Vector_3" d="M9.777,6.708A1.752,1.752,0,1,0,8.043,4.955,1.752,1.752,0,0,0,9.777,6.708Z" transform="translate(3.463 1.379)" stroke="#000" stroke-width="0.3"/>
      <path id="Vector_4" d="M10.918,14.079a24.942,24.942,0,0,0,0,15.136,3.834,3.834,0,0,0,3.591,2.442H34.216A3.848,3.848,0,0,0,37.738,29.4a22.927,22.927,0,0,0,0-15.512,3.848,3.848,0,0,0-3.52-2.249H14.506A3.832,3.832,0,0,0,10.918,14.079Zm25.238.534a21.157,21.157,0,0,1,0,14.072,2.111,2.111,0,0,1-1.94,1.22H14.506a2.093,2.093,0,0,1-1.971-1.316,23.253,23.253,0,0,1,0-13.876A2.09,2.09,0,0,1,14.5,13.4H34.216a2.11,2.11,0,0,1,1.938,1.212Z" transform="translate(4.194 5.012)" stroke="#000" stroke-width="0.3"/>
      <path id="Vector_5" d="M18.034,26.049a1.379,1.379,0,0,0,.737-.215l6.821-4.292a1.418,1.418,0,0,0,0-2.395l-6.818-4.28a1.38,1.38,0,0,0-.741-.217,1.4,1.4,0,0,0-1.393,1.412v8.569a1.4,1.4,0,0,0,1.395,1.418Zm.34-9.364,5.839,3.665-5.839,3.669Z" transform="translate(7.163 6.307)" stroke="#000" stroke-width="0.3"/>
      <path id="Vector_6" d="M25.023,30.138c5,.009,10.048.07,15.02.182l.039-1.754c-4.98-.113-10.044-.175-15.052-.183Z" transform="translate(10.772 12.219)" stroke="#000" stroke-width="0.3"/>
      <path id="Vector_7" d="M26.3,28.386c-4.2.014-8.457.066-12.643.153l.036,1.754c4.177-.087,8.42-.143,12.613-.153Z" transform="translate(5.882 12.22)" stroke="#000" stroke-width="0.3"/>
      <path id="Vector_8" d="M12.821,28.512H4.465v1.754h8.356Z" transform="translate(1.922 12.274)" stroke="#000" stroke-width="0.3"/>
      <path id="Vector_9" d="M38.426,32.8h-9.61v1.754h9.61Z" transform="translate(12.405 14.12)" stroke="#000" stroke-width="0.3"/>
      <path id="Vector_10" d="M29.012,32.8H20v1.754h9.012Z" transform="translate(8.61 14.12)" stroke="#000" stroke-width="0.3"/>
      <path id="Vector_11" d="M19.3,32.8H13.977v1.754H19.3Z" transform="translate(6.017 14.12)" stroke="#000" stroke-width="0.3"/>
      <path id="Vector_12" d="M14.529,32.8H4.465v1.754H14.529Z" transform="translate(1.922 14.12)" stroke="#000" stroke-width="0.3"/>
    </g>
  </g>
</svg>
