<svg xmlns="http://www.w3.org/2000/svg" xmlns:xlink="http://www.w3.org/1999/xlink" width="82" height="64" viewBox="0 0 82 64">
  <defs>
    <clipPath id="clip-Business_Hub_1">
      <rect width="82" height="64"/>
    </clipPath>
  </defs>
  <g id="Business_Hub_1" data-name="Business Hub – 1" clip-path="url(#clip-Business_Hub_1)">
    <g id="Group_19492" data-name="Group 19492" transform="translate(2.729 2)">
      <path id="Path_21751" data-name="Path 21751" d="M3.306,32.353h3.67V44.265a1.305,1.305,0,0,0,1.306,1.306h33.15a1.305,1.305,0,0,0,1.306-1.306V32.353h3.67a1.305,1.305,0,0,0,1.306-1.306V17.816a1.305,1.305,0,0,0-1.306-1.306H32.8v-6.2A1.305,1.305,0,0,0,31.492,9H18.222a1.305,1.305,0,0,0-1.306,1.306v6.2H3.306A1.305,1.305,0,0,0,2,17.816V31.047A1.305,1.305,0,0,0,3.306,32.353Zm36.82,10.606H9.588V32.353H40.126Zm-20.6-31.346H30.186v4.9H19.528ZM4.612,19.122H45.1V29.741H4.612Z" transform="translate(-2 -9)"/>
      <path id="Path_21752" data-name="Path 21752" d="M73.633,41.392a1.4,1.4,0,0,0-.4-.938l-5.207-5.207a1.306,1.306,0,0,0-1.847,1.847l2.99,2.99H59.2a18.1,18.1,0,0,0-4.415-10.651l9.189-9.18v4.228a1.306,1.306,0,0,0,2.612,0V17.124a1.331,1.331,0,0,0-1.306-1.337H57.9a1.306,1.306,0,0,0,0,2.612h4.241l-9.183,9.173c-1.212-1.223-8.635-5.938-9.326-3.008a1.307,1.307,0,0,0,.972,1.572c11.786,2.642,16.14,17.9,7.459,26.335-7.57,7.878-21.531,5.124-25.545-5.044A1.306,1.306,0,0,0,24.1,48.433C28.589,59.792,43.9,63.373,52.942,55.2l9.194,9.194H57.9A1.306,1.306,0,0,0,57.9,67h7.388a1.322,1.322,0,0,0,1.306-1.332V58.308a1.306,1.306,0,0,0-2.612,0v4.231l-9.19-9.19A18.1,18.1,0,0,0,59.2,42.7H69.18l-3,3a1.306,1.306,0,0,0,1.847,1.847l5.224-5.224A1.422,1.422,0,0,0,73.633,41.392Z" transform="translate(4.733 -6.922)"/>
    </g>
  </g>
</svg>
