<svg xmlns="http://www.w3.org/2000/svg" xmlns:xlink="http://www.w3.org/1999/xlink" width="82" height="64" viewBox="0 0 82 64">
  <defs>
    <clipPath id="clip-Business_Lead">
      <rect width="82" height="64"/>
    </clipPath>
  </defs>
  <g id="Business_Lead" data-name="Business Lead" clip-path="url(#clip-Business_Lead)">
    <g id="Lead_Generation" data-name="Lead Generation" transform="translate(12 3)">
      <path id="Vector" d="M29.629,58.239A28.64,28.64,0,1,1,49.85,49.851,28.64,28.64,0,0,1,29.629,58.239Zm0-56.028a27.454,27.454,0,1,0,19.378,8.041A27.454,27.454,0,0,0,29.629,2.211Zm0,51.165A23.782,23.782,0,1,1,46.416,46.41,23.782,23.782,0,0,1,29.629,53.375Zm0-46.307a22.583,22.583,0,1,0,15.946,6.615A22.583,22.583,0,0,0,29.629,7.069Z" transform="translate(-0.956 -0.956)" stroke="#000" stroke-width="0.6"/>
      <path id="Vector_2" d="M25.846,41.937a16.093,16.093,0,1,1,11.38-4.721A16.093,16.093,0,0,1,25.846,41.937Zm0-30.995a14.9,14.9,0,1,0,10.537,4.364,14.9,14.9,0,0,0-10.537-4.364Z" transform="translate(2.827 2.829)" stroke="#000" stroke-width="0.6"/>
      <path id="Vector_3" d="M24.553,36.35a11.8,11.8,0,1,1,8.34-3.456,11.8,11.8,0,0,1-8.34,3.456Zm0-22.4a10.616,10.616,0,1,0,7.494,3.11,10.616,10.616,0,0,0-7.494-3.11Z" transform="translate(4.12 4.119)" stroke="#000" stroke-width="0.6"/>
      <path id="Vector_4" d="M26.153,27.6a3.272,3.272,0,0,1-1.34,1.133,5.274,5.274,0,0,1-2.014.489v1.192a.518.518,0,0,1-.87.363.484.484,0,0,1-.143-.363V29.22a10.131,10.131,0,0,1-3.346-.777.823.823,0,0,1-.333-.275.685.685,0,0,1-.132-.4.7.7,0,0,1,.19-.489.638.638,0,0,1,.489-.209.834.834,0,0,1,.316.066,7.626,7.626,0,0,0,2.814.661v-3.8a12.631,12.631,0,0,1-1.871-.649,3.433,3.433,0,0,1-1.287-.983,2.462,2.462,0,0,1-.506-1.615,3.1,3.1,0,0,1,.418-1.585,3.367,3.367,0,0,1,1.257-1.192,4.768,4.768,0,0,1,2.014-.6V16.179a.531.531,0,0,1,.143-.363.489.489,0,0,1,.358-.143.508.508,0,0,1,.363.143.489.489,0,0,1,.143.363v1.156a9,9,0,0,1,2.885.548.644.644,0,0,1,.459.662.734.734,0,0,1-.179.476.6.6,0,0,1-.482.215.669.669,0,0,1-.262-.066,8.344,8.344,0,0,0-2.42-.446V22.7a12.936,12.936,0,0,1,1.988.594,3.324,3.324,0,0,1,1.317.984,2.669,2.669,0,0,1,.531,1.728,2.848,2.848,0,0,1-.5,1.592Zm-6-5.842a5.15,5.15,0,0,0,1.634.679V18.793a3.207,3.207,0,0,0-1.592.6,1.513,1.513,0,0,0-.6,1.233,1.312,1.312,0,0,0,.555,1.133Zm4.977,4.173a1.114,1.114,0,0,0-.6-1,6.882,6.882,0,0,0-1.747-.674v3.576c1.562-.143,2.343-.775,2.343-1.92Z" transform="translate(6.371 5.38)" stroke="#000" stroke-width="0.6"/>
    </g>
  </g>
</svg>
