<svg xmlns="http://www.w3.org/2000/svg" xmlns:xlink="http://www.w3.org/1999/xlink" width="82" height="64" viewBox="0 0 82 64">
  <defs>
    <clipPath id="clip-Job_Search">
      <rect width="82" height="64"/>
    </clipPath>
  </defs>
  <g id="Job_Search" data-name="Job Search" clip-path="url(#clip-Job_Search)">
    <g id="Job_Search-2" data-name="Job Search" transform="translate(12 3)">
      <path id="Vector" d="M42.257,9.253q.7.7,1.336,1.448c.189.226.379.452.562.684.037.043.226.286.024.03a1.92,1.92,0,0,1,.134.177c.116.153.226.3.336.458a24.16,24.16,0,0,1,1.935,3.181c.129.256.256.514.372.77.062.129.116.256.177.391.037.08.067.159.1.232.1.232-.1-.232.024.062.232.562.446,1.136.635,1.717a24.891,24.891,0,0,1,.873,3.518l.073.458c.011.067.019.143.03.207.043.286-.037-.286,0,0s.073.611.1.917c.054.611.086,1.227.1,1.844q.009.88-.037,1.76c-.019.286-.037.587-.067.88a6.327,6.327,0,0,1-.11.958c.092-.355-.011.08-.024.177-.019.143-.043.275-.067.415-.049.3-.11.605-.17.91-.129.605-.275,1.209-.446,1.8s-.366,1.184-.587,1.771c-.1.269-.207.532-.312.794s.11-.25-.013.024c-.024.054-.043.1-.067.159-.067.159-.143.312-.213.471a23.83,23.83,0,0,1-1.838,3.267c-.17.256-.348.506-.525.751-.086.116-.172.239-.263.355-.054.073-.1.143-.159.207.122-.153.062-.08-.024.03-.4.514-.83,1-1.276,1.485a26.593,26.593,0,0,1-2.827,2.608c-.237.189.207-.159-.03.024a1.659,1.659,0,0,1-.143.1c-.116.086-.232.177-.353.263-.286.207-.572.4-.858.6-.506.336-1.026.647-1.556.947s-1.111.592-1.685.858c-.129.062-.256.116-.391.177-.08.037-.153.073-.232.1.03-.013.256-.1.054-.024-.3.122-.6.245-.91.355a24.307,24.307,0,0,1-3.535,1c-.275.056-.549.11-.824.153-.143.024-.275.049-.415.067l-.25.037c-.269.043.245-.03,0,0-.611.073-1.22.134-1.838.165a25.306,25.306,0,0,1-3.6-.073,5.07,5.07,0,0,1-.916-.1c.024,0,.286.043.073.013l-.25-.037c-.165-.024-.329-.054-.5-.08-.592-.1-1.184-.226-1.771-.372a18.3,18.3,0,0,1-3.492-1.16c.03.011.256.11.054.024-.08-.037-.159-.067-.232-.1-.129-.054-.263-.116-.391-.177-.286-.134-.572-.269-.848-.415-.562-.286-1.117-.6-1.654-.934s-1.05-.678-1.556-1.044c-.129-.1-.263-.189-.391-.286-.049-.037-.092-.073-.143-.11.25.2.013.013-.03-.024q-.385-.3-.751-.622a25,25,0,0,1-2.718-2.731c-.213-.25-.415-.5-.617-.757-.134-.17,0,.013.03.037-.054-.067-.11-.143-.159-.207L6.9,39.4c-.372-.519-.727-1.05-1.056-1.6-.312-.519-.6-1.044-.88-1.582-.143-.286-.286-.562-.409-.848-.062-.129-.116-.256-.177-.391-.03-.067-.054-.129-.086-.2s-.024-.054.043.1c-.024-.054-.043-.1-.067-.159A24.662,24.662,0,0,1,3.14,31.263c-.143-.6-.275-1.2-.372-1.814-.024-.143-.043-.275-.067-.415-.013-.067-.019-.143-.03-.207-.024-.183.037.318,0,.03s-.073-.611-.1-.916a24.812,24.812,0,0,1-.054-3.689c.037-.587.1-1.173.165-1.752-.043.372.013-.08.024-.177.024-.165.054-.33.079-.5.054-.3.11-.605.177-.91a24,24,0,0,1,1.02-3.488c.1-.286.213-.556.329-.831.067-.172-.122.286,0,.019.037-.08.067-.159.1-.232.067-.159.143-.312.213-.465.256-.544.531-1.081.824-1.606q.468-.835,1-1.625c.165-.245.329-.482.5-.715.092-.129.189-.263.286-.391.043-.062.086-.116.134-.177-.207.263.043-.049.079-.1A24.891,24.891,0,0,1,10.08,8.489c.471-.429.958-.837,1.459-1.24.143-.116-.237.177,0,0l.213-.159c.116-.086.237-.177.355-.256.263-.189.525-.366.794-.544a24.267,24.267,0,0,1,3.236-1.8c.143-.067.286-.129.429-.2.067-.03.129-.062.2-.086-.312.1-.043.019.024,0,.286-.116.579-.232.873-.336.572-.207,1.144-.4,1.734-.562S20.558,3,21.15,2.879c.286-.062.579-.116.867-.165l.458-.073a1.63,1.63,0,0,0,.165-.024c.134-.019.11-.019-.073.013a1.532,1.532,0,0,0,.165-.024,25.32,25.32,0,0,1,3.6-.183c.617.013,1.227.049,1.844.11a4.809,4.809,0,0,1,.837.1c-.36-.1.079.013.177.024.165.024.329.054.5.08a27.653,27.653,0,0,1,3.54.916,15.1,15.1,0,0,1,1.709.641c-.312-.143.1.043.177.08.143.062.286.129.429.2.3.143.592.286.885.429A24.441,24.441,0,0,1,39.6,6.957c.116.086.239.172.353.263a.645.645,0,0,1,.067.054c.1.08.092.073-.037-.03.011.03.11.086.143.11q.385.3.751.624c.482.409.94.837,1.386,1.287a1.235,1.235,0,0,0,1.728,0,1.247,1.247,0,0,0,0-1.728A25.728,25.728,0,0,0,30.158.359,26.125,26.125,0,0,0,14.823,2.432,25.749,25.749,0,0,0,34.8,49.862a26.129,26.129,0,0,0,12.514-10,25.769,25.769,0,0,0-.7-29.255,27.466,27.466,0,0,0-2.625-3.084,1.222,1.222,0,0,0-1.728,1.728Z" transform="translate(0.088 0.001)"/>
      <path id="Vector_2" d="M29.62,31.35q2.18,2.18,4.359,4.354,3.488,3.48,6.971,6.969l1.594,1.594a1.235,1.235,0,0,0,1.728,0,1.247,1.247,0,0,0,0-1.728l-4.359-4.356Q36.424,34.7,32.94,31.214L31.347,29.62a1.235,1.235,0,0,0-1.728,0,1.247,1.247,0,0,0,0,1.729Z" transform="translate(12.726 12.601)"/>
      <path id="Vector_3" d="M34.874,30.6a1.586,1.586,0,0,1-.013.25c0,.286.067-.269,0,0-.037.159-.08.312-.129.471-.08.263.129-.239,0,0-.037.067-.073.143-.11.207l-.129.2c-.079.1-.062.086.049-.054a1.348,1.348,0,0,1-.1.122c-.092.1-.189.183-.286.275.226-.143-.2.189,0,0l-.2.129c-.067.043-.143.073-.207.11-.237.134.263-.08,0,0a2.8,2.8,0,0,1-.549.143l.159-.019a1.484,1.484,0,0,1-.165.013,1.586,1.586,0,0,1-.17,0H18.209c-2.289,0-4.578.024-6.855,0a1.276,1.276,0,0,1-.348-.019l.159.019a1.235,1.235,0,0,1-.159-.03c-.079-.019-.159-.037-.237-.062a1.09,1.09,0,0,1-.226-.08c.165.073.189.08.073.024l-.143-.073a2.23,2.23,0,0,1-.2-.122c-.024-.013-.043-.03-.067-.043-.1-.08-.086-.062.054.049-.024.013-.269-.245-.286-.269a1.384,1.384,0,0,1-.159-.177c.03.043.062.08.092.122l-.092-.129c-.043-.067-.086-.134-.122-.2s-.049-.092-.073-.143c-.054-.122-.049-.1.024.073-.043,0-.129-.415-.143-.463a.43.43,0,0,0-.019-.08c-.024-.134-.019-.11,0,.08a1.073,1.073,0,0,1-.019-.25V16.365a1.074,1.074,0,0,1,.019-.25,1.343,1.343,0,0,1-.019.159,1.223,1.223,0,0,1,.03-.159,2.09,2.09,0,0,1,.143-.465c.013,0-.143.286-.024.073.037-.067.073-.143.11-.207l.129-.2c.079-.1.062-.086-.049.054a1.348,1.348,0,0,1,.1-.122c.037-.041.312-.348.342-.323-.043.03-.079.062-.122.092l.129-.092c.067-.043.134-.086.2-.122.019,0,.207-.116.213-.11s-.25.092-.067.03a2.784,2.784,0,0,1,.549-.143l-.159.019a1.484,1.484,0,0,1,.165-.013,1.625,1.625,0,0,1,.172,0H33.019a1.625,1.625,0,0,1,.17,0h.086c.134.013.11.013-.079-.013a2.8,2.8,0,0,1,.476.116,1.377,1.377,0,0,1,.153.054c-.165-.073-.189-.08-.073-.024l.143.073a2.21,2.21,0,0,1,.2.122c.024.013.043.03.067.043.1.08.086.062-.054-.049.03-.019.312.286.342.323a.547.547,0,0,1,.054.062c.086.1.067.08-.043-.062a1.785,1.785,0,0,1,.134.2,2.255,2.255,0,0,1,.116.207l.054.11c.037.086.024.049-.043-.11.043,0,.129.415.143.463a.43.43,0,0,0,.019.08c.024.134.019.11,0-.08a1.072,1.072,0,0,1,.019.25V29.858c-.019.245-.019.476-.019.715a1.221,1.221,0,1,0,2.442,0V16.451a4.327,4.327,0,0,0-2.418-3.862,7.24,7.24,0,0,0-3.242-.439H11.357a4.392,4.392,0,0,0-3.645,2,6.912,6.912,0,0,0-.694,4V28.918a6.912,6.912,0,0,0,.671,3.994,4.377,4.377,0,0,0,3.645,2H31.647a7.338,7.338,0,0,0,3.242-.439,4.35,4.35,0,0,0,2.418-3.862,1.217,1.217,0,1,0-2.432,0Z" transform="translate(3.121 5.218)"/>
      <path id="Vector_4" d="M15.473,12.2a1.586,1.586,0,0,1,.013-.25c0-.275-.049.207,0,.037.03-.134.054-.263.1-.4a.958.958,0,0,1,.067-.189c-.019.049-.043.1-.062.143.024-.049.043-.1.067-.143.067-.129.165-.245.226-.372s-.2.213-.019.03c.054-.056.1-.116.159-.172a1.509,1.509,0,0,1,.116-.11.548.548,0,0,1,.062-.054c.1-.086.079-.067-.062.043a1.843,1.843,0,0,1,.336-.213l.143-.073c.122-.054.1-.049-.073.024.049-.019.1-.037.153-.054.129-.043.263-.073.391-.1.237-.054-.086.019-.079,0a1.1,1.1,0,0,1,.25-.019h4.53a1.6,1.6,0,0,1,.25.013c.245,0-.25-.062,0,0,.159.037.312.08.471.129.25.08-.17-.11-.03-.019.073.049.17.086.245.129a1.408,1.408,0,0,1,.134.086l.129.092c-.143-.11-.165-.129-.062-.043.116.11.226.22.336.336.159.172-.054-.062-.043-.062a1.5,1.5,0,0,1,.17.263c.024.043.054.092.08.143a1.573,1.573,0,0,1,.067.143c-.067-.172-.08-.2-.03-.067a2.866,2.866,0,0,1,.122.429c.049.245.024-.03,0-.037.03.013.019.3.019.336a1.221,1.221,0,1,0,2.442,0,4.35,4.35,0,0,0-2.38-3.848,5.907,5.907,0,0,0-2.692-.458H18.343a7.141,7.141,0,0,0-2.307.2,4.379,4.379,0,0,0-3,4.1,1.222,1.222,0,1,0,2.442,0Z" transform="translate(5.735 3.391)"/>
      <path id="Vector_5" d="M19.862,21c0,.22.013-.049.019-.08-.037.189,0-.086.049-.067-.013,0-.054.153-.073.134s.153-.2.073-.1c0,.013-.019.019-.024.03-.08.067-.073.073,0,0,.019-.019.043-.03.062-.049a.336.336,0,0,1-.1.054c-.116.067.11-.049.11-.049-.22.086.25.011,0,0H17.424c-.226,0,.207.08,0,0a.383.383,0,0,0,.073.03h0a.135.135,0,0,1-.03-.019c-.054-.037-.043-.024.03.03.019.019.043.03.062.049-.03-.024-.054-.054-.086-.08-.1-.129.153.189.049.062l-.054-.1c.062.159.086.2.054.1s-.019-.049.011.129a1.237,1.237,0,0,0,0-.4V18.383h0a.178.178,0,0,1-.013.08c.03-.1.024-.1-.011,0a.366.366,0,0,0-.03.073c.019-.037.037-.067.054-.1.092-.1-.092.08-.08.092-.019-.013.116-.1.11-.11.013.013-.22.153-.024.037.143-.08-.226.086-.073.037s-.25,0-.086,0h2.606c.226-.011-.177-.049-.043,0,.159.049-.207-.122-.073-.037l.1.054c-.024.037-.2-.183-.067-.043.177.2-.129-.143-.024-.03a.132.132,0,0,0,.019.03h0c-.043-.1-.043-.1-.013,0L19.87,18.3c-.011.019,0,.073,0,.1V21a1.222,1.222,0,1,0,2.442,0V19.478a4.949,4.949,0,0,0-.237-2.113A2.272,2.272,0,0,0,20.47,16.1a4.457,4.457,0,0,0-.858-.054h-1.96a3.187,3.187,0,0,0-.928.1,2.38,2.38,0,0,0-1.574,1.625,7,7,0,0,0-.08,1.86c0,.506-.037,1.026.013,1.534a2.382,2.382,0,0,0,2.49,2.169h2.106a2.943,2.943,0,0,0,1.33-.256A2.356,2.356,0,0,0,22.3,21a1.229,1.229,0,0,0-1.222-1.222A1.249,1.249,0,0,0,19.862,21Z" transform="translate(6.6 6.908)"/>
      <path id="Vector_6" d="M20.358,20.877c1.227-.275,2.46-.544,3.686-.818l5.885-1.3c.458-.1.91-.2,1.368-.3a1.236,1.236,0,0,0,.858-1.5,1.253,1.253,0,0,0-1.5-.858c-1.227.275-2.46.544-3.688.818l-5.885,1.3c-.458.1-.91.2-1.368.3a1.223,1.223,0,0,0,.647,2.357Z" transform="translate(8.243 6.913)"/>
      <path id="Vector_7" d="M19.492,18.543c-1.227-.275-2.46-.544-3.688-.818l-5.885-1.3c-.458-.1-.91-.2-1.368-.3A1.222,1.222,0,0,0,7.9,18.476c1.227.275,2.46.544,3.688.818l5.885,1.3c.458.1.91.2,1.368.306a1.223,1.223,0,0,0,.647-2.357Z" transform="translate(3.141 6.921)"/>
    </g>
  </g>
</svg>
