<svg xmlns="http://www.w3.org/2000/svg" xmlns:xlink="http://www.w3.org/1999/xlink" width="82" height="64" viewBox="0 0 82 64">
  <defs>
    <clipPath id="clip-Learning_Resources">
      <rect width="82" height="64"/>
    </clipPath>
  </defs>
  <g id="Learning_Resources" data-name="Learning Resources" clip-path="url(#clip-Learning_Resources)">
    <g id="Learning_Resources-2" data-name="Learning Resources" transform="translate(12 6.251)">
      <path id="Vector" d="M52.288,0H32.557A4.927,4.927,0,0,0,28.61,1.981,4.927,4.927,0,0,0,24.663,0H4.932A4.942,4.942,0,0,0,0,4.952V47.537A3.954,3.954,0,0,0,3.947,51.5H53.273a3.954,3.954,0,0,0,3.947-3.961V4.952A4.942,4.942,0,0,0,52.288,0ZM3.947,49.517a1.981,1.981,0,0,1,0-3.961h18.74a4.938,4.938,0,0,1,4.834,3.961Zm23.676-3.852a6.892,6.892,0,0,0-4.932-2.09H3.947a3.847,3.847,0,0,0-1.973.555V4.952A2.965,2.965,0,0,1,4.932,1.981H24.663a2.965,2.965,0,0,1,2.96,2.971Zm25.65,3.852H29.7a4.938,4.938,0,0,1,4.834-3.961h18.74a1.981,1.981,0,0,1,0,3.961Zm1.973-5.387a3.847,3.847,0,0,0-1.973-.555H34.534a6.892,6.892,0,0,0-4.932,2.09V4.952a2.965,2.965,0,0,1,2.96-2.971H52.288a2.965,2.965,0,0,1,2.96,2.971Z" transform="translate(0)"/>
      <path id="Vector_2" d="M27.2,6.827H40.024a.991.991,0,1,0,0-1.981H27.2a.991.991,0,0,0,0,1.981Z" transform="translate(11.282 2.086)"/>
      <path id="Vector_3" d="M23.746,10.981H41.5A.991.991,0,1,0,41.5,9H23.746a.991.991,0,0,0,0,1.981Z" transform="translate(9.796 3.875)"/>
      <path id="Vector_4" d="M23.746,15.134H41.5a.991.991,0,1,0,0-1.981H23.746a.991.991,0,0,0,0,1.981Z" transform="translate(9.796 5.662)"/>
      <path id="Vector_5" d="M23.746,19.288H41.5a.991.991,0,1,0,0-1.981H23.746a.991.991,0,1,0,0,1.981Z" transform="translate(9.796 7.451)"/>
      <path id="Vector_6" d="M23.746,23.442H41.5a.991.991,0,0,0,0-1.981H23.746a.991.991,0,0,0,0,1.981Z" transform="translate(9.796 9.239)"/>
      <path id="Vector_7" d="M42.491,26.606a.988.988,0,0,0-.987-.99H23.746a.991.991,0,1,0,0,1.981H41.5a.988.988,0,0,0,.987-.99Z" transform="translate(9.796 11.028)"/>
      <path id="Vector_8" d="M20.71,4.846H7.884a.991.991,0,1,0,0,1.981H20.71a.991.991,0,0,0,0-1.981Z" transform="translate(2.968 2.086)"/>
      <path id="Vector_9" d="M22.2,9H4.437a.991.991,0,1,0,0,1.981H22.2A.991.991,0,0,0,22.2,9Z" transform="translate(1.484 3.875)"/>
      <path id="Vector_10" d="M22.2,13.154H4.437a.991.991,0,1,0,0,1.981H22.2a.991.991,0,0,0,0-1.981Z" transform="translate(1.484 5.663)"/>
      <path id="Vector_11" d="M22.2,17.308H4.437a.991.991,0,1,0,0,1.981H22.2a.991.991,0,0,0,0-1.981Z" transform="translate(1.484 7.451)"/>
      <path id="Vector_12" d="M22.2,21.461H4.437a.991.991,0,1,0,0,1.981H22.2a.991.991,0,0,0,0-1.981Z" transform="translate(1.484 9.239)"/>
      <path id="Vector_13" d="M22.2,25.615H4.437a.991.991,0,1,0,0,1.981H22.2a.991.991,0,0,0,0-1.981Z" transform="translate(1.484 11.027)"/>
    </g>
  </g>
</svg>
