<svg xmlns="http://www.w3.org/2000/svg" xmlns:xlink="http://www.w3.org/1999/xlink" width="82" height="64" viewBox="0 0 82 64">
  <defs>
    <clipPath id="clip-Networking">
      <rect width="82" height="64"/>
    </clipPath>
  </defs>
  <g id="Networking" clip-path="url(#clip-Networking)">
    <g id="Networking-2" data-name="Networking" transform="translate(10.743 5.9)">
      <path id="Vector" d="M33.829,31.994a6.917,6.917,0,0,0,2.9-5.6,7.14,7.14,0,0,0-14.275,0A6.916,6.916,0,0,0,25.344,32a11.415,11.415,0,0,0-5.106,3.841,20.344,20.344,0,0,1-9.524-9.952,19.594,19.594,0,0,1-1.195-3.7l3.5,2.724a1.124,1.124,0,0,0,1.556-.173,1.066,1.066,0,0,0-.178-1.522L8.571,18.678a1.123,1.123,0,0,0-1.556.173L2.38,24.55a1.066,1.066,0,0,0,.178,1.522A1.126,1.126,0,0,0,4.113,25.9L7.1,22.223a21.834,21.834,0,0,0,.687,2.634A22.615,22.615,0,0,0,19.035,37.849a10.358,10.358,0,0,0-.9,4.229,1.095,1.095,0,0,0,1.116,1.09H39.935a1.095,1.095,0,0,0,1.108-1.083,1.118,1.118,0,0,0-.016-.187A10.925,10.925,0,0,0,33.829,31.994Zm-9.168-5.6a4.928,4.928,0,1,1,4.928,4.813A4.874,4.874,0,0,1,24.661,26.4ZM20.425,41a9.075,9.075,0,0,1,9.157-7.626A9.075,9.075,0,0,1,38.739,41Z" transform="translate(1.055 9.099)"/>
      <path id="Vector_2" d="M47.55,24.22a10.922,10.922,0,0,0-7.2-9.9,6.917,6.917,0,0,0,2.891-5.6,7.14,7.14,0,0,0-14.275,0,6.916,6.916,0,0,0,2.893,5.6,10.9,10.9,0,0,0-7.2,10.09,1.095,1.095,0,0,0,1.108,1.083h13.2c.012.254.022.508.022.765A19.639,19.639,0,0,1,35.479,37.47,20.38,20.38,0,0,1,32.6,40.785l.733-3.883a1.086,1.086,0,0,0-.887-1.262,1.107,1.107,0,0,0-1.29.868L29.8,43.661a1.084,1.084,0,0,0,.887,1.262l7.317,1.322a1.107,1.107,0,0,0,1.29-.868,1.057,1.057,0,0,0-.149-.769,1.1,1.1,0,0,0-.739-.493l-5.031-.909a22.84,22.84,0,0,0,1.958-1.849,22.021,22.021,0,0,0,6.021-15.108c0-.257-.009-.509-.019-.765h5.119A1.095,1.095,0,0,0,47.566,24.4.984.984,0,0,0,47.55,24.22ZM31.186,8.715a4.928,4.928,0,0,1,9.844,0,4.928,4.928,0,0,1-9.844,0ZM26.951,23.324a9.311,9.311,0,0,1,18.316,0Z" transform="translate(12.167 0.87)"/>
      <path id="Vector_3" d="M21.794,26.352A1.095,1.095,0,0,0,22.9,25.269a1.117,1.117,0,0,0-.016-.187,10.922,10.922,0,0,0-7.2-9.9,6.974,6.974,0,0,0,2.739-4.165,20.693,20.693,0,0,1,12.211-3.96c.215,0,.429.009.642.016a20.835,20.835,0,0,1,4.589.648l-4.689,1.69a1.077,1.077,0,0,0-.654,1.392,1.116,1.116,0,0,0,1.423.639l6.977-2.527a1.077,1.077,0,0,0,.654-1.392L37,.707A1.116,1.116,0,0,0,35.573.068a1.1,1.1,0,0,0-.6.52,1.062,1.062,0,0,0-.055.872l1.517,4.008a23.2,23.2,0,0,0-2.552-.5,23.47,23.47,0,0,0-3.245-.228,23.1,23.1,0,0,0-12.2,3.475,7.11,7.11,0,0,0-7-5.609A7.066,7.066,0,0,0,4.307,9.583,6.916,6.916,0,0,0,7.2,15.18,10.9,10.9,0,0,0,0,25.271a1.095,1.095,0,0,0,1.108,1.083H21.794ZM6.521,9.583a4.928,4.928,0,0,1,9.844,0,4.928,4.928,0,0,1-9.844,0ZM2.286,24.192a9.075,9.075,0,0,1,9.157-7.626,9.075,9.075,0,0,1,9.165,7.626Z" transform="translate(0 0.001)"/>
    </g>
  </g>
</svg>
