<svg xmlns="http://www.w3.org/2000/svg" xmlns:xlink="http://www.w3.org/1999/xlink" width="82" height="64" viewBox="0 0 82 64">
  <defs>
    <clipPath id="clip-News_Headlines">
      <rect width="82" height="64"/>
    </clipPath>
  </defs>
  <g id="News_Headlines" data-name="News &amp; Headlines" clip-path="url(#clip-News_Headlines)">
    <path id="News_Headlines-2" data-name="News &amp; Headlines" d="M4.271,1A3.389,3.389,0,0,0,1,4.482V47.59a3.372,3.372,0,0,0,3.27,3.462H54.584a3.29,3.29,0,0,0,.678,0h.04a1.042,1.042,0,0,1,.143,0,.723.723,0,0,0,.267-.083s.013-.019.02-.02A3.455,3.455,0,0,0,58.22,47.59V16.62a3.386,3.386,0,0,0-3.29-3.46H52.355V4.482A3.406,3.406,0,0,0,49.065,1Zm0,1.463h44.8a1.928,1.928,0,0,1,1.851,2.018v9.3a.729.729,0,0,0,0,.1V47.59a1.911,1.911,0,0,1-1.831,2.018H4.271a1.913,1.913,0,0,1-1.83-2.02V4.482a1.913,1.913,0,0,1,1.83-2.018ZM17.348,6.9a.725.725,0,0,0-.572.715V19.024a.725.725,0,0,0,.715.715H35.873a.725.725,0,0,0,.715-.715V7.615a.724.724,0,0,0-.715-.715H17.49a.715.715,0,0,0-.143-.006Zm.858,1.442H35.152v9.969H18.211Zm34.149,6.28H54.93a1.913,1.913,0,0,1,1.86,2V47.59a1.931,1.931,0,0,1-1.86,2.018h-.268a2.1,2.1,0,0,1-.843-.227c-.677-.36-1.465-1.174-1.465-3.666ZM7.456,31.455a.732.732,0,1,0,.059,1.464H23.06a.732.732,0,0,0,0-1.463Zm22.782,0a.732.732,0,1,0,.059,1.464H45.842a.732.732,0,1,0,0-1.463H30.24ZM7.456,37.369a.732.732,0,1,0,.059,1.464H23.06a.732.732,0,0,0,0-1.463Zm22.782,0a.732.732,0,1,0,.059,1.464H45.842a.732.732,0,1,0,0-1.463H30.24ZM7.456,43.283a.725.725,0,0,0,.059,1.442H23.06a.725.725,0,1,0,0-1.442Zm22.782,0a.725.725,0,0,0,.059,1.442H45.842a.725.725,0,1,0,0-1.442H30.24Zm21.589,6.058c.059.093.122.183.185.268h-.329c.06-.083.093-.18.146-.268Z" transform="translate(11.501 5.5)" stroke="#000" stroke-width="0.4"/>
  </g>
</svg>
