<svg xmlns="http://www.w3.org/2000/svg" xmlns:xlink="http://www.w3.org/1999/xlink" width="82" height="64" viewBox="0 0 82 64">
  <defs>
    <clipPath id="clip-Resume_Builder">
      <rect width="82" height="64"/>
    </clipPath>
  </defs>
  <g id="Resume_Builder" data-name="Resume Builder" clip-path="url(#clip-Resume_Builder)">
    <g id="Resume_Builder-2" data-name="Resume Builder" transform="translate(14 5)">
      <path id="Vector" d="M51.989,47.933H50.282a2.464,2.464,0,0,0,.213-1V17.659a2.4,2.4,0,0,0-2.37-2.427h-6.1V6.659h5.111V5.95A5.887,5.887,0,0,0,41.329,0h-23.6A5.887,5.887,0,0,0,11.92,5.95v9.282H6.17a2.4,2.4,0,0,0-2.365,2.427V46.932a2.446,2.446,0,0,0,.213,1H2.37A2.4,2.4,0,0,0,0,50.361v1.571a2.4,2.4,0,0,0,2.37,2.427H51.989a2.4,2.4,0,0,0,2.37-2.428v-1.57A2.4,2.4,0,0,0,51.989,47.933ZM42.027,20.158h3.658V44.439H42.027Zm-.7-18.729a4.456,4.456,0,0,1,4.36,3.805h-22.2a5.992,5.992,0,0,0-2-3.805Zm-23.6,0A4.474,4.474,0,0,1,22.141,5.95v.709H40.634v37.78H13.318V5.95a4.472,4.472,0,0,1,4.41-4.521ZM11.92,44.439H8.609V20.158h3.31ZM5.194,46.932V17.659a.989.989,0,0,1,.976-1h5.75v2.071h-4.7V45.862H47.078V18.729H42.025V16.66h6.1a.989.989,0,0,1,.976,1V46.932a.989.989,0,0,1-.976,1H33.065a.542.542,0,0,0-.075.008.488.488,0,0,0-.064.015.2.2,0,0,0-.067.02L32.8,48c-.02.011-.042.022-.061.034l-.054.039-.053.043a.486.486,0,0,0-.05.054c-.016.019-.019.019-.029.031l-1.468,1.941H22.861l-1.47-1.938a.368.368,0,0,0-.029-.03.752.752,0,0,0-.052-.056c-.016-.015-.034-.03-.052-.043a.519.519,0,0,0-.056-.039.559.559,0,0,0-.06-.034.515.515,0,0,0-.061-.027.565.565,0,0,0-.065-.02.514.514,0,0,0-.064-.015.678.678,0,0,0-.075-.008H6.17a.989.989,0,0,1-.976-1Zm47.771,5a.989.989,0,0,1-.976,1H48.961v-.787h-1.4v.785H46.449v-.785h-1.39v.785H43.944v-.785h-1.4v.785H7.076v-.785H5.683v.785H2.37a.989.989,0,0,1-.976-1V50.36a.989.989,0,0,1,.976-1H20.5l1.678,2.214h9.589l1.68-2.214H51.989a.991.991,0,0,1,.976,1Z" transform="translate(0)" stroke="#000" stroke-miterlimit="10" stroke-width="0.3"/>
      <path id="Vector_2" d="M14.02,12.435a2.905,2.905,0,1,0-2.833-2.9A2.873,2.873,0,0,0,14.02,12.435Zm0-4.38A1.476,1.476,0,1,1,12.58,9.532,1.461,1.461,0,0,1,14.02,8.049Z" transform="translate(4.016 2.378)" stroke="#000" stroke-miterlimit="10" stroke-width="0.3"/>
      <path id="Vector_3" d="M16.554,9.662h15.8a.715.715,0,0,0,0-1.428h-15.8a.715.715,0,0,0,0,1.428Z" transform="translate(5.697 2.956)" stroke="#000" stroke-miterlimit="10" stroke-width="0.3"/>
      <path id="Vector_4" d="M14.02,18.626a2.9,2.9,0,1,0-2.833-2.9,2.873,2.873,0,0,0,2.833,2.9Zm0-4.379a1.476,1.476,0,1,1-1.439,1.476,1.46,1.46,0,0,1,1.439-1.476Z" transform="translate(4.016 4.602)" stroke="#000" stroke-miterlimit="10" stroke-width="0.3"/>
      <path id="Vector_5" d="M16.554,15.858h15.8a.715.715,0,0,0,0-1.428h-15.8a.715.715,0,0,0,0,1.428Z" transform="translate(5.697 5.18)" stroke="#000" stroke-miterlimit="10" stroke-width="0.3"/>
      <path id="Vector_6" d="M14.02,24.823a2.9,2.9,0,1,0-2.833-2.9A2.873,2.873,0,0,0,14.02,24.823Zm0-4.38A1.476,1.476,0,1,1,12.58,21.92a1.461,1.461,0,0,1,1.439-1.476Z" transform="translate(4.016 6.826)" stroke="#000" stroke-miterlimit="10" stroke-width="0.3"/>
      <path id="Vector_7" d="M16.561,22.056h15.8a.713.713,0,1,0,0-1.427h-15.8a.713.713,0,1,0,0,1.427Z" transform="translate(5.689 7.405)" stroke="#000" stroke-miterlimit="10" stroke-width="0.3"/>
      <path id="Vector_8" d="M14.02,31.02a2.9,2.9,0,1,0-2.833-2.9A2.873,2.873,0,0,0,14.02,31.02Zm0-4.379a1.474,1.474,0,1,1-1.439,1.474,1.46,1.46,0,0,1,1.439-1.473Z" transform="translate(4.016 9.051)" stroke="#000" stroke-miterlimit="10" stroke-width="0.3"/>
      <path id="Vector_9" d="M28.229,25.931l-8.981-2.467a.679.679,0,0,0-.679.185.726.726,0,0,0-.179.689l2.407,9.2a.7.7,0,0,0,.656.529h.016a.7.7,0,0,0,.665-.5l1.243-3.99,3.3,3.377a.679.679,0,0,0,.987,0,.726.726,0,0,0,0-1.01l-3.3-3.376L28.255,27.3a.72.72,0,0,0-.031-1.371Zm-5.376,1.639-.034.014-.027.012a.643.643,0,0,0-.1.054l-.022.015a.723.723,0,0,0-.1.08h0a.736.736,0,0,0-.079.1l-.014.022a.709.709,0,0,0-.054.1L22.415,28c0,.012-.01.022-.014.035l-.87,2.787-1.48-5.657,5.523,1.517Z" transform="translate(6.593 8.414)" stroke="#000" stroke-miterlimit="10" stroke-width="0.3"/>
    </g>
  </g>
</svg>
