<svg width="48" height="48" viewBox="0 0 48 48" fill="none" xmlns="http://www.w3.org/2000/svg">
<path id="play" fill-rule="evenodd" clip-rule="evenodd" d="M23.9998 0C30.6267 0 36.6273 2.68638 40.9704 7.02964C45.3129 11.3726 47.9996 17.3727 47.9996 24.0002C47.9996 30.6277 45.3132 36.6277 40.9704 40.9708C36.627 45.3133 30.6264 48 23.9998 48C17.3732 48 11.3723 45.3136 7.02924 40.9708C2.68667 36.6274 0 30.6268 0 24.0002C0 17.3736 2.68638 11.3727 7.02964 7.02964C11.3726 2.68706 17.3723 0 23.9998 0ZM35.0883 24.9928C35.2624 24.8961 35.4132 24.7514 35.5195 24.5665C35.8329 24.0217 35.6449 23.3262 35.1002 23.0128L18.7002 13.5435C18.5134 13.4107 18.2847 13.3325 18.0384 13.3325C17.4069 13.3325 16.8955 13.8443 16.8955 14.4754V33.5232H16.9001C16.9001 33.7158 16.9488 33.9111 17.0513 34.0902C17.3647 34.635 18.0602 34.823 18.605 34.5096L26.8528 29.7473L35.0883 24.9928Z" fill="#964B00"/>
</svg>
