<svg xmlns="http://www.w3.org/2000/svg" xmlns:xlink="http://www.w3.org/1999/xlink" width="44" height="44" viewBox="0 0 44 44">
  <defs>
    <clipPath id="clip-Star">
      <rect width="44" height="44"/>
    </clipPath>
  </defs>
  <g id="Star" clip-path="url(#clip-Star)">
    <g id="Group_12413" data-name="Group 12413" transform="translate(2592 -8878)">
      <rect id="Rectangle_11858" data-name="Rectangle 11858" width="44" height="44" transform="translate(-2592 8878)" fill="none"/>
      <path id="Path_11542" data-name="Path 11542" d="M113.934,455.169l-4.824-2.689a.043.043,0,0,0-.044,0l-4.823,2.694a1.3,1.3,0,0,1-1.86-1.432l.919-5.7a.053.053,0,0,0-.015-.044l-4.11-4.249a1.23,1.23,0,0,1,.631-2.062l5.677-.879a.047.047,0,0,0,.036-.027l2.409-5.187a1.25,1.25,0,0,1,2.3,0l2.414,5.185a.047.047,0,0,0,.036.027l5.678.873a1.23,1.23,0,0,1,.632,2.062l-4.106,4.252a.052.052,0,0,0-.013.044l.924,5.7A1.3,1.3,0,0,1,113.934,455.169Z" transform="translate(-2679.334 8454.666)" fill="none" stroke="#333" stroke-linecap="round" stroke-linejoin="round" stroke-width="1"/>
    </g>
  </g>
</svg>
