<svg xmlns="http://www.w3.org/2000/svg" xmlns:xlink="http://www.w3.org/1999/xlink" width="48" height="41" viewBox="0 0 48 41">
  <defs>
    <clipPath id="clip-Upload_icon">
      <rect width="48" height="41"/>
    </clipPath>
  </defs>
  <g id="Upload_icon" data-name="Upload icon" clip-path="url(#clip-Upload_icon)">
    <g id="Group_4967" data-name="Group 4967" transform="translate(4 3)" opacity="0.204">
      <path id="Path_2395" data-name="Path 2395" d="M44.614,46.446a1.867,1.867,0,0,0-1.888,1.888V61.317H10.175V48.288a1.888,1.888,0,1,0-3.775,0V63.2a1.867,1.867,0,0,0,1.888,1.888H44.614A1.867,1.867,0,0,0,46.5,63.2V48.288A1.857,1.857,0,0,0,44.614,46.446Z" transform="translate(-6.4 -31.023)"/>
      <path id="Path_2396" data-name="Path 2396" d="M38.077,13.552a.636.636,0,0,0-.184-.138c-.046,0-.046-.046-.138-.092A1.569,1.569,0,0,0,36.742,13a2.085,2.085,0,0,0-.737.138,2.935,2.935,0,0,0-.645.368l-9.208,9.3a1.949,1.949,0,0,0-.552,1.381,1.739,1.739,0,0,0,.552,1.243,1.771,1.771,0,0,0,1.335.552,1.7,1.7,0,0,0,1.335-.552L34.808,19.4V38.552a1.888,1.888,0,1,0,3.775,0V19.4l6.123,6.031a1.771,1.771,0,0,0,1.335.552,1.7,1.7,0,0,0,1.335-.552,1.949,1.949,0,0,0,.552-1.381,1.739,1.739,0,0,0-.552-1.243Z" transform="translate(-16.76 -13)"/>
    </g>
  </g>
</svg>
