<svg xmlns="http://www.w3.org/2000/svg" xmlns:xlink="http://www.w3.org/1999/xlink" width="38" height="38" viewBox="0 0 38 38">
  <defs>
    <clipPath id="clip-Achievment">
      <rect width="38" height="38"/>
    </clipPath>
  </defs>
  <g id="Achievment" clip-path="url(#clip-Achievment)">
    <g id="Group_9978" data-name="Group 9978" transform="translate(-12561 4535)">
      <rect id="Rectangle_10559" data-name="Rectangle 10559" width="36" height="36" rx="18" transform="translate(12562 -4534)" fill="#fff"/>
      <g id="Group_8411" data-name="Group 8411" transform="translate(9555 -5969)">
        <g id="trophy" transform="translate(2725 1009)">
          <path id="Path_10609" data-name="Path 10609" d="M294.273,435h-1.637A1.637,1.637,0,0,0,291,436.636v4.909a3.273,3.273,0,0,0,3.273,3.273h0" fill="none" stroke="#000" stroke-linecap="round" stroke-linejoin="round" stroke-width="1"/>
          <path id="Path_10610" data-name="Path 10610" d="M305.727,435h1.637A1.637,1.637,0,0,1,309,436.636v4.909a3.273,3.273,0,0,1-3.273,3.273h0" fill="none" stroke="#000" stroke-linecap="round" stroke-linejoin="round" stroke-width="1"/>
          <path id="Path_10611" data-name="Path 10611" d="M301.636,453v-4.331a5.728,5.728,0,0,0,4.091-5.487V435H294.273v8.182a5.727,5.727,0,0,0,4.091,5.487V453" fill="none" stroke="#000" stroke-linecap="round" stroke-linejoin="round" stroke-width="1"/>
          <line id="Line_4040" data-name="Line 4040" y2="2.455" transform="translate(300 438.273)" fill="none" stroke="#000" stroke-linecap="round" stroke-linejoin="round" stroke-width="1"/>
          <line id="Line_4041" data-name="Line 4041" x2="2.334" y2="0.758" transform="translate(297.666 439.969)" fill="none" stroke="#000" stroke-linecap="round" stroke-linejoin="round" stroke-width="1"/>
          <line id="Line_4042" data-name="Line 4042" y1="1.986" x2="1.443" transform="translate(298.557 440.727)" fill="none" stroke="#000" stroke-linecap="round" stroke-linejoin="round" stroke-width="1"/>
          <line id="Line_4043" data-name="Line 4043" x1="1.443" y1="1.986" transform="translate(300 440.727)" fill="none" stroke="#000" stroke-linecap="round" stroke-linejoin="round" stroke-width="1"/>
          <line id="Line_4044" data-name="Line 4044" x1="2.334" y2="0.758" transform="translate(300 439.969)" fill="none" stroke="#000" stroke-linecap="round" stroke-linejoin="round" stroke-width="1"/>
          <line id="Line_4045" data-name="Line 4045" x2="6.545" transform="translate(296.727 453)" fill="none" stroke="#000" stroke-linecap="round" stroke-linejoin="round" stroke-width="1"/>
        </g>
      </g>
    </g>
  </g>
</svg>
