<svg xmlns="http://www.w3.org/2000/svg" xmlns:xlink="http://www.w3.org/1999/xlink" width="18" height="19" viewBox="0 0 18 19">
  <defs>
    <clipPath id="clip-Addrees">
      <rect width="18" height="19"/>
    </clipPath>
  </defs>
  <g id="Addrees" clip-path="url(#clip-Addrees)">
    <g id="Group_10673" data-name="Group 10673" transform="translate(4.2 2.2)">
      <path id="Path_11614" data-name="Path 11614" d="M186.246,28.19a.2.2,0,0,1-.164-.084c-.18-.243-4.387-5.979-4.387-8.42h0a4.551,4.551,0,1,1,9.1,0c0,2.441-4.207,8.184-4.387,8.42h0a.2.2,0,0,1-.164.084Zm0-12.645a4.145,4.145,0,0,0-4.141,4.141c0,2.046,3.352,6.846,4.141,7.949.79-1.1,4.141-5.9,4.141-7.949a4.145,4.145,0,0,0-4.141-4.141Z" transform="translate(-181.578 -15.135)" fill="#888"/>
      <path id="Path_11614_-_Outline" data-name="Path 11614 - Outline" d="M186.247,28.39h0a.406.406,0,0,1-.324-.166c-.18-.243-4.425-6.012-4.425-8.538a4.751,4.751,0,1,1,9.5,0c0,2.589-4.384,8.483-4.428,8.541A.4.4,0,0,1,186.247,28.39Zm0-13.054a4.35,4.35,0,0,0-4.351,4.351c0,2.4,4.3,8.242,4.348,8.3l0,.2v-.2l0,0c.046-.06,4.348-5.884,4.348-8.3a4.35,4.35,0,0,0-4.351-4.351Zm0,12.643-.163-.227c-.98-1.369-4.179-6-4.179-8.066a4.345,4.345,0,0,1,4.341-4.341h0a4.345,4.345,0,0,1,4.341,4.341c0,2.07-3.2,6.7-4.179,8.066Zm0-12.234a3.945,3.945,0,0,0-3.941,3.941c0,1.873,3,6.266,3.941,7.6.944-1.337,3.941-5.731,3.941-7.6a3.945,3.945,0,0,0-3.941-3.941Z" transform="translate(-181.578 -15.135)" fill="#888"/>
      <path id="Path_11615" data-name="Path 11615" d="M186.5,385.229h-8.925a.206.206,0,0,1-.2-.258l1.084-4.027a.2.2,0,0,1,.2-.151h1.514a.2.2,0,1,1,0,.409h-1.365l-.974,3.618h8.389l-.972-3.618H183.9a.2.2,0,1,1,0-.409h1.51a.2.2,0,0,1,.2.151l1.086,4.027a.206.206,0,0,1-.2.258Z" transform="translate(-177.37 -370.906)" fill="#888"/>
      <path id="Path_11615_-_Outline" data-name="Path 11615 - Outline" d="M186.506,385.429h-8.931a.406.406,0,0,1-.392-.508l1.085-4.028a.405.405,0,0,1,.391-.3h1.521a.4.4,0,1,1,0,.809h-1.211l-.866,3.218h7.867L185.1,381.4h-1.2a.4.4,0,0,1,0-.809h1.517a.405.405,0,0,1,.391.3l1.086,4.027a.406.406,0,0,1-.392.51Zm-7.847-4.436a0,0,0,0,0,0,0l-1.084,4.027.005.206v-.2h8.931l0,0L185.425,381a0,0,0,0,0,0,0H183.9a0,0,0,1,0,0,.009h1.508l1.079,4.018H177.58L178.662,381h1.518a0,0,0,1,0,0-.009Z" transform="translate(-177.37 -370.906)" fill="#888"/>
      <path id="Path_11616" data-name="Path 11616" d="M239.922,76.192a3.059,3.059,0,1,1,2.16-.9,3.057,3.057,0,0,1-2.16.9Zm0-5.7h0a2.648,2.648,0,1,0,1.87.776,2.647,2.647,0,0,0-1.87-.776Z" transform="translate(-235.254 -68.592)" fill="#888"/>
      <path id="Path_11616_-_Outline" data-name="Path 11616 - Outline" d="M239.92,76.392a3.289,3.289,0,1,1,.007,0Zm0-6.114a2.857,2.857,0,0,0,0,5.714v.2l0-.2a2.857,2.857,0,0,0,0-5.714Zm0,5.707a2.848,2.848,0,1,1,0-5.7h0a2.848,2.848,0,0,1,0,5.7Zm-.015-5.3a2.443,2.443,0,1,0,.163,0l-.006.02Z" transform="translate(-235.254 -68.592)" fill="#888"/>
    </g>
  </g>
</svg>
