<svg id="Group_4339" data-name="Group 4339" xmlns="http://www.w3.org/2000/svg" xmlns:xlink="http://www.w3.org/1999/xlink" width="123.916" height="36.474" viewBox="0 0 123.916 36.474">
  <defs>
    <linearGradient id="linear-gradient" x1="0.808" y1="0.5" x2="-1.573" y2="0.5" gradientUnits="objectBoundingBox">
      <stop offset="0" stop-color="#ffdf00"/>
      <stop offset="0.409" stop-color="#fbbc0e"/>
      <stop offset="0.775" stop-color="#f8a318"/>
      <stop offset="1" stop-color="#f89b1c"/>
    </linearGradient>
    <linearGradient id="linear-gradient-2" x1="0.862" y1="0.178" x2="-0.501" y2="1.948" gradientUnits="objectBoundingBox">
      <stop offset="0" stop-color="#ee4447"/>
      <stop offset="1" stop-color="#c5166c"/>
    </linearGradient>
    <linearGradient id="linear-gradient-3" x1="-0.507" y1="-0.956" x2="0.606" y2="0.489" gradientUnits="objectBoundingBox">
      <stop offset="0" stop-color="#269e6f"/>
      <stop offset="0.051" stop-color="#2ba06e"/>
      <stop offset="0.466" stop-color="#52b26a"/>
      <stop offset="0.797" stop-color="#6bbc68"/>
      <stop offset="1" stop-color="#74c168"/>
    </linearGradient>
  </defs>
  <g id="Group_4335" data-name="Group 4335" transform="translate(0)">
    <rect id="Rectangle_3382" data-name="Rectangle 3382" width="122.997" height="35.554" rx="7.382" transform="translate(0.46 0.46)"/>
    <path id="Path_2392" data-name="Path 2392" d="M669.31,896.915H554.72a4.669,4.669,0,0,1-4.663-4.663V865.1a4.669,4.669,0,0,1,4.663-4.664H669.31a4.669,4.669,0,0,1,4.663,4.664v27.146A4.669,4.669,0,0,1,669.31,896.915ZM554.72,861.361a3.748,3.748,0,0,0-3.744,3.744v27.146a3.748,3.748,0,0,0,3.744,3.743H669.31a3.748,3.748,0,0,0,3.743-3.743V865.1a3.748,3.748,0,0,0-3.743-3.744Z" transform="translate(-550.057 -860.441)" fill="#a6a8ab"/>
  </g>
  <g id="Group_4337" data-name="Group 4337" transform="translate(9.24 6.574)">
    <path id="Path_2393" data-name="Path 2393" d="M636.91,890.488a3.9,3.9,0,1,0,3.91,3.9A3.839,3.839,0,0,0,636.91,890.488Zm0,6.256a2.367,2.367,0,1,1,2.2-2.36A2.254,2.254,0,0,1,636.91,896.743Zm-8.529-6.256a3.9,3.9,0,1,0,3.91,3.9A3.839,3.839,0,0,0,628.381,890.488Zm0,6.256a2.367,2.367,0,1,1,2.2-2.36A2.253,2.253,0,0,1,628.381,896.743Zm-10.147-5.061v1.653h3.955a3.45,3.45,0,0,1-.9,2.08,4.048,4.048,0,0,1-3.054,1.21,4.4,4.4,0,0,1,0-8.794,4.215,4.215,0,0,1,2.981,1.181l1.165-1.166a5.764,5.764,0,0,0-4.146-1.667,6.05,6.05,0,1,0,0,12.1,5.533,5.533,0,0,0,4.22-1.7,5.459,5.459,0,0,0,1.431-3.865,5.35,5.35,0,0,0-.089-1.033Zm41.5,1.284a3.62,3.62,0,0,0-3.335-2.479,3.7,3.7,0,0,0-3.674,3.9,3.812,3.812,0,0,0,3.866,3.9,3.875,3.875,0,0,0,3.246-1.726l-1.328-.885a2.224,2.224,0,0,1-1.918,1.077,1.982,1.982,0,0,1-1.889-1.18l5.208-2.155Zm-5.312,1.3a2.136,2.136,0,0,1,2.036-2.272,1.508,1.508,0,0,1,1.446.826Zm-4.235,3.777H651.9v-11.45h-1.712Zm-2.8-6.684h-.059a2.7,2.7,0,0,0-2.051-.871,3.9,3.9,0,0,0,0,7.791,2.655,2.655,0,0,0,2.051-.885h.059v.561c0,1.49-.8,2.287-2.08,2.287a2.155,2.155,0,0,1-1.962-1.387l-1.49.62a3.712,3.712,0,0,0,3.452,2.3c2.007,0,3.7-1.181,3.7-4.058v-6.994H647.38Zm-1.962,5.385a2.369,2.369,0,0,1,0-4.722,2.38,2.38,0,0,1,0,4.722Zm22.329-10.151h-4.1v11.45h1.709V893.7h2.386a3.561,3.561,0,1,0,0-7.112Zm.044,5.518h-2.43v-3.925h2.43a1.963,1.963,0,1,1,0,3.925Zm10.561-1.644a3.209,3.209,0,0,0-3.05,1.753l1.517.634a1.62,1.62,0,0,1,1.562-.84,1.645,1.645,0,0,1,1.8,1.473v.118a3.779,3.779,0,0,0-1.783-.442c-1.634,0-3.3.9-3.3,2.578a2.645,2.645,0,0,0,2.843,2.519,2.411,2.411,0,0,0,2.18-1.12h.059v.884h1.65v-4.39C681.829,891.6,680.312,890.466,678.353,890.466Zm-.207,6.275c-.56,0-1.34-.28-1.34-.972,0-.884.972-1.223,1.812-1.223a3.043,3.043,0,0,1,1.562.383A2.072,2.072,0,0,1,678.147,896.742Zm9.693-6.025-1.959,4.964h-.059l-2.033-4.964h-1.841L685,897.655l-1.738,3.859h1.782l4.7-10.8Zm-15.393,7.325h1.708v-11.45h-1.708Z" transform="translate(-583.641 -877.115)" fill="#fff"/>
    <g id="Group_4336" data-name="Group 4336">
      <path id="Path_2394" data-name="Path 2394" d="M565.689,871.816a1.832,1.832,0,0,0-.423,1.286v20.239a1.833,1.833,0,0,0,.423,1.286l.067.066,11.337-11.337v-.267L565.756,871.75Z" transform="translate(-565.265 -871.453)" fill="#5bc8f3"/>
      <path id="Path_2395" data-name="Path 2395" d="M588.511,892.016l-3.779-3.781v-.267l3.78-3.781.085.049,4.477,2.544c1.279.727,1.279,1.916,0,2.642l-4.477,2.544Z" transform="translate(-572.904 -876.333)" fill="url(#linear-gradient)"/>
      <path id="Path_2396" data-name="Path 2396" d="M581.232,894.495l-3.865-3.865-11.4,11.4a1.489,1.489,0,0,0,1.9.056l13.368-7.6" transform="translate(-565.539 -878.861)" fill="url(#linear-gradient-2)"/>
      <path id="Path_2397" data-name="Path 2397" d="M581.232,879.164l-13.368-7.6a1.489,1.489,0,0,0-1.9.056l11.4,11.405Z" transform="translate(-565.539 -871.261)" fill="url(#linear-gradient-3)"/>
    </g>
  </g>
  <g id="Group_4338" data-name="Group 4338" transform="translate(38.076 6.388)">
    <path id="Path_2398" data-name="Path 2398" d="M616.742,872.152a1.956,1.956,0,0,0-1.3-.5,2.07,2.07,0,0,0,0,4.137,1.562,1.562,0,0,0,1.72-1.455h-1.532V873.7h2.361c0,1.893-1.009,2.784-2.549,2.784a2.765,2.765,0,0,1,0-5.529,2.664,2.664,0,0,1,1.822.712Z" transform="translate(-612.723 -870.955)" fill="#fff"/>
    <path id="Path_2399" data-name="Path 2399" d="M626.224,871.059v.68h-2.464v1.721h2.151v.681h-2.151v1.627H626.3v.68h-3.268v-5.388Z" transform="translate(-616.769 -870.996)" fill="#fff"/>
    <path id="Path_2400" data-name="Path 2400" d="M633.46,871.059v.688h-1.634v4.7h-.735v-4.7h-1.635v-.688Z" transform="translate(-619.289 -870.996)" fill="#fff"/>
    <path id="Path_2401" data-name="Path 2401" d="M641.318,871.059v5.388h-.727v-5.388Z" transform="translate(-623.658 -870.996)" fill="#fff"/>
    <path id="Path_2402" data-name="Path 2402" d="M647.362,871.059v.688h-1.634v4.7h-.735v-4.7h-1.634v-.688Z" transform="translate(-624.745 -870.996)" fill="#fff"/>
    <path id="Path_2403" data-name="Path 2403" d="M656.635,870.955a2.765,2.765,0,1,1-2.722,2.769A2.732,2.732,0,0,1,656.635,870.955Zm0,4.826a2.062,2.062,0,1,0-1.994-2.057A2.008,2.008,0,0,0,656.635,875.781Z" transform="translate(-628.886 -870.955)" fill="#fff"/>
    <path id="Path_2404" data-name="Path 2404" d="M667.922,876.447l-2.455-4.058v4.058h-.727v-5.388h.719l2.432,4.027v-4.027h.727v5.388Z" transform="translate(-633.134 -870.996)" fill="#fff"/>
  </g>
</svg>
