<svg xmlns="http://www.w3.org/2000/svg" xmlns:xlink="http://www.w3.org/1999/xlink" width="240" height="85" viewBox="0 0 240 85">
  <defs>
    <clipPath id="clip-path">
      <rect id="Rectangle_13770" data-name="Rectangle 13770" width="238" height="81" fill="none"/>
    </clipPath>
    <clipPath id="clip-Apply_1">
      <rect width="240" height="85"/>
    </clipPath>
  </defs>
  <g id="Apply_1" data-name="Apply – 1" clip-path="url(#clip-Apply_1)">
    <g id="Group_16754" data-name="Group 16754" transform="translate(1 2)">
      <g id="Group_16753" data-name="Group 16753" clip-path="url(#clip-path)">
        <path id="Path_17753" data-name="Path 17753" d="M197.5,81H40.5a40.5,40.5,0,0,1,0-81h157a40.5,40.5,0,0,1,0,81M40.5,2a38.5,38.5,0,0,0,0,77h157a38.5,38.5,0,0,0,0-77Z" fill="#fff"/>
        <path id="Path_17754" data-name="Path 17754" d="M84.158,29.2h5.473L96.67,51.525H92.825L91.29,46.688H82.485l-1.52,4.837H77.12Zm6.016,14L86.857,32.813,83.585,43.2Z" fill="#fff"/>
        <path id="Path_17755" data-name="Path 17755" d="M103.193,50.673v8.294H99.425V34.783h3.3v1.209a6.679,6.679,0,0,1,4.636-1.674c4.744,0,7.782,3.751,7.782,8.837,0,5.022-3.008,8.836-7.643,8.836a7.088,7.088,0,0,1-4.309-1.318m3.735-2.031c2.915,0,4.264-2.418,4.264-5.487,0-3.039-1.38-5.489-4.388-5.489-2.853,0-4.077,2.217-4.077,5.489,0,3.239,1.194,5.487,4.2,5.487" fill="#fff"/>
        <path id="Path_17756" data-name="Path 17756" d="M122.288,50.673v8.294H118.52V34.783h3.3v1.209a6.679,6.679,0,0,1,4.636-1.674c4.744,0,7.782,3.751,7.782,8.837,0,5.022-3.008,8.836-7.643,8.836a7.088,7.088,0,0,1-4.309-1.318m3.735-2.031c2.915,0,4.264-2.418,4.264-5.487,0-3.039-1.38-5.489-4.388-5.489-2.853,0-4.077,2.217-4.077,5.489,0,3.239,1.194,5.487,4.2,5.487" fill="#fff"/>
        <rect id="Rectangle_13769" data-name="Rectangle 13769" width="3.736" height="22.324" transform="translate(137.958 29.201)" fill="#fff"/>
        <path id="Path_17757" data-name="Path 17757" d="M151.3,51.4l-6.775-16.619h3.891L153.1,46.765l4.543-11.983h3.735l-9.332,24.184h-3.5Z" fill="#fff"/>
      </g>
    </g>
  </g>
</svg>
