<svg id="Group_4345" data-name="Group 4345" xmlns="http://www.w3.org/2000/svg" width="123.916" height="36.474" viewBox="0 0 123.916 36.474">
  <g id="Group_4340" data-name="Group 4340">
    <rect id="Rectangle_3383" data-name="Rectangle 3383" width="122.997" height="35.554" rx="7.382" transform="translate(0.46 0.46)"/>
    <path id="Path_2405" data-name="Path 2405" d="M445.253,896.915H330.663A4.669,4.669,0,0,1,326,892.251V865.1a4.669,4.669,0,0,1,4.663-4.664h114.59a4.669,4.669,0,0,1,4.663,4.664v27.146A4.669,4.669,0,0,1,445.253,896.915Zm-114.59-35.554a3.748,3.748,0,0,0-3.743,3.744v27.146a3.748,3.748,0,0,0,3.743,3.743h114.59A3.748,3.748,0,0,0,449,892.251V865.1a3.748,3.748,0,0,0-3.743-3.744Z" transform="translate(-326 -860.441)" fill="#a6a8ab"/>
  </g>
  <g id="Group_4341" data-name="Group 4341" transform="translate(39.61 5.75)">
    <path id="Path_2406" data-name="Path 2406" d="M392.835,874.739l-.516,1.7H391.19l1.921-5.991h1.4l1.947,5.991h-1.173l-.542-1.7Zm1.716-.827-.471-1.475c-.115-.365-.213-.774-.3-1.12h-.018c-.089.346-.177.764-.284,1.12l-.462,1.475Z" transform="translate(-391.19 -870.117)" fill="#fff"/>
    <path id="Path_2407" data-name="Path 2407" d="M401.777,873.182l.7,2.2c.125.382.213.729.293,1.084h.027c.08-.355.177-.693.293-1.084l.693-2.2h1.147l-1.653,4.329H402.2l-1.608-4.329Z" transform="translate(-394.88 -871.191)" fill="#fff"/>
    <path id="Path_2408" data-name="Path 2408" d="M412.549,876.408a5.818,5.818,0,0,0,.072,1.04h-.987l-.08-.48h-.027a1.581,1.581,0,0,1-1.28.578,1.285,1.285,0,0,1-1.36-1.289c0-1.085.969-1.645,2.569-1.636v-.071c0-.284-.115-.755-.88-.755a2.3,2.3,0,0,0-1.165.32l-.213-.711a3.118,3.118,0,0,1,1.565-.382,1.621,1.621,0,0,1,1.786,1.831Zm-1.066-1.076c-.773-.009-1.511.151-1.511.809a.573.573,0,0,0,.622.622.9.9,0,0,0,.862-.6.734.734,0,0,0,.027-.24Z" transform="translate(-398.134 -871.128)" fill="#fff"/>
    <path id="Path_2409" data-name="Path 2409" d="M417.96,871.394a.618.618,0,1,1,.009,0Zm-.542,4.951v-4.329h1.093v4.329Z" transform="translate(-401.457 -870.025)" fill="#fff"/>
    <path id="Path_2410" data-name="Path 2410" d="M421.845,869.905h1.094v6.32h-1.094Z" transform="translate(-403.219 -869.905)" fill="#fff"/>
    <path id="Path_2411" data-name="Path 2411" d="M429.413,876.408a5.888,5.888,0,0,0,.07,1.04H428.5l-.08-.48h-.027a1.581,1.581,0,0,1-1.28.578,1.285,1.285,0,0,1-1.36-1.289c0-1.085.969-1.645,2.568-1.636v-.071c0-.284-.115-.755-.879-.755a2.3,2.3,0,0,0-1.165.32l-.213-.711a3.116,3.116,0,0,1,1.565-.382,1.622,1.622,0,0,1,1.787,1.831Zm-1.068-1.076c-.773-.009-1.511.151-1.511.809a.573.573,0,0,0,.622.622.9.9,0,0,0,.862-.6.734.734,0,0,0,.027-.24Z" transform="translate(-404.751 -871.128)" fill="#fff"/>
    <path id="Path_2412" data-name="Path 2412" d="M434.3,869.905h1.093v2.586h.018a1.565,1.565,0,0,1,1.387-.693c1.058,0,1.813.88,1.8,2.2a2.073,2.073,0,0,1-1.964,2.329,1.49,1.49,0,0,1-1.369-.747h-.018l-.053.649h-.933c.018-.294.036-.773.036-1.209Zm1.093,4.533a1.22,1.22,0,0,0,.027.258,1,1,0,0,0,.969.764c.685,0,1.1-.542,1.1-1.422,0-.764-.364-1.387-1.093-1.387a1.016,1.016,0,0,0-.969.8,1.309,1.309,0,0,0-.036.284Z" transform="translate(-408.091 -869.905)" fill="#fff"/>
    <path id="Path_2413" data-name="Path 2413" d="M443.52,869.905h1.093v6.32H443.52Z" transform="translate(-411.724 -869.905)" fill="#fff"/>
    <path id="Path_2414" data-name="Path 2414" d="M448.517,875.59a1.176,1.176,0,0,0,1.333,1.12,3.493,3.493,0,0,0,1.2-.2l.16.747a3.889,3.889,0,0,1-1.51.275,2.048,2.048,0,0,1-2.232-2.187,2.144,2.144,0,0,1,2.116-2.328,1.882,1.882,0,0,1,1.867,2.107,2.718,2.718,0,0,1-.035.462Zm1.9-.765a.93.93,0,0,0-.9-1.057,1.069,1.069,0,0,0-1,1.057Z" transform="translate(-413.273 -871.128)" fill="#fff"/>
    <path id="Path_2415" data-name="Path 2415" d="M461.5,877.545a2.093,2.093,0,0,1-2.169-2.231,2.137,2.137,0,0,1,2.24-2.293,2.077,2.077,0,0,1,2.152,2.222,2.143,2.143,0,0,1-2.214,2.3Zm.036-.791c.622,0,1.058-.6,1.058-1.484,0-.676-.3-1.458-1.049-1.458-.774,0-1.085.755-1.085,1.475,0,.835.418,1.467,1.067,1.467Z" transform="translate(-417.928 -871.128)" fill="#fff"/>
    <path id="Path_2416" data-name="Path 2416" d="M468.652,874.408c0-.5-.018-.916-.035-1.289h.951l.053.649h.026a1.591,1.591,0,0,1,1.387-.747c.755,0,1.538.489,1.538,1.857v2.569h-1.094V875c0-.622-.232-1.094-.827-1.094a.919.919,0,0,0-.853.64,1.02,1.02,0,0,0-.053.346v2.551h-1.093Z" transform="translate(-421.572 -871.128)" fill="#fff"/>
    <path id="Path_2417" data-name="Path 2417" d="M482.327,871.353v1.111h1.04v.817h-1.04v1.9c0,.534.143.8.56.8a1.435,1.435,0,0,0,.427-.044l.018.826a2.389,2.389,0,0,1-.791.115,1.249,1.249,0,0,1-.942-.355,1.7,1.7,0,0,1-.347-1.218v-2.027h-.613v-.817h.613v-.809Z" transform="translate(-426.289 -870.473)" fill="#fff"/>
    <path id="Path_2418" data-name="Path 2418" d="M487.132,869.905h1.094v2.577h.018a1.435,1.435,0,0,1,.542-.488,1.541,1.541,0,0,1,.756-.2c.737,0,1.511.489,1.511,1.875v2.551h-1.094v-2.435c0-.622-.232-1.1-.835-1.1a.913.913,0,0,0-.853.614.973.973,0,0,0-.044.329v2.6h-1.094Z" transform="translate(-428.837 -869.905)" fill="#fff"/>
    <path id="Path_2419" data-name="Path 2419" d="M496.736,875.59a1.175,1.175,0,0,0,1.333,1.12,3.488,3.488,0,0,0,1.2-.2l.16.747a3.89,3.89,0,0,1-1.511.275,2.048,2.048,0,0,1-2.231-2.187,2.143,2.143,0,0,1,2.116-2.328,1.882,1.882,0,0,1,1.866,2.107,2.8,2.8,0,0,1-.035.462Zm1.9-.765a.93.93,0,0,0-.9-1.057,1.069,1.069,0,0,0-1,1.057Z" transform="translate(-432.194 -871.128)" fill="#fff"/>
  </g>
  <g id="Group_4344" data-name="Group 4344" transform="translate(11.706 5.399)">
    <g id="Group_4342" data-name="Group 4342">
      <path id="Path_2420" data-name="Path 2420" d="M361.214,885.465a5.329,5.329,0,0,1,2.54-4.474,5.46,5.46,0,0,0-4.3-2.327c-1.809-.19-3.565,1.085-4.485,1.085-.94,0-2.363-1.065-3.89-1.034a5.731,5.731,0,0,0-4.821,2.941c-2.084,3.609-.53,8.912,1.467,11.831,1,1.428,2.167,3.024,3.7,2.967,1.494-.062,2.052-.952,3.857-.952,1.789,0,2.313.952,3.872.917,1.6-.027,2.613-1.436,3.578-2.878a11.773,11.773,0,0,0,1.637-3.333,5.153,5.153,0,0,1-3.147-4.742" transform="translate(-345.265 -872.983)" fill="#fff"/>
      <path id="Path_2421" data-name="Path 2421" d="M364.4,873.089a5.239,5.239,0,0,0,1.2-3.762,5.338,5.338,0,0,0-3.455,1.789,4.992,4.992,0,0,0-1.234,3.623,4.42,4.42,0,0,0,3.489-1.65" transform="translate(-351.393 -869.327)" fill="#fff"/>
    </g>
    <g id="Group_4343" data-name="Group 4343" transform="translate(27.251 10.844)">
      <path id="Path_2422" data-name="Path 2422" d="M400.42,899.683h-2.082L397.2,896.1h-3.965l-1.088,3.587h-2.028l3.932-12.207h2.425Zm-3.567-5.092-1.031-3.188q-.166-.487-.617-2.3h-.036q-.182.779-.581,2.3l-1.014,3.188Z" transform="translate(-390.116 -887.293)" fill="#fff"/>
      <path id="Path_2423" data-name="Path 2423" d="M418.235,897.254a5,5,0,0,1-1.213,3.55,3.549,3.549,0,0,1-2.7,1.158,2.7,2.7,0,0,1-2.5-1.249h-.034v4.636h-1.958v-9.49q0-1.412-.072-2.9h1.719l.109,1.4h.037a3.479,3.479,0,0,1,5.569-.345,4.857,4.857,0,0,1,1.041,3.242m-1.992.072a3.636,3.636,0,0,0-.579-2.119,2.006,2.006,0,0,0-1.7-.87,2.031,2.031,0,0,0-1.313.48,2.233,2.233,0,0,0-.77,1.261,2.532,2.532,0,0,0-.089.6v1.469a2.349,2.349,0,0,0,.586,1.62,1.95,1.95,0,0,0,1.531.661,2,2,0,0,0,1.72-.85,3.737,3.737,0,0,0,.617-2.247" transform="translate(-397.824 -889.375)" fill="#fff"/>
      <path id="Path_2424" data-name="Path 2424" d="M434.9,897.254a5,5,0,0,1-1.213,3.55,3.546,3.546,0,0,1-2.7,1.158,2.7,2.7,0,0,1-2.5-1.249h-.036v4.636h-1.956v-9.49q0-1.412-.072-2.9h1.72l.109,1.4h.038a3.478,3.478,0,0,1,5.567-.345,4.856,4.856,0,0,1,1.04,3.242m-1.99.072a3.623,3.623,0,0,0-.581-2.119,2,2,0,0,0-1.7-.87,2.036,2.036,0,0,0-1.314.48,2.229,2.229,0,0,0-.768,1.261,2.458,2.458,0,0,0-.092.6v1.469a2.344,2.344,0,0,0,.588,1.62,1.947,1.947,0,0,0,1.532.661,2,2,0,0,0,1.72-.85,3.762,3.762,0,0,0,.616-2.247" transform="translate(-404.363 -889.375)" fill="#fff"/>
      <path id="Path_2425" data-name="Path 2425" d="M454.109,896.141a3.249,3.249,0,0,1-1.085,2.536,4.8,4.8,0,0,1-3.324,1.068,5.835,5.835,0,0,1-3.166-.759l.454-1.63a5.36,5.36,0,0,0,2.828.778,2.675,2.675,0,0,0,1.723-.5,1.632,1.632,0,0,0,.614-1.334,1.7,1.7,0,0,0-.506-1.252,4.729,4.729,0,0,0-1.687-.944q-3.206-1.2-3.2-3.5a3.1,3.1,0,0,1,1.123-2.466,4.433,4.433,0,0,1,2.989-.964,5.932,5.932,0,0,1,2.77.58l-.488,1.594a4.82,4.82,0,0,0-2.337-.561,2.357,2.357,0,0,0-1.611.507,1.453,1.453,0,0,0-.489,1.1,1.488,1.488,0,0,0,.56,1.194,6.338,6.338,0,0,0,1.775.943,6.029,6.029,0,0,1,2.319,1.484,3.113,3.113,0,0,1,.743,2.119" transform="translate(-412.255 -887.175)" fill="#fff"/>
      <path id="Path_2426" data-name="Path 2426" d="M466.179,893.13h-2.155V897.4q0,1.63,1.142,1.63a3.527,3.527,0,0,0,.868-.09l.054,1.485a4.41,4.41,0,0,1-1.52.216,2.342,2.342,0,0,1-1.811-.7,3.471,3.471,0,0,1-.652-2.373V893.13h-1.286v-1.468H462.1v-1.611l1.92-.581v2.192h2.155Z" transform="translate(-417.859 -888.076)" fill="#fff"/>
      <path id="Path_2427" data-name="Path 2427" d="M480.082,897.291a4.828,4.828,0,0,1-1.158,3.333,4.139,4.139,0,0,1-3.224,1.339,3.937,3.937,0,0,1-3.089-1.286,4.678,4.678,0,0,1-1.15-3.24,4.775,4.775,0,0,1,1.186-3.35,4.1,4.1,0,0,1,3.2-1.305,4.022,4.022,0,0,1,3.115,1.286,4.637,4.637,0,0,1,1.123,3.224m-2.029.063a3.956,3.956,0,0,0-.526-2.088,1.93,1.93,0,0,0-1.755-1.054,1.96,1.96,0,0,0-1.794,1.054,4.038,4.038,0,0,0-.524,2.126,3.957,3.957,0,0,0,.524,2.087,1.973,1.973,0,0,0,1.777,1.054,1.95,1.95,0,0,0,1.754-1.072,3.956,3.956,0,0,0,.544-2.106" transform="translate(-422.036 -889.375)" fill="#fff"/>
      <path id="Path_2428" data-name="Path 2428" d="M493.07,894.682a3.485,3.485,0,0,0-.615-.053,1.856,1.856,0,0,0-1.6.78,2.939,2.939,0,0,0-.488,1.738v4.618h-1.955l.017-6.03c0-1.015-.026-1.938-.072-2.772h1.7l.072,1.685h.052a3.014,3.014,0,0,1,.979-1.395,2.365,2.365,0,0,1,1.414-.471,3.2,3.2,0,0,1,.488.035Z" transform="translate(-428.668 -889.375)" fill="#fff"/>
      <path id="Path_2429" data-name="Path 2429" d="M505.453,896.934a4.76,4.76,0,0,1-.07.888h-5.867a2.56,2.56,0,0,0,.851,1.994,2.9,2.9,0,0,0,1.92.613,6.494,6.494,0,0,0,2.372-.416l.307,1.359a7.346,7.346,0,0,1-2.953.545,4.268,4.268,0,0,1-3.214-1.206,4.452,4.452,0,0,1-1.168-3.233,5.045,5.045,0,0,1,1.088-3.315,3.746,3.746,0,0,1,3.077-1.411,3.284,3.284,0,0,1,2.882,1.411,4.762,4.762,0,0,1,.775,2.772m-1.865-.507a2.644,2.644,0,0,0-.379-1.5,1.71,1.71,0,0,0-1.559-.815,1.86,1.86,0,0,0-1.557.8,2.9,2.9,0,0,0-.578,1.521Z" transform="translate(-432.304 -889.363)" fill="#fff"/>
    </g>
  </g>
</svg>
