<svg xmlns="http://www.w3.org/2000/svg" xmlns:xlink="http://www.w3.org/1999/xlink" width="26" height="31" viewBox="0 0 26 31">
  <defs>
    <clipPath id="clip-Bookmark">
      <rect width="26" height="31"/>
    </clipPath>
  </defs>
  <g id="Bookmark" clip-path="url(#clip-Bookmark)">
    <g id="Group_10090" data-name="Group 10090" transform="translate(3 3)">
      <g id="bookmark-2" data-name="bookmark">
        <path id="Path_43" data-name="Path 43" d="M273.833,146.667h15a3.5,3.5,0,0,1,3.5,3.5v22.5a1,1,0,0,1-1.447.894l-9.553-4.777-9.553,4.777a1,1,0,0,1-1.447-.894v-22.5A3.5,3.5,0,0,1,273.833,146.667Zm16.5,24.381V150.167a1.5,1.5,0,0,0-1.5-1.5h-15a1.5,1.5,0,0,0-1.5,1.5v20.881l8.553-4.277a1,1,0,0,1,.895,0Z" transform="translate(-271.333 -147.667)" fill="#fff"/>
      </g>
    </g>
  </g>
</svg>
