<svg xmlns="http://www.w3.org/2000/svg" xmlns:xlink="http://www.w3.org/1999/xlink" width="18" height="19" viewBox="0 0 18 19">
  <defs>
    <clipPath id="clip-Call">
      <rect width="18" height="19"/>
    </clipPath>
  </defs>
  <g id="Call" clip-path="url(#clip-Call)">
    <g id="Group_11013" data-name="Group 11013" transform="translate(-1434.897 -608.787)">
      <path id="Path_11607" data-name="Path 11607" d="M128.13,54.677a1.4,1.4,0,0,0-1.979,0l-.762.762-4.377-4.378.762-.762a1.4,1.4,0,0,0,0-1.979l-1.164-1.164a1.409,1.409,0,0,0-1.841-.122c-1.6,1.219-2.259,2.376-1.958,3.436.721,2.536,6.636,8.452,9.173,9.173a1.858,1.858,0,0,0,.506.07c.918,0,1.9-.679,2.928-2.031a1.409,1.409,0,0,0-.122-1.841ZM129,57.369c-.739.973-1.841,2.07-2.881,1.774-2.373-.674-8.141-6.442-8.815-8.815-.3-1.04.8-2.14,1.774-2.881a.883.883,0,0,1,1.159.075l1.164,1.164a.883.883,0,0,1,0,1.245l-.947.947a.258.258,0,0,0,0,.366l4.746,4.746a.258.258,0,0,0,.366,0l.947-.947a.88.88,0,0,1,1.245,0l1.164,1.164A.886.886,0,0,1,129,57.369Z" transform="translate(1320.359 565.239)" fill="#888"/>
      <path id="Path_11607_-_Outline" data-name="Path 11607 - Outline" d="M126.488,59.913a2.067,2.067,0,0,1-.56-.077c-1.44-.409-3.71-2.312-5.354-3.957s-3.547-3.915-3.957-5.354c-.326-1.148.357-2.376,2.029-3.65a1.609,1.609,0,0,1,2.1.14l1.164,1.164a1.6,1.6,0,0,1,0,2.262l-.621.621,4.095,4.095.621-.621a1.6,1.6,0,0,1,2.262,0l1.165,1.164a1.61,1.61,0,0,1,.14,2.1C128.512,59.2,127.473,59.913,126.488,59.913Zm-6.87-12.965a1.193,1.193,0,0,0-.729.245c-1.528,1.164-2.163,2.248-1.887,3.223.32,1.125,1.833,3.159,3.855,5.18s4.055,3.535,5.18,3.855a1.666,1.666,0,0,0,.451.062c.853,0,1.784-.657,2.769-1.952a1.209,1.209,0,0,0-.1-1.579l-1.165-1.164a1.2,1.2,0,0,0-1.7,0l-.9.9-4.66-4.661.9-.9a1.2,1.2,0,0,0,0-1.7L120.468,47.3A1.192,1.192,0,0,0,119.618,46.948Zm6.859,12.443a1.5,1.5,0,0,1-.409-.057c-1.349-.383-3.535-2.225-5.131-3.821s-3.438-3.782-3.821-5.131c-.258-.907.38-1.978,1.845-3.095a1.083,1.083,0,0,1,1.423.094l1.163,1.163a1.081,1.081,0,0,1,0,1.528l-.947.947a.058.058,0,0,0,0,.083l4.746,4.746a.058.058,0,0,0,.083,0l.947-.947a1.08,1.08,0,0,1,1.528,0l1.164,1.164a1.085,1.085,0,0,1,.1,1.425C128.5,58.357,127.5,59.392,126.477,59.392Zm-6.859-11.927a.674.674,0,0,0-.415.14c-.923.7-1.968,1.738-1.7,2.668.3,1.051,1.758,3,3.719,4.958s3.907,3.421,4.958,3.719a1.1,1.1,0,0,0,.3.041c.861,0,1.763-.948,2.367-1.744a.684.684,0,0,0-.059-.9l-1.165-1.165a.68.68,0,0,0-.962,0l-.947.947a.458.458,0,0,1-.649,0l-4.746-4.746a.459.459,0,0,1,0-.649l.947-.947a.681.681,0,0,0,0-.962L120.1,47.663A.668.668,0,0,0,119.619,47.465Z" transform="translate(1320.359 565.239)" fill="#888"/>
      <path id="Path_11608" data-name="Path 11608" d="M401.463,56.57a.26.26,0,0,0,.259-.259,4.8,4.8,0,0,0-4.793-4.793.259.259,0,0,0,0,.519A4.278,4.278,0,0,1,401.2,56.31a.26.26,0,0,0,.259.259Z" transform="translate(1048.206 560.602)" fill="#888"/>
      <path id="Path_11608_-_Outline" data-name="Path 11608 - Outline" d="M401.463,56.72h0a.41.41,0,0,1-.409-.409,4.128,4.128,0,0,0-4.124-4.124.409.409,0,0,1,0-.819,4.948,4.948,0,0,1,4.943,4.943A.41.41,0,0,1,401.463,56.72Zm-4.533-5.052a.109.109,0,0,0,0,.219,4.429,4.429,0,0,1,4.424,4.424.11.11,0,0,0,.109.109h0a.109.109,0,0,0,.109-.109A4.648,4.648,0,0,0,396.929,51.668Z" transform="translate(1048.206 560.602)" fill="#888"/>
      <path id="Path_11609" data-name="Path 11609" d="M399.453,117.29a.259.259,0,1,0,.519,0,3.053,3.053,0,0,0-3.05-3.05.259.259,0,0,0,0,.519,2.535,2.535,0,0,1,2.531,2.531Z" transform="translate(1048.214 499.623)" fill="#888"/>
      <path id="Path_11609_-_Outline" data-name="Path 11609 - Outline" d="M399.712,117.7a.41.41,0,0,1-.409-.409,2.384,2.384,0,0,0-2.381-2.381.409.409,0,0,1,0-.819,3.2,3.2,0,0,1,3.2,3.2A.41.41,0,0,1,399.712,117.7Zm-2.791-3.309a.109.109,0,0,0,0,.219,2.684,2.684,0,0,1,2.681,2.681.109.109,0,0,0,.219,0A2.9,2.9,0,0,0,396.921,114.39Z" transform="translate(1048.214 499.623)" fill="#888"/>
      <path id="Path_11610" data-name="Path 11610" d="M396.67,177.217a.26.26,0,0,0,.259.259.787.787,0,0,1,.786.786.259.259,0,1,0,.519,0,1.305,1.305,0,0,0-1.3-1.3.26.26,0,0,0-.259.259Z" transform="translate(1048.206 438.647)" fill="#888"/>
      <path id="Path_11610_-_Outline" data-name="Path 11610 - Outline" d="M396.929,176.808a1.456,1.456,0,0,1,1.454,1.454.409.409,0,1,1-.819,0,.637.637,0,0,0-.636-.636.409.409,0,0,1,0-.819Zm1.045,1.564a.109.109,0,0,0,.109-.109,1.156,1.156,0,0,0-1.154-1.154.109.109,0,0,0,0,.219.937.937,0,0,1,.936.936A.109.109,0,0,0,397.974,178.372Z" transform="translate(1048.206 438.647)" fill="#888"/>
    </g>
  </g>
</svg>
