<svg xmlns="http://www.w3.org/2000/svg" xmlns:xlink="http://www.w3.org/1999/xlink" width="46" height="46" viewBox="0 0 46 46">
  <defs>
    <clipPath id="clip-Call">
      <rect width="46" height="46"/>
    </clipPath>
  </defs>
  <g id="Call" clip-path="url(#clip-Call)">
    <g id="Group_12488" data-name="Group 12488" transform="translate(-7001 -17696)">
      <circle id="Ellipse_1159" data-name="Ellipse 1159" cx="22" cy="22" r="22" transform="translate(7002 17697)" fill="#fff"/>
      <g id="Group_12487" data-name="Group 12487" transform="translate(7015 17710)">
        <path id="Path_11607" data-name="Path 11607" d="M133.306,58.279a2.04,2.04,0,0,0-2.878,0l-1.109,1.109-6.367-6.367,1.109-1.109a2.04,2.04,0,0,0,0-2.878l-1.694-1.694a2.049,2.049,0,0,0-2.678-.177c-2.327,1.773-3.285,3.455-2.848,5,1.048,3.689,9.652,12.292,13.341,13.341a2.7,2.7,0,0,0,.735.1c1.335,0,2.765-.988,4.259-2.953A2.049,2.049,0,0,0,135,59.973Zm1.271,3.915c-1.075,1.414-2.678,3.01-4.19,2.58-3.451-.981-11.84-9.369-12.82-12.82-.43-1.512,1.165-3.112,2.58-4.19a1.285,1.285,0,0,1,1.686.109l1.693,1.694a1.284,1.284,0,0,1,0,1.81l-1.377,1.377a.376.376,0,0,0,0,.532l6.9,6.9a.376.376,0,0,0,.532,0l1.377-1.377a1.281,1.281,0,0,1,1.81,0l1.693,1.694a1.288,1.288,0,0,1,.113,1.69Z" transform="translate(-116.739 -46.748)" stroke="#000" stroke-width="0.4"/>
        <path id="Path_11608" data-name="Path 11608" d="M403.64,58.865a.378.378,0,0,0,.377-.377,6.978,6.978,0,0,0-6.97-6.97.377.377,0,0,0,0,.754,6.221,6.221,0,0,1,6.216,6.216.378.378,0,0,0,.377.377Z" transform="translate(-385.357 -51.325)" stroke="#000" stroke-width="0.3"/>
        <path id="Path_11609" data-name="Path 11609" d="M400.72,118.676a.377.377,0,1,0,.754,0,4.44,4.44,0,0,0-4.436-4.436.377.377,0,0,0,0,.754,3.686,3.686,0,0,1,3.681,3.681Z" transform="translate(-385.35 -111.513)" stroke="#000" stroke-width="0.3"/>
        <path id="Path_11610" data-name="Path 11610" d="M396.67,177.335a.378.378,0,0,0,.377.377,1.144,1.144,0,0,1,1.143,1.143.377.377,0,1,0,.754,0,1.9,1.9,0,0,0-1.9-1.9.378.378,0,0,0-.377.377Z" transform="translate(-385.357 -171.696)" stroke="#000" stroke-width="0.3"/>
      </g>
    </g>
  </g>
</svg>
