<svg xmlns="http://www.w3.org/2000/svg" xmlns:xlink="http://www.w3.org/1999/xlink" width="240" height="85" viewBox="0 0 240 85">
  <defs>
    <clipPath id="clip-path">
      <rect id="Rectangle_13768" data-name="Rectangle 13768" width="238" height="81" transform="translate(0 -0.001)" fill="none"/>
    </clipPath>
    <clipPath id="clip-Connect_1">
      <rect width="240" height="85"/>
    </clipPath>
  </defs>
  <g id="Connect_1" data-name="Connect – 1" clip-path="url(#clip-Connect_1)">
    <g id="Group_16752" data-name="Group 16752" transform="translate(1 2)">
      <g id="Group_16751" data-name="Group 16751" clip-path="url(#clip-path)">
        <path id="Path_17745" data-name="Path 17745" d="M197.5,81H40.5a40.5,40.5,0,0,1,0-81h157a40.5,40.5,0,0,1,0,81M40.5,2a38.5,38.5,0,0,0,0,77h157a38.5,38.5,0,0,0,0-77Z" fill="#fff"/>
        <path id="Path_17746" data-name="Path 17746" d="M53.511,40.364c0-6.93,4-11.627,10.682-11.627,5.131,0,8.666,2.76,10.046,7.131l-3.768,1.039a6.069,6.069,0,0,0-6.278-4.651c-4.5,0-6.744,3.224-6.76,8.108,0,4.884,2.264,8.108,6.76,8.108a6.069,6.069,0,0,0,6.278-4.651l3.768,1.039c-1.38,4.371-4.915,7.131-10.046,7.131-6.682,0-10.682-4.7-10.682-11.627" fill="#fff"/>
        <path id="Path_17747" data-name="Path 17747" d="M76.715,43.155c0-5.256,3.38-8.837,8.325-8.837,5.054,0,8.356,3.658,8.356,8.837,0,5.224-3.349,8.836-8.356,8.836-5.039,0-8.325-3.658-8.325-8.836m8.325,5.332c2.961,0,4.4-2.186,4.4-5.332,0-3.24-1.473-5.334-4.4-5.334-3.008,0-4.372,2.171-4.372,5.334,0,3.255,1.488,5.332,4.372,5.332" fill="#fff"/>
        <path id="Path_17748" data-name="Path 17748" d="M104.477,37.821c-1.907,0-3.922,1.039-3.922,5.1v8.6H96.772V34.783h3.333v1.86a6.893,6.893,0,0,1,5.473-2.341c6.17,0,6.588,5.891,6.588,7.875v9.349h-3.782V43.465c0-2.062-.341-5.644-3.907-5.644" fill="#fff"/>
        <path id="Path_17749" data-name="Path 17749" d="M123.867,37.821c-1.907,0-3.922,1.039-3.922,5.1v8.6h-3.783V34.783H119.5v1.86a6.892,6.892,0,0,1,5.473-2.341c6.17,0,6.588,5.891,6.588,7.875v9.349h-3.782V43.465c0-2.062-.341-5.644-3.907-5.644" fill="#fff"/>
        <path id="Path_17750" data-name="Path 17750" d="M134.39,43.341c0-5.489,3.4-9.023,8.325-9.023,5.193,0,8.232,3.845,7.8,9.875H138.389c.295,2.76,1.783,4.294,4.326,4.294a4.061,4.061,0,0,0,3.922-2.386l3.69,1.116a7.844,7.844,0,0,1-7.395,4.774c-5.085,0-8.542-3.565-8.542-8.65m12.34-1.969c-.326-2.62-1.55-3.783-3.86-3.783-2.512,0-3.953,1.3-4.388,3.783Z" fill="#fff"/>
        <path id="Path_17751" data-name="Path 17751" d="M153.051,43.155c.016-5.132,3.163-8.837,8.248-8.837,3.8,0,6.619,2.046,7.41,5.349l-3.72,1.008a3.877,3.877,0,0,0-3.737-2.854c-2.93,0-4.232,2.264-4.248,5.334.016,3.193,1.442,5.332,4.248,5.332a3.46,3.46,0,0,0,3.643-2.65l3.814.852c-1.039,3.411-3.72,5.3-7.457,5.3-5.178,0-8.185-3.782-8.2-8.836" fill="#fff"/>
        <path id="Path_17752" data-name="Path 17752" d="M173.635,49.464c-.775-1.442-.636-2.853-.636-4.775V37.712h-3.038v-2.93H173V30.131h3.721v4.651h4.915v2.93H176.72v6.76a6.309,6.309,0,0,0,.341,3.008c.744,1.24,2.481,1.224,4.574.914v3.132c-3.318.635-6.7.34-8-2.062" fill="#fff"/>
      </g>
    </g>
  </g>
</svg>
