<svg xmlns="http://www.w3.org/2000/svg" xmlns:xlink="http://www.w3.org/1999/xlink" width="18" height="19" viewBox="0 0 18 19">
  <defs>
    <clipPath id="clip-Email">
      <rect width="18" height="19"/>
    </clipPath>
  </defs>
  <g id="Email" clip-path="url(#clip-Email)">
    <g id="Group_11882" data-name="Group 11882" transform="translate(-0.183 0.238)">
      <g id="Group_11881" data-name="Group 11881" transform="translate(-962.418 -3273.138)">
        <path id="Path_11613" data-name="Path 11613" d="M116.078,117.6a1.3,1.3,0,0,0-1.279,1.314v6.642a1.305,1.305,0,0,0,1.279,1.319h10.875a1.305,1.305,0,0,0,1.279-1.319v-6.642a1.3,1.3,0,0,0-1.279-1.314Zm0,.64h10.875a.634.634,0,0,1,.265.06l-5.288,4.893a.574.574,0,0,1-.815,0l-5.3-4.893a.632.632,0,0,1,.26-.06Zm-.63.59L119.2,122.3l-3.684,3.584a.714.714,0,0,1-.08-.325v-6.642a.755.755,0,0,1,.01-.085Zm12.135,0a.717.717,0,0,1,.01.08v6.642a.718.718,0,0,1-.075.32l-3.673-3.584,3.738-3.459Zm-4.2,3.888,3.593,3.513h-10.91l3.608-3.508,1.01.935a1.242,1.242,0,0,0,1.684,0Z" transform="translate(849.902 3160.4)" fill="#888"/>
        <path id="Path_11613_-_Outline" data-name="Path 11613 - Outline" d="M116.078,117.5h10.875a1.4,1.4,0,0,1,1.379,1.414v6.642a1.4,1.4,0,0,1-1.379,1.419H116.078a1.4,1.4,0,0,1-1.379-1.419v-6.642A1.4,1.4,0,0,1,116.078,117.5Zm10.875,9.276a1.2,1.2,0,0,0,1.179-1.219v-6.642a1.2,1.2,0,0,0-1.179-1.214H116.078a1.2,1.2,0,0,0-1.179,1.214v6.642a1.2,1.2,0,0,0,1.179,1.219Zm-10.875-8.636h10.875a.736.736,0,0,1,.307.069l.135.063-5.4,4.994a.674.674,0,0,1-.95,0l-5.408-5,.137-.062A.728.728,0,0,1,116.078,118.14Zm10.944.2a.493.493,0,0,0-.069,0H116.078a.454.454,0,0,0-.064,0l5.17,4.775a.474.474,0,0,0,.679,0Zm-11.707.226.2.186,3.831,3.54-3.857,3.752-.061-.121a.813.813,0,0,1-.091-.37v-6.642a.436.436,0,0,1,.007-.071l0-.014Zm3.741,3.729-3.518-3.251v6.508a.588.588,0,0,0,.019.147Zm8.459-3.539.106.069.061-.007c0,.008,0,.016,0,.023a.4.4,0,0,1,.007.068v6.642a.815.815,0,0,1-.085.364l-.061.123-3.847-3.753Zm-.038,6.936a.617.617,0,0,0,.016-.14v-6.5l-3.5,3.241Zm-4.1-3.112,3.837,3.751H116.061l-.24,0,3.848-3.742,1.079,1a1.142,1.142,0,0,0,1.549,0Zm3.346,3.551-3.35-3.275-.945.875a1.342,1.342,0,0,1-1.82,0l-.94-.87-3.364,3.271Z" transform="translate(849.902 3160.4)" fill="#888"/>
      </g>
    </g>
  </g>
</svg>
