<svg xmlns="http://www.w3.org/2000/svg" xmlns:xlink="http://www.w3.org/1999/xlink" width="240" height="85" viewBox="0 0 240 85">
  <defs>
    <clipPath id="clip-path">
      <rect id="Rectangle_13772" data-name="Rectangle 13772" width="238" height="81" fill="none"/>
    </clipPath>
    <clipPath id="clip-Explore_1">
      <rect width="240" height="85"/>
    </clipPath>
  </defs>
  <g id="Explore_1" data-name="Explore – 1" clip-path="url(#clip-Explore_1)">
    <g id="Group_16756" data-name="Group 16756" transform="translate(1 2)">
      <g id="Group_16755" data-name="Group 16755" clip-path="url(#clip-path)">
        <path id="Path_17758" data-name="Path 17758" d="M197.5,81H40.5a40.5,40.5,0,0,1,0-81h157a40.5,40.5,0,0,1,0,81M40.5,2a38.5,38.5,0,0,0,0,77h157a38.5,38.5,0,0,0,0-77Z" fill="#fff"/>
        <path id="Path_17759" data-name="Path 17759" d="M64.67,29.2H79.087v3.5H68.406v5.5h8.821v3.5H68.406v6.309H79.087v3.5H64.67Z" fill="#fff"/>
        <path id="Path_17760" data-name="Path 17760" d="M87.068,43.062l-6-8.278h4.4l3.767,5.348,3.706-5.348h4.4l-6,8.278L97.5,51.527H93.1l-3.861-5.534-3.891,5.534h-4.4Z" fill="#fff"/>
        <path id="Path_17761" data-name="Path 17761" d="M103.715,50.674v8.294H99.947V34.784h3.3v1.209a6.68,6.68,0,0,1,4.636-1.674c4.744,0,7.782,3.751,7.782,8.837,0,5.022-3.007,8.836-7.643,8.836a7.09,7.09,0,0,1-4.309-1.318m3.736-2.031c2.914,0,4.263-2.418,4.263-5.487,0-3.039-1.38-5.489-4.387-5.489-2.853,0-4.078,2.217-4.078,5.489,0,3.239,1.194,5.487,4.2,5.487" fill="#fff"/>
        <rect id="Rectangle_13771" data-name="Rectangle 13771" width="3.736" height="22.324" transform="translate(119.385 29.202)" fill="#fff"/>
        <path id="Path_17762" data-name="Path 17762" d="M126.84,43.155c0-5.256,3.379-8.837,8.325-8.837,5.054,0,8.356,3.658,8.356,8.837,0,5.224-3.349,8.836-8.356,8.836-5.039,0-8.325-3.658-8.325-8.836m8.325,5.332c2.961,0,4.4-2.186,4.4-5.332,0-3.24-1.473-5.334-4.4-5.334-3.008,0-4.372,2.171-4.372,5.334,0,3.255,1.488,5.332,4.372,5.332" fill="#fff"/>
        <path id="Path_17763" data-name="Path 17763" d="M146.928,34.783h3.3v2.682a5.035,5.035,0,0,1,1.675-1.8,6.356,6.356,0,0,1,4.449-.884v3.488a4.773,4.773,0,0,0-3.457.4,4.582,4.582,0,0,0-2.217,4.34v8.511h-3.752Z" fill="#fff"/>
        <path id="Path_17764" data-name="Path 17764" d="M158.057,43.341c0-5.489,3.395-9.023,8.325-9.023,5.192,0,8.231,3.845,7.8,9.875H162.055c.3,2.76,1.784,4.294,4.327,4.294A4.06,4.06,0,0,0,170.3,46.1l3.69,1.116a7.844,7.844,0,0,1-7.395,4.774c-5.084,0-8.541-3.565-8.541-8.65M170.4,41.372c-.326-2.62-1.55-3.783-3.86-3.783-2.511,0-3.953,1.3-4.388,3.783Z" fill="#fff"/>
      </g>
    </g>
  </g>
</svg>
