<svg xmlns="http://www.w3.org/2000/svg" xmlns:xlink="http://www.w3.org/1999/xlink" width="34" height="34" viewBox="0 0 34 34">
  <defs>
    <clipPath id="clip-Facebook">
      <rect width="34" height="34"/>
    </clipPath>
  </defs>
  <g id="Facebook" clip-path="url(#clip-Facebook)">
    <g id="Group_9409" data-name="Group 9409" transform="translate(1 1)">
      <path id="Path_11455" data-name="Path 11455" d="M1717.82,643.2a15.9,15.9,0,1,1,15.875-15.812A15.888,15.888,0,0,1,1717.82,643.2Zm3.527-18.543H1719c0-.462.027-.848-.006-1.229-.068-.785.233-1.163,1.056-1.088.409.037.824.006,1.26.006V619.68a25.527,25.527,0,0,0-2.828.018c-1.831.209-2.6,1.13-2.618,2.975-.008.637,0,1.274,0,1.951l-1.516.072v2.551l1.551.117v7.545h3.121v-7.683h2.117Z" transform="translate(-1701.906 -611.405)" fill="#f2f2f2"/>
      <path id="Path_11456" data-name="Path 11456" d="M1782.773,665.363l-.216,2.572h-2.117v7.683h-3.12v-7.545l-1.551-.117v-2.551l1.516-.072c0-.677-.007-1.314,0-1.951.023-1.846.787-2.766,2.618-2.976a25.525,25.525,0,0,1,2.828-.018v2.665c-.436,0-.851.031-1.26-.006-.822-.075-1.123.3-1.055,1.088.033.381.005.767.005,1.229Z" transform="translate(-1763.332 -652.114)" fill="#333"/>
    </g>
  </g>
</svg>
