<svg xmlns="http://www.w3.org/2000/svg" xmlns:xlink="http://www.w3.org/1999/xlink" width="145" height="52" viewBox="0 0 145 52">
  <defs>
    <clipPath id="clip-Olous_logo">
      <rect width="145" height="52"/>
    </clipPath>
  </defs>
  <g id="Olous_logo" clip-path="url(#clip-Olous_logo)">
    <g id="Group_11150" data-name="Group 11150" transform="translate(9979 -19476)">
      <rect id="Rectangle_11865" data-name="Rectangle 11865" width="30" height="29" rx="6" transform="translate(-9975 19481)" fill="#fff"/>
      <path id="Path_11659" data-name="Path 11659" d="M35.319.817c7.953,0,13.428,5.876,13.428,13.788S43.272,28.394,35.319,28.394,21.891,22.518,21.891,14.6,27.366.817,35.319.817m0,3.557c-5.715,0-9.313,4.357-9.313,10.231,0,5.837,3.6,10.231,9.313,10.231,5.635,0,9.313-4.395,9.313-10.231,0-5.874-3.678-10.231-9.313-10.231" transform="translate(-9959.531 19480.576)" fill="#fff"/>
      <rect id="Rectangle_11863" data-name="Rectangle 11863" width="3.598" height="26.657" transform="translate(-9906.027 19481.832)" fill="#fff"/>
      <path id="Path_11660" data-name="Path 11660" d="M45.168,15.214C45.168,9.659,48.926,5.1,54.92,5.1c6.036,0,9.752,4.557,9.752,10.112,0,5.6-3.715,10.151-9.752,10.151-5.994,0-9.752-4.555-9.752-10.151m15.747,0c0-3.637-2.118-6.914-6-6.914-3.836,0-5.994,3.277-5.994,6.914,0,3.676,2.157,6.954,5.994,6.954,3.877,0,6-3.278,6-6.954" transform="translate(-9943.083 19483.605)" fill="#fff"/>
      <path id="Path_11661" data-name="Path 11661" d="M72.294,24.687V22.05a9.537,9.537,0,0,1-6.874,3.116c-4.116,0-6.154-2.079-6.154-6.154V5.383h3.6V17.812c0,3.2,1.6,4.157,4.075,4.157a6.981,6.981,0,0,0,5.355-2.719V5.383h3.6v19.3Z" transform="translate(-9933.121 19483.803)" fill="#fff"/>
      <path id="Path_11662" data-name="Path 11662" d="M73.092,19.729a9.355,9.355,0,0,0,6.475,2.758c2.717,0,4.156-1.12,4.156-2.758,0-1.918-2.2-2.558-4.676-3.118-3.277-.759-7.113-1.637-7.113-5.794,0-3.077,2.638-5.715,7.354-5.715A10.335,10.335,0,0,1,86.64,7.86l-1.6,2.517A7.523,7.523,0,0,0,79.326,8.02c-2.437,0-3.956.959-3.956,2.517,0,1.679,2.079,2.239,4.476,2.8,3.357.759,7.354,1.679,7.354,6.115,0,3.318-2.719,5.915-7.792,5.915a10.993,10.993,0,0,1-8.035-3Z" transform="translate(-9924.566 19483.605)" fill="#fff"/>
      <path id="Path_11663" data-name="Path 11663" d="M24.509,30.89H6a6.006,6.006,0,0,1-6-6V6A6.006,6.006,0,0,1,6,0h18.51a6,6,0,0,1,6,6V24.893a6,6,0,0,1-6,6M6,1.35A4.654,4.654,0,0,0,1.35,6V24.893A4.654,4.654,0,0,0,6,29.542h18.51a4.653,4.653,0,0,0,4.647-4.649V6A4.653,4.653,0,0,0,24.509,1.35Z" transform="translate(-9975 19480)" fill="#707070"/>
      <path id="Path_11664" data-name="Path 11664" d="M20.179,17.066l-.01-.287-.019-.29-.026-.292-.034-.294-.041-.3-.049-.3-.055-.3-.063-.3-.07-.3-.077-.305-.084-.3-.09-.305-.1-.305-.1-.305-.109-.3-.118-.3-.123-.3-.128-.3-.137-.3-.14-.3-.147-.3-.154-.3-.157-.292-.164-.29L17.816,9.6l-.174-.282-.179-.28-.183-.276L17.092,8.5,16.9,8.227l-.2-.263-.2-.258-.2-.254-.208-.247-.212-.242-.215-.237-.218-.23-.222-.225L15,6.051l-.227-.212-.229-.2-.232-.2-.234-.191-.236-.184L13.6,4.884l-.239-.169-.241-.16L12.88,4.4l-.242-.145-.244-.137-.244-.128L11.9,3.872l-.244-.109-.246-.1-.244-.092-.246-.084L10.68,3.41l-.246-.063-.242-.055-.244-.046-.241-.034-.241-.024-.239-.015-.256,0-.217.009-.232.017-.23.029-.227.041-.224.051-.22.061-.215.075L7.2,3.538l-.2.1-.2.108L6.6,3.858l-.188.128-.181.138-.172.148-.167.157L5.731,4.6l-.15.176-.143.184L5.3,5.15l-.126.2-.118.208-.109.213-.1.222-.092.227-.084.234L4.6,6.693l-.067.244-.06.249-.051.256L4.376,7.7l-.034.265-.029.268-.019.271-.012.276-.005.292.005.271.01.287.019.29.026.292.034.294.041.3.049.3.055.3.063.3.07.3.077.3.084.3.09.305.1.305.1.3.111.305.118.3.123.3.128.3.137.3.14.3.147.3.154.3.157.292.164.288.169.287.174.283.179.28.183.276.188.271.193.268.2.263.2.258.2.253.208.249.212.242.215.236.218.232.222.224.225.218.227.213.229.2.232.2.234.191.236.184.237.176.239.169.241.16.242.154.242.145.244.137.244.128.246.119.244.111.246.1.244.094.246.084.244.073.246.065.242.055.244.044.241.034.241.026.239.014.254,0,.218-.007.232-.019.23-.029.227-.039.224-.051.218-.063.217-.073.21-.085.207-.1.2-.108.195-.118.186-.128.181-.138.174-.148.166-.157.159-.167.15-.176.142-.184.135-.193.126-.2.118-.208.108-.213.1-.222.094-.227.084-.234.077-.239.067-.244.06-.249.051-.256.044-.259.034-.263.027-.27.02-.271.012-.276.005-.292ZM10.237,4.939,10.428,5l.195.065.2.075.2.082.2.09.2.1.2.108.2.114.206.123.208.131.207.138.208.147.207.154.207.16.207.169.207.176.2.181.2.189.2.195.2.2.2.207.193.213.193.22.189.225.184.229.183.236.179.239.176.242.171.247.169.253.162.254.159.259.155.261.148.265.143.266.14.27.135.27.128.273.123.273.118.275.113.275.106.276.1.275.094.276.087.275.082.275.075.273.068.271.063.27.055.268.049.266.043.263.036.259.031.256.022.253.017.249.009.246,0,.241,0,.236-.009.23-.017.225-.022.218-.027.215-.036.207-.039.2-.046.195-.051.189-.058.181-.027.075-.077-.014-.186-.043-.189-.048-.191-.058-.195-.067-.2-.073-.2-.082-.2-.092-.2-.1-.2-.108-.207-.114L16,18.593l-.207-.131-.208-.138-.207-.147-.208-.154-.207-.162-.207-.167-.2-.176-.2-.183-.2-.189-.2-.195-.2-.2-.2-.208-.195-.213-.191-.218-.189-.225-.186-.23-.181-.234-.179-.239-.176-.244-.172-.247-.167-.251-.162-.256-.159-.258-.155-.263-.148-.265-.145-.266L11,12.864l-.133-.271-.13-.271-.123-.275-.118-.275-.111-.275-.106-.276-.1-.275-.094-.276L10,10.395l-.082-.275-.075-.271-.068-.273-.063-.27-.056-.268-.048-.265-.044-.263-.036-.259L9.5,7.994l-.022-.253L9.46,7.492l-.01-.244,0-.241,0-.236.01-.23.015-.225L9.5,6.1l.029-.213.034-.208.041-.2.046-.195L9.7,5.091l.058-.181.026-.075.079.014.186.041Zm7.006,16.1-.113.087-.116.08-.119.073-.123.067-.128.06-.131.055-.135.048-.14.039-.143.034-.148.027-.154.019-.157.014-.162.005-.167,0-.169-.009-.176-.017-.177-.026-.183-.034-.184-.041-.191-.049-.191-.058-.195-.065-.2-.075-.2-.082-.2-.09-.2-.1-.2-.108-.2-.114-.207-.123-.208-.131-.207-.138-.208-.147-.207-.154-.207-.16-.207-.169-.207-.176-.2-.181-.2-.189-.2-.195-.2-.2-.2-.208L9.776,18.4l-.191-.218L9.4,17.952l-.184-.23-.183-.234-.179-.239L8.673,17,8.5,16.757,8.334,16.5l-.162-.254-.159-.258-.155-.263-.148-.265L7.564,15.2l-.14-.268-.133-.271-.13-.271-.123-.275-.118-.275-.111-.275L6.7,13.288l-.1-.275-.094-.276-.087-.275-.082-.275-.075-.273L6.2,11.642l-.063-.27L6.077,11.1,6.03,10.84l-.043-.263-.038-.261L5.92,10.06,5.9,9.808l-.017-.249-.01-.246,0-.239,0-.237.01-.23L5.9,8.381l.022-.218.029-.215.034-.207.041-.2.046-.2.051-.188.058-.181L6.24,6.8l.068-.167.072-.159.077-.154.082-.143.085-.138.09-.13.094-.123.1-.114.1-.109.106-.1.108-.094.113-.087.116-.08.119-.073.125-.067L7.818,5l.131-.055L8.084,4.9,8.1,4.894l-.053.227L8,5.376l-.044.259L7.921,5.9l-.029.268-.019.273-.012.276-.005.29.005.273.01.287.019.288.026.292.034.3.041.3.049.3.055.3.063.3.07.3.077.3.084.305.09.305.1.3.1.305.109.305.118.3.123.3.128.3.137.3.14.3.148.3.152.294.159.294.162.288.169.287.174.283.179.28.183.275.189.273.191.266.2.263.2.259.2.253.208.249.212.242.217.236.218.232.22.224.225.218.227.213.229.2.232.2.234.191.236.184.239.176.239.169.241.162.241.152.242.145.244.137.244.128.246.119.244.111.246.1.244.094.246.084.246.073,0,0-.014.014Z" transform="translate(-9971.978 19482.238)"/>
      <g id="Group_11149" data-name="Group 11149">
        <g id="Group_11148" data-name="Group 11148" transform="translate(0 1)">
          <path id="Path_11665" data-name="Path 11665" d="M.643,20.142H6.8v1.041H1.814v3.031H6.7v1.041H1.814v4.284H.643Z" transform="translate(-9974.546 19494.232)" fill="#fff"/>
          <path id="Path_11666" data-name="Path 11666" d="M9.755,27.507a3.329,3.329,0,0,1-2.423,1.126,1.912,1.912,0,0,1-2.169-2.167V21.66H6.218v4.48c0,1.2.6,1.55,1.521,1.55a2.6,2.6,0,0,0,2.016-1.027v-5h1.056v6.806H9.755Z" transform="translate(-9971.353 19495.305)" fill="#fff"/>
          <path id="Path_11667" data-name="Path 11667" d="M10.3,27.812V23.361H9.177v-.93H10.3v-1.86H11.36v1.86H12.74v.93H11.36v4.226c0,.507.225.874.689.874a1.017,1.017,0,0,0,.718-.282l.311.788a1.725,1.725,0,0,1-1.268.437A1.392,1.392,0,0,1,10.3,27.812" transform="translate(-9968.516 19494.535)" fill="#fff"/>
          <path id="Path_11668" data-name="Path 11668" d="M16.735,27.507a3.329,3.329,0,0,1-2.423,1.126,1.912,1.912,0,0,1-2.169-2.167V21.66H13.2v4.48c0,1.2.6,1.55,1.521,1.55a2.6,2.6,0,0,0,2.016-1.027v-5h1.056v6.806H16.735Z" transform="translate(-9966.42 19495.305)" fill="#fff"/>
          <path id="Path_11669" data-name="Path 11669" d="M16.692,21.718h1.056v1.1a2.891,2.891,0,0,1,2.268-1.239v1.085a1.8,1.8,0,0,0-.423-.044A2.489,2.489,0,0,0,17.748,23.7v4.818H16.692Z" transform="translate(-9963.051 19495.246)" fill="#fff"/>
          <path id="Path_11670" data-name="Path 11670" d="M22.538,21.562c2.058,0,3.27,1.606,3.27,3.649v.268H20.3a2.4,2.4,0,0,0,2.452,2.352,2.974,2.974,0,0,0,2.1-.858l.509.689a3.694,3.694,0,0,1-2.7,1.043,3.374,3.374,0,0,1-3.466-3.579,3.4,3.4,0,0,1,3.352-3.563M20.3,24.7h4.466a2.205,2.205,0,0,0-2.239-2.268A2.271,2.271,0,0,0,20.3,24.7" transform="translate(-9961.26 19495.236)" fill="#fff"/>
          <path id="Path_11671" data-name="Path 11671" d="M25.967,25.125a3.373,3.373,0,1,1,6.734,0,3.373,3.373,0,1,1-6.734,0m5.622,0a2.285,2.285,0,1,0-4.521,0,2.287,2.287,0,1,0,4.521,0" transform="translate(-9956.401 19495.236)" fill="#fff"/>
          <path id="Path_11672" data-name="Path 11672" d="M31.564,23.721H30.436v-.93h1.128v-.522a1.943,1.943,0,0,1,1.971-2.21,1.968,1.968,0,0,1,1.029.239l-.268.788a1.165,1.165,0,0,0-.606-.155c-.689,0-1.072.48-1.072,1.338v.522H34v.93H32.619V29.6H31.564Z" transform="translate(-9953.205 19494.174)" fill="#fff"/>
          <path id="Path_11673" data-name="Path 11673" d="M35.194,24.911a4.692,4.692,0,0,1,4.79-4.86,4.226,4.226,0,0,1,3.606,1.86l-.986.548a3.194,3.194,0,0,0-2.62-1.365,3.6,3.6,0,0,0-3.579,3.818,3.608,3.608,0,0,0,3.579,3.818,3.155,3.155,0,0,0,2.62-1.365l1,.55a4.276,4.276,0,0,1-3.621,1.859,4.692,4.692,0,0,1-4.79-4.86" transform="translate(-9949.785 19494.168)" fill="#fff"/>
          <path id="Path_11674" data-name="Path 11674" d="M40.745,25.125a3.373,3.373,0,1,1,6.734,0,3.373,3.373,0,1,1-6.734,0m5.622,0a2.285,2.285,0,1,0-4.521,0,2.287,2.287,0,1,0,4.521,0" transform="translate(-9945.813 19495.236)" fill="#fff"/>
          <path id="Path_11675" data-name="Path 11675" d="M50.294,24.083c0-1.2-.606-1.579-1.522-1.579a2.625,2.625,0,0,0-2.014,1.056v4.973H45.7v-6.8h1.056v.986a3.373,3.373,0,0,1,2.423-1.155,1.934,1.934,0,0,1,2.169,2.2v4.775H50.294Z" transform="translate(-9942.266 19495.234)" fill="#fff"/>
          <path id="Path_11676" data-name="Path 11676" d="M50.455,26.873a3.085,3.085,0,0,0,2.239.971c1.043,0,1.606-.464,1.606-1.126,0-.746-.829-.986-1.748-1.212-1.154-.268-2.464-.579-2.464-1.987,0-1.056.915-1.957,2.536-1.957a3.451,3.451,0,0,1,2.522.985l-.493.734a2.647,2.647,0,0,0-2.029-.86c-.93,0-1.507.423-1.507,1.027,0,.664.775.875,1.661,1.085,1.184.268,2.55.606,2.55,2.113,0,1.142-.915,2.056-2.676,2.056a3.613,3.613,0,0,1-2.746-1.07Z" transform="translate(-9939.255 19495.236)" fill="#fff"/>
          <path id="Path_11677" data-name="Path 11677" d="M54.682,27.812V23.361H53.556v-.93h1.126v-1.86h1.056v1.86h1.382v.93H55.739v4.226c0,.507.225.874.689.874a1.017,1.017,0,0,0,.718-.282l.311.788a1.723,1.723,0,0,1-1.268.437,1.392,1.392,0,0,1-1.507-1.592" transform="translate(-9936.645 19494.535)" fill="#fff"/>
          <path id="Path_11678" data-name="Path 11678" d="M56.521,21.718h1.056v1.1a2.891,2.891,0,0,1,2.268-1.239v1.085a1.8,1.8,0,0,0-.423-.044A2.489,2.489,0,0,0,57.577,23.7v4.818H56.521Z" transform="translate(-9934.523 19495.246)" fill="#fff"/>
          <path id="Path_11679" data-name="Path 11679" d="M63.84,27.507a3.329,3.329,0,0,1-2.423,1.126,1.912,1.912,0,0,1-2.169-2.167V21.66H60.3v4.48c0,1.2.6,1.55,1.521,1.55a2.6,2.6,0,0,0,2.016-1.027v-5H64.9v6.806H63.84Z" transform="translate(-9932.561 19495.305)" fill="#fff"/>
          <path id="Path_11680" data-name="Path 11680" d="M66.962,21.562a2.915,2.915,0,0,1,2.493,1.183l-.7.649a2.019,2.019,0,0,0-1.734-.887,2.371,2.371,0,0,0-2.352,2.62,2.383,2.383,0,0,0,2.352,2.635,2.053,2.053,0,0,0,1.734-.887l.7.647A2.912,2.912,0,0,1,66.962,28.7a3.366,3.366,0,0,1-3.4-3.579,3.362,3.362,0,0,1,3.4-3.563" transform="translate(-9929.466 19495.236)" fill="#fff"/>
          <path id="Path_11681" data-name="Path 11681" d="M68.476,27.812V23.361H67.35v-.93h1.126v-1.86h1.056v1.86h1.381v.93H69.533v4.226c0,.507.225.874.689.874a1.017,1.017,0,0,0,.718-.282l.311.788a1.725,1.725,0,0,1-1.268.437,1.392,1.392,0,0,1-1.507-1.592" transform="translate(-9926.662 19494.535)" fill="#fff"/>
          <path id="Path_11682" data-name="Path 11682" d="M70.208,20.861a.712.712,0,0,1,1.423,0,.712.712,0,1,1-1.423,0m.183,1.86h1.056v6.8H70.391Z" transform="translate(-9924.643 19494.244)" fill="#fff"/>
          <path id="Path_11683" data-name="Path 11683" d="M71.942,25.125a3.373,3.373,0,1,1,6.734,0,3.373,3.373,0,1,1-6.734,0m5.622,0a2.285,2.285,0,1,0-4.521,0,2.287,2.287,0,1,0,4.521,0" transform="translate(-9923.417 19495.236)" fill="#fff"/>
          <path id="Path_11684" data-name="Path 11684" d="M81.492,24.083c0-1.2-.608-1.579-1.522-1.579a2.622,2.622,0,0,0-2.014,1.056v4.973H76.9v-6.8h1.058v.986a3.37,3.37,0,0,1,2.423-1.155,1.934,1.934,0,0,1,2.169,2.2v4.775H81.492Z" transform="translate(-9919.915 19495.234)" fill="#fff"/>
        </g>
      </g>
    </g>
  </g>
</svg>
