<svg xmlns="http://www.w3.org/2000/svg" xmlns:xlink="http://www.w3.org/1999/xlink" width="34" height="34" viewBox="0 0 34 34">
  <defs>
    <clipPath id="clip-Instagram">
      <rect width="34" height="34"/>
    </clipPath>
  </defs>
  <g id="Instagram" clip-path="url(#clip-Instagram)">
    <g id="Group_9408" data-name="Group 9408" transform="translate(1 1)">
      <path id="Path_11449" data-name="Path 11449" d="M1951.321,643.2a15.9,15.9,0,1,1,15.849-15.922A15.892,15.892,0,0,1,1951.321,643.2Zm-.026-22.779v.015c-1.065,0-2.132-.048-3.194.01a3.65,3.65,0,0,0-3.685,3.708c-.073,2.015-.081,4.036-.011,6.051.086,2.493,1.387,3.873,3.844,4a58.491,58.491,0,0,0,6.053,0,3.659,3.659,0,0,0,3.861-3.734,53.6,53.6,0,0,0,0-6.3c-.138-2.363-1.552-3.633-3.929-3.745C1953.258,620.383,1952.275,620.422,1951.295,620.422Z" transform="translate(-1935.375 -611.405)" fill="#f2f2f2"/>
      <path id="Path_11450" data-name="Path 11450" d="M1995.658,664.885c.981,0,1.964-.038,2.942.008,2.377.112,3.791,1.382,3.929,3.745a53.6,53.6,0,0,1,0,6.3,3.659,3.659,0,0,1-3.861,3.734,58.473,58.473,0,0,1-6.053,0c-2.457-.132-3.758-1.511-3.844-4-.07-2.015-.062-4.036.011-6.051a3.65,3.65,0,0,1,3.685-3.708c1.062-.058,2.129-.01,3.194-.01Zm0,12.505c.98,0,1.962.033,2.94-.007a2.461,2.461,0,0,0,2.647-2.634c.052-1.987.047-3.977,0-5.965a2.317,2.317,0,0,0-2.337-2.562,60.443,60.443,0,0,0-6.543.008,2.142,2.142,0,0,0-2.267,2.246,61.921,61.921,0,0,0,0,6.627,2.316,2.316,0,0,0,2.532,2.277C1993.641,677.424,1994.651,677.389,1995.659,677.39Z" transform="translate(-1979.738 -655.868)" fill="#fff"/>
      <path id="Path_11451" data-name="Path 11451" d="M1999.015,683.643a2.316,2.316,0,0,1-2.532-2.277,61.921,61.921,0,0,1,0-6.627,2.142,2.142,0,0,1,2.267-2.246,60.423,60.423,0,0,1,6.543-.008,2.317,2.317,0,0,1,2.337,2.562c.048,1.987.053,3.978,0,5.965a2.461,2.461,0,0,1-2.647,2.634C2004,683.686,2000.021,683.687,1999.015,683.643Zm-.512-5.614a3.53,3.53,0,0,0,3.49,3.565,3.589,3.589,0,0,0,3.589-3.576,3.539,3.539,0,0,0-3.557-3.5A3.479,3.479,0,0,0,1998.5,678.029Zm8.193-3.474.016-.369c-.324-.223-.647-.617-.971-.618-.276,0-.8.484-.772.7a1.2,1.2,0,0,0,.727.866C2005.988,675.18,2006.359,674.766,2006.7,674.555Z" transform="translate(-1986.118 -662.131)" fill="#333"/>
      <path id="Path_11452" data-name="Path 11452" d="M2008.932,688.49a3.479,3.479,0,0,1,3.521-3.511,3.539,3.539,0,0,1,3.557,3.5,3.589,3.589,0,0,1-3.589,3.576A3.53,3.53,0,0,1,2008.932,688.49Zm5.779.031a2.283,2.283,0,0,0-2.28-2.3,2.325,2.325,0,0,0-2.254,2.263,2.277,2.277,0,0,0,2.3,2.276A2.221,2.221,0,0,0,2014.711,688.521Z" transform="translate(-1996.547 -672.592)" fill="#f2f2f2"/>
      <path id="Path_11453" data-name="Path 11453" d="M2049.056,680.321c-.336.211-.707.625-1,.576a1.2,1.2,0,0,1-.727-.866c-.028-.213.5-.7.772-.7.324,0,.648.394.971.618Z" transform="translate(-2028.479 -667.897)" fill="#fff"/>
      <path id="Path_11454" data-name="Path 11454" d="M2020.86,694.657a2.221,2.221,0,0,1-2.23,2.24,2.276,2.276,0,0,1-2.3-2.276,2.325,2.325,0,0,1,2.254-2.263A2.282,2.282,0,0,1,2020.86,694.657Z" transform="translate(-2002.696 -678.729)" fill="#333"/>
      <circle id="Ellipse_1039" data-name="Ellipse 1039" cx="1.103" cy="1.103" r="1.103" transform="translate(18.759 11.347)" fill="#fff"/>
    </g>
  </g>
</svg>
