<svg xmlns="http://www.w3.org/2000/svg" xmlns:xlink="http://www.w3.org/1999/xlink" width="33" height="33" viewBox="0 0 33 33">
  <defs>
    <clipPath id="clip-Instagram">
      <rect width="33" height="33"/>
    </clipPath>
  </defs>
  <g id="Instagram" clip-path="url(#clip-Instagram)">
    <g id="Group_10834" data-name="Group 10834" transform="translate(11893 -11635)">
      <g id="Group_10833" data-name="Group 10833">
        <g id="Ellipse_15" data-name="Ellipse 15" transform="translate(-11892 11636)" fill="none" stroke="#fff" stroke-width="1" stroke-dasharray="0 0">
          <circle cx="15.5" cy="15.5" r="15.5" stroke="none"/>
          <circle cx="15.5" cy="15.5" r="15" fill="none"/>
        </g>
        <g id="Group_10831" data-name="Group 10831" transform="translate(-483.719 10.421)">
          <path id="Path_11592" data-name="Path 11592" d="M25.9,754.978c1.928,0,2.159,0,2.921.042a3.925,3.925,0,0,1,1.342.249,2.4,2.4,0,0,1,1.369,1.369,3.925,3.925,0,0,1,.249,1.342c.036.762.043.993.043,2.921s0,2.159-.043,2.921a3.926,3.926,0,0,1-.249,1.342,2.4,2.4,0,0,1-1.369,1.369,3.925,3.925,0,0,1-1.342.249c-.762.036-.99.043-2.921.043s-2.159,0-2.921-.043a3.925,3.925,0,0,1-1.342-.249,2.4,2.4,0,0,1-1.354-1.372,3.926,3.926,0,0,1-.249-1.342c-.036-.762-.043-.993-.043-2.921s0-2.159.043-2.921a3.926,3.926,0,0,1,.249-1.342,2.4,2.4,0,0,1,1.354-1.354,3.925,3.925,0,0,1,1.342-.249c.762-.036.993-.042,2.921-.042m0-1.3c-1.961,0-2.207,0-2.978.043a5.31,5.31,0,0,0-1.755.337,3.674,3.674,0,0,0-2.125,2.125,5.31,5.31,0,0,0-.337,1.755c-.033.771-.043,1.017-.043,2.978s0,2.207.043,2.978a5.31,5.31,0,0,0,.364,1.727,3.673,3.673,0,0,0,2.125,2.125,5.311,5.311,0,0,0,1.755.337c.771.033,1.017.042,2.978.042s2.207,0,2.978-.042a5.31,5.31,0,0,0,1.755-.337,3.673,3.673,0,0,0,2.125-2.125,5.31,5.31,0,0,0,.337-1.755c.033-.771.043-1.017.043-2.978s0-2.207-.043-2.978a5.31,5.31,0,0,0-.337-1.755,3.674,3.674,0,0,0-2.125-2.125A5.31,5.31,0,0,0,28.9,753.7c-.771-.033-1.017-.043-2.978-.043Z" transform="translate(-11418.94 10880.81)" fill="#fff"/>
          <path id="Path_11593" data-name="Path 11593" d="M33.99,765.28a3.71,3.71,0,1,0,3.71,3.71A3.71,3.71,0,0,0,33.99,765.28Zm0,6.118A2.408,2.408,0,1,1,36.4,768.99,2.408,2.408,0,0,1,33.99,771.4Z" transform="translate(-11427.032 10872.718)" fill="#fff"/>
          <circle id="Ellipse_1055" data-name="Ellipse 1055" cx="0.868" cy="0.868" r="0.868" transform="translate(-11390.055 11636.983)" fill="#fff"/>
        </g>
      </g>
    </g>
  </g>
</svg>
