<svg xmlns="http://www.w3.org/2000/svg" xmlns:xlink="http://www.w3.org/1999/xlink" width="37" height="40" viewBox="0 0 37 40">
  <defs>
    <clipPath id="clip-icon">
      <rect width="37" height="40"/>
    </clipPath>
  </defs>
  <g id="icon" clip-path="url(#clip-icon)">
    <g id="job_posting" transform="translate(2 2)">
      <path id="Path_21901" data-name="Path 21901" d="M28.125,12.938h-9a1.125,1.125,0,0,1,0-2.25h9a1.125,1.125,0,0,1,0,2.25Z" fill="none"/>
      <path id="Path_21902" data-name="Path 21902" d="M28.125,12.938h-9a1.125,1.125,0,0,1,0-2.25h9a1.125,1.125,0,0,1,0,2.25Z" fill="none" stroke="#fff" stroke-width="1"/>
      <path id="Path_21903" data-name="Path 21903" d="M24.75,17.438H19.125a1.125,1.125,0,0,1,0-2.25H24.75a1.125,1.125,0,0,1,0,2.25Z" fill="none"/>
      <path id="Path_21904" data-name="Path 21904" d="M24.75,17.438H19.125a1.125,1.125,0,0,1,0-2.25H24.75a1.125,1.125,0,0,1,0,2.25Z" fill="none" stroke="#fff" stroke-width="1"/>
      <path id="Path_21905" data-name="Path 21905" d="M28.125,25.313h-9a1.125,1.125,0,0,1,0-2.25h9a1.125,1.125,0,0,1,0,2.25Z" fill="none"/>
      <path id="Path_21906" data-name="Path 21906" d="M28.125,25.313h-9a1.125,1.125,0,0,1,0-2.25h9a1.125,1.125,0,0,1,0,2.25Z" fill="none" stroke="#fff" stroke-width="1"/>
      <path id="Path_21907" data-name="Path 21907" d="M24.75,29.813H19.125a1.125,1.125,0,0,1,0-2.25H24.75a1.125,1.125,0,0,1,0,2.25Z" fill="none"/>
      <path id="Path_21908" data-name="Path 21908" d="M24.75,29.813H19.125a1.125,1.125,0,0,1,0-2.25H24.75a1.125,1.125,0,0,1,0,2.25Z" fill="none" stroke="#fff" stroke-width="1"/>
      <path id="Path_21909" data-name="Path 21909" d="M13.5,19.688H6.75a2.252,2.252,0,0,1-2.25-2.25V14.063a2.252,2.252,0,0,1,2.25-2.25H13.5a2.252,2.252,0,0,1,2.25,2.25v3.375A2.252,2.252,0,0,1,13.5,19.688ZM6.75,14.063v3.375H13.5l0-3.375Z" fill="none"/>
      <path id="Path_21910" data-name="Path 21910" d="M13.5,19.688H6.75a2.252,2.252,0,0,1-2.25-2.25V14.063a2.252,2.252,0,0,1,2.25-2.25H13.5a2.252,2.252,0,0,1,2.25,2.25v3.375A2.252,2.252,0,0,1,13.5,19.688ZM6.75,14.063v3.375H13.5l0-3.375Z" fill="none" stroke="#fff" stroke-width="1"/>
      <path id="Path_21911" data-name="Path 21911" d="M12.375,14.063h-4.5A1.125,1.125,0,0,1,6.75,12.938v-2.25A2.252,2.252,0,0,1,9,8.438h2.25a2.252,2.252,0,0,1,2.25,2.25v2.25A1.125,1.125,0,0,1,12.375,14.063ZM9,11.813h2.25V10.688H9Z" fill="none"/>
      <path id="Path_21912" data-name="Path 21912" d="M12.375,14.063h-4.5A1.125,1.125,0,0,1,6.75,12.938v-2.25A2.252,2.252,0,0,1,9,8.438h2.25a2.252,2.252,0,0,1,2.25,2.25v2.25A1.125,1.125,0,0,1,12.375,14.063ZM9,11.813h2.25V10.688H9Z" fill="none" stroke="#fff" stroke-width="1"/>
      <path id="Path_21913" data-name="Path 21913" d="M13.5,32.063H6.75a2.252,2.252,0,0,1-2.25-2.25V26.438a2.252,2.252,0,0,1,2.25-2.25H13.5a2.252,2.252,0,0,1,2.25,2.25v3.375A2.252,2.252,0,0,1,13.5,32.063ZM6.75,26.438v3.375H13.5l0-3.375Z" fill="none"/>
      <path id="Path_21914" data-name="Path 21914" d="M13.5,32.063H6.75a2.252,2.252,0,0,1-2.25-2.25V26.438a2.252,2.252,0,0,1,2.25-2.25H13.5a2.252,2.252,0,0,1,2.25,2.25v3.375A2.252,2.252,0,0,1,13.5,32.063ZM6.75,26.438v3.375H13.5l0-3.375Z" fill="none" stroke="#fff" stroke-width="1"/>
      <path id="Path_21915" data-name="Path 21915" d="M12.375,26.438h-4.5A1.125,1.125,0,0,1,6.75,25.313v-2.25A2.252,2.252,0,0,1,9,20.813h2.25a2.252,2.252,0,0,1,2.25,2.25v2.25A1.125,1.125,0,0,1,12.375,26.438ZM9,24.188h2.25V23.063H9Z" fill="none"/>
      <path id="Path_21916" data-name="Path 21916" d="M12.375,26.438h-4.5A1.125,1.125,0,0,1,6.75,25.313v-2.25A2.252,2.252,0,0,1,9,20.813h2.25a2.252,2.252,0,0,1,2.25,2.25v2.25A1.125,1.125,0,0,1,12.375,26.438ZM9,24.188h2.25V23.063H9Z" fill="none" stroke="#fff" stroke-width="1"/>
      <path id="Path_21917" data-name="Path 21917" d="M30.375,36h-27A3.379,3.379,0,0,1,0,32.625V3.375A3.379,3.379,0,0,1,3.375,0h27A3.379,3.379,0,0,1,33.75,3.375v29.25A3.379,3.379,0,0,1,30.375,36Zm-27-33.75A1.126,1.126,0,0,0,2.25,3.375v29.25A1.126,1.126,0,0,0,3.375,33.75h27A1.126,1.126,0,0,0,31.5,32.625V3.375A1.126,1.126,0,0,0,30.375,2.25Z" fill="none"/>
      <path id="Path_21918" data-name="Path 21918" d="M30.375,36h-27A3.379,3.379,0,0,1,0,32.625V3.375A3.379,3.379,0,0,1,3.375,0h27A3.379,3.379,0,0,1,33.75,3.375v29.25A3.379,3.379,0,0,1,30.375,36Zm-27-33.75A1.126,1.126,0,0,0,2.25,3.375v29.25A1.126,1.126,0,0,0,3.375,33.75h27A1.126,1.126,0,0,0,31.5,32.625V3.375A1.126,1.126,0,0,0,30.375,2.25Z" fill="none" stroke="#fff" stroke-width="1"/>
      <path id="Path_21919" data-name="Path 21919" d="M32.625,6.75H1.125a1.125,1.125,0,0,1,0-2.25h31.5a1.125,1.125,0,0,1,0,2.25Z" fill="none"/>
      <path id="Path_21920" data-name="Path 21920" d="M32.625,6.75H1.125a1.125,1.125,0,0,1,0-2.25h31.5a1.125,1.125,0,0,1,0,2.25Z" fill="none" stroke="#fff" stroke-width="1"/>
    </g>
  </g>
</svg>
