<svg xmlns="http://www.w3.org/2000/svg" xmlns:xlink="http://www.w3.org/1999/xlink" width="26" height="21" viewBox="0 0 26 21">
  <defs>
    <clipPath id="clip-JObs">
      <rect width="26" height="21"/>
    </clipPath>
  </defs>
  <g id="JObs" clip-path="url(#clip-JObs)">
    <g id="Suitcase" transform="translate(2 1.93)">
      <path id="Vector" d="M.743,0H17.089a.743.743,0,0,1,.743.743V12.632a.743.743,0,0,1-.743.743H.743A.743.743,0,0,1,0,12.632V.743A.743.743,0,0,1,.743,0Z" transform="translate(0 2.972)" fill="none" stroke="#2f85cf" stroke-linecap="round" stroke-linejoin="round" stroke-width="1.5"/>
      <path id="Vector-2" data-name="Vector" d="M0,16.345V1.487A1.487,1.487,0,0,1,1.487,0H5.945A1.487,1.487,0,0,1,7.431,1.487V16.345" transform="translate(5.202)" fill="none" stroke="#2f85cf" stroke-linecap="round" stroke-linejoin="round" stroke-width="1.5"/>
    </g>
  </g>
</svg>
