<svg xmlns="http://www.w3.org/2000/svg" xmlns:xlink="http://www.w3.org/1999/xlink" width="44" height="44" viewBox="0 0 44 44">
  <defs>
    <clipPath id="clip-Jobs">
      <rect width="44" height="44"/>
    </clipPath>
  </defs>
  <g id="Jobs" clip-path="url(#clip-Jobs)">
    <g id="Group_6704" data-name="Group 6704" transform="translate(11 11.001)">
      <path id="Path_7066" data-name="Path 7066" d="M10.67,27.914a3.307,3.307,0,0,0,3.3,3.3H27.288a3.307,3.307,0,0,0,3.3-3.3V19.7a3.13,3.13,0,0,0,.67-1.935V13.674A.266.266,0,0,0,31,13.408h-5.4V11.492A1.494,1.494,0,0,0,24.1,10H17.251a1.494,1.494,0,0,0-1.492,1.492v1.916H10.266a.266.266,0,0,0-.266.266v4.087a3.13,3.13,0,0,0,.67,1.935Zm16.619,2.772H13.974A2.775,2.775,0,0,1,11.2,27.914V20.231a3.13,3.13,0,0,0,1.947.679h5.843v1.63a.266.266,0,0,0,.266.266h2.835a.266.266,0,0,0,.266-.266V20.91h5.755a3.131,3.131,0,0,0,1.947-.679v7.683A2.775,2.775,0,0,1,27.288,30.686Zm-5.461-8.412h-2.3v-3.26h2.3ZM16.291,11.492a.961.961,0,0,1,.96-.96H24.1a.961.961,0,0,1,.96.96v1.916H23.709v-1.5a.266.266,0,0,0-.266-.266H17.907a.266.266,0,0,0-.266.266v1.5H16.291Zm6.887,1.916h-5V12.179h5Zm-12.646.532h20.2v3.822a2.6,2.6,0,0,1-.587,1.648.264.264,0,0,0-.018.023,2.612,2.612,0,0,1-2.012.946H22.359v-1.63a.266.266,0,0,0-.266-.266H19.258a.266.266,0,0,0-.266.266v1.63H13.149a2.612,2.612,0,0,1-2.012-.946.261.261,0,0,0-.018-.023,2.6,2.6,0,0,1-.587-1.648Z" transform="translate(-10 -10)" stroke="#000" stroke-width="0.4"/>
    </g>
  </g>
</svg>
