<svg xmlns="http://www.w3.org/2000/svg" xmlns:xlink="http://www.w3.org/1999/xlink" width="19" height="19" viewBox="0 0 19 19">
  <defs>
    <clipPath id="clip-Lead">
      <rect width="19" height="19"/>
    </clipPath>
  </defs>
  <g id="Lead" clip-path="url(#clip-Lead)">
    <g id="Group_18775" data-name="Group 18775" transform="translate(2 2)">
      <g id="Group_16298" data-name="Group 16298" transform="translate(0 0)">
        <path id="Path_11543" data-name="Path 11543" d="M37.977,50.831a.226.226,0,1,0,.452,0A1.5,1.5,0,0,0,37,49.449v-.273a.226.226,0,0,0-.219-.219.23.23,0,0,0-.162.061.224.224,0,0,0-.071.159v.271a1.383,1.383,0,1,0,0,2.765V54.1a1.044,1.044,0,0,1-.975-.928.226.226,0,0,0-.452,0,1.5,1.5,0,0,0,1.427,1.382v.271c0,.005,0,.01,0,.015a.226.226,0,0,0,.226.219h.007A.226.226,0,0,0,37,54.825v-.272a1.383,1.383,0,1,0,0-2.765V49.9a1.044,1.044,0,0,1,.975.927m0,2.34A1.044,1.044,0,0,1,37,54.1V52.243a1.429,1.429,0,0,1,.2.046.989.989,0,0,1,.773.882M36.551,49.9v1.854a.928.928,0,1,1,0-1.854" transform="translate(-29.043 -40.481)" stroke="#000" stroke-width="0.5"/>
        <path id="Path_11544" data-name="Path 11544" d="M14.325,1.933H11.471V.654A.656.656,0,0,0,10.816,0H4.652A.657.657,0,0,0,4,.654V1.933H1.143A1.146,1.146,0,0,0,0,3.076V11.94a1.146,1.146,0,0,0,1.143,1.142H3.891a4.142,4.142,0,0,0,5.379,2.29,4.167,4.167,0,0,0,2.306-2.29h2.748a1.146,1.146,0,0,0,1.143-1.143V3.076a1.146,1.146,0,0,0-1.143-1.143m-9.877,0V.654a.2.2,0,0,1,.2-.2h6.165a.2.2,0,0,1,.2.2V1.933Zm7.267,8.418a4.149,4.149,0,0,0-7.978,2.28H1.143a.693.693,0,0,1-.691-.691V5.563L7.7,6.788a.2.2,0,0,0,.075,0l7.243-1.224V11.94a.692.692,0,0,1-.689.691H11.731a4.14,4.14,0,0,0-.016-2.28M7.734,15.216l-.049,0a3.473,3.473,0,1,1,.049,0m7.28-12.14V5.1l-7.28,1.23L.452,5.1V3.076a.693.693,0,0,1,.691-.691H14.324a.693.693,0,0,1,.69.691" transform="translate(0 0.001)" stroke="#000" stroke-width="0.5"/>
      </g>
    </g>
  </g>
</svg>
