<svg xmlns="http://www.w3.org/2000/svg" xmlns:xlink="http://www.w3.org/1999/xlink" width="34" height="34" viewBox="0 0 34 34">
  <defs>
    <clipPath id="clip-Linkdine">
      <rect width="34" height="34"/>
    </clipPath>
  </defs>
  <g id="Linkdine" clip-path="url(#clip-Linkdine)">
    <g id="Group_9405" data-name="Group 9405" transform="translate(1 1)">
      <path id="Path_11440" data-name="Path 11440" d="M2418.235,611.406a15.892,15.892,0,1,1-15.922,15.7A15.917,15.917,0,0,1,2418.235,611.406Zm-1.791,20.416h2.51c0-.515,0-.96,0-1.4.006-1.149-.029-2.3.036-3.447a1.392,1.392,0,0,1,1.5-1.387c.794,0,1.243.4,1.374,1.283a9.1,9.1,0,0,1,.068,1.257c.008,1.226,0,2.452,0,3.715h2.589c0-2.041.087-4.032-.026-6.01a2.773,2.773,0,0,0-3.325-2.638,10.863,10.863,0,0,0-2.194.9c-.013-.113-.041-.349-.07-.6h-2.461Zm-1.749.038v-8.369h-2.544v8.369Zm.262-11.127a1.545,1.545,0,1,0-1.5,1.584A1.515,1.515,0,0,0,2414.957,620.734Z" transform="translate(-2402.313 -611.405)" fill="#f2f2f2"/>
      <path id="Path_11441" data-name="Path 11441" d="M2486.248,689.787v-8.334h2.461c.029.251.057.486.07.6a10.855,10.855,0,0,1,2.194-.9,2.773,2.773,0,0,1,3.325,2.638c.113,1.979.026,3.969.026,6.01h-2.589c0-1.263.005-2.489,0-3.715a9.1,9.1,0,0,0-.068-1.257c-.131-.886-.58-1.286-1.374-1.282a1.392,1.392,0,0,0-1.5,1.387c-.065,1.146-.03,2.3-.036,3.447,0,.445,0,.89,0,1.4Z" transform="translate(-2472.116 -669.371)" fill="#333"/>
      <path id="Path_11442" data-name="Path 11442" d="M2463.291,691.559h-2.544V683.19h2.544Z" transform="translate(-2450.909 -671.104)" fill="#333"/>
      <path id="Path_11443" data-name="Path 11443" d="M2462.159,659.244a1.544,1.544,0,1,1-1.551-1.532A1.516,1.516,0,0,1,2462.159,659.244Z" transform="translate(-2449.514 -649.916)" fill="#333"/>
    </g>
  </g>
</svg>
