<svg xmlns="http://www.w3.org/2000/svg" xmlns:xlink="http://www.w3.org/1999/xlink" width="16" height="18" viewBox="0 0 16 18">
  <defs>
    <clipPath id="clip-Lock">
      <rect width="16" height="18"/>
    </clipPath>
  </defs>
  <g id="Lock" clip-path="url(#clip-Lock)">
    <g id="Group_10121" data-name="Group 10121" transform="translate(2 1)">
      <path id="Path_11548" data-name="Path 11548" d="M13.018,22.681h0a.477.477,0,0,0-.476.476v1.16a.478.478,0,0,0,.467.475h.021a.465.465,0,0,0,.464-.438c0-.015,0-.03,0-.045V23.157a.477.477,0,0,0-.476-.476" transform="translate(-6.555 -11.654)"/>
      <path id="Path_11550" data-name="Path 11550" d="M2.721,3.3v.036c0,1.683,0,2.419,0,2.745A2.786,2.786,0,0,0,.5,8.808v4.877a2.787,2.787,0,0,0,2.783,2.794H10.64A2.789,2.789,0,0,0,13.428,13.7V8.819a2.768,2.768,0,0,0-2.222-2.728V3.3A2.791,2.791,0,0,0,8.425.5H5.51A2.788,2.788,0,0,0,2.722,3.284v.054m7.926,12.189H3.289A1.835,1.835,0,0,1,1.453,13.7V8.818A1.835,1.835,0,0,1,3.285,6.977H10.64a1.835,1.835,0,0,1,1.836,1.83v4.879a1.838,1.838,0,0,1-1.83,1.841M3.674,3.306V3.294A1.838,1.838,0,0,1,5.5,1.453H8.419a1.838,1.838,0,0,1,1.836,1.83V6.025H3.673c0-.7,0-2.556,0-2.719" transform="translate(-0.501 -0.501)"/>
    </g>
  </g>
</svg>
