<svg width="140" height="30" viewBox="0 0 140 30" fill="none" xmlns="http://www.w3.org/2000/svg">
<mask id="mask0_709_253" style="mask-type:luminance" maskUnits="userSpaceOnUse" x="0" y="0" width="140" height="30">
<path d="M140 0H0V30H140V0Z" fill="white"/>
</mask>
<g mask="url(#mask0_709_253)">
<path d="M22.8798 29.7677H5.59982C4.11525 29.7661 2.69192 29.1567 1.6421 28.0731C0.592283 26.9896 0.00172656 25.5204 0 23.988L0 5.77968C0.00172656 4.24723 0.592283 2.77807 1.6421 1.69453C2.69192 0.610998 4.11525 0.00158391 5.59982 0L22.8798 0C24.3646 0.00118788 25.7883 0.610426 26.8384 1.694C27.8885 2.77758 28.4793 4.24697 28.481 5.77968V23.988C28.4793 25.5203 27.8888 26.9894 26.8392 28.0729C25.7895 29.1564 24.3664 29.7659 22.8819 29.7677" fill="#050605"/>
<path d="M48.9206 0C57.2366 0 62.9633 6.34224 62.9633 14.8831C62.9633 23.4239 57.2381 29.7699 48.9206 29.7699C40.6031 29.7699 34.8779 23.4292 34.8779 14.8831C34.8779 6.337 40.6046 0 48.9206 0ZM48.9206 3.8399C42.9447 3.8399 39.182 8.54235 39.182 14.8831C39.182 21.1834 42.9439 25.9285 48.9206 25.9285C54.8132 25.9285 58.6592 21.1842 58.6592 14.8831C58.6592 8.54235 54.8139 3.8399 48.9206 3.8399Z" fill="#050605"/>
<path d="M71.6995 0.474609H67.9375V29.2496H71.6995V0.474609Z" fill="#050605"/>
<path d="M76.4199 18.8102C76.4199 12.8151 80.35 7.89648 86.6173 7.89648C92.9302 7.89648 96.8161 12.8151 96.8161 18.8102C96.8161 24.8495 92.9302 29.7674 86.6173 29.7674C80.3507 29.7674 76.4199 24.8488 76.4199 18.8102ZM92.8875 18.8102C92.8875 14.8851 90.6713 11.3466 86.6173 11.3466C82.6068 11.3466 80.3507 14.8843 80.3507 18.8102C80.3507 22.7796 82.6075 26.3173 86.6173 26.3173C90.672 26.3173 92.8875 22.7796 92.8875 18.8102Z" fill="#050605"/>
<path d="M115.205 29.2514V26.4034C114.291 27.4398 113.183 28.2729 111.947 28.8518C110.711 29.4306 109.374 29.743 108.017 29.7698C103.711 29.7698 101.58 27.5255 101.58 23.1276V8.41504H105.342V21.8319C105.342 25.282 107.014 26.3204 109.605 26.3204C110.692 26.2924 111.758 26.0143 112.727 25.5066C113.695 24.9989 114.542 24.2743 115.205 23.3857V8.41504H118.967V29.2514H115.205Z" fill="#050605"/>
<path d="M124.986 23.6846C126.781 25.5493 129.211 26.6173 131.757 26.6613C134.598 26.6613 136.106 25.4546 136.106 23.6846C136.106 21.6147 133.807 20.9235 131.215 20.3183C127.786 19.4991 123.774 18.5498 123.774 14.0613C123.774 10.7406 126.532 7.89413 131.465 7.89413C134.307 7.80231 137.071 8.87196 139.154 10.8707L137.482 13.59C136.717 12.753 135.789 12.0933 134.759 11.6548C133.729 11.2163 132.62 11.009 131.506 11.0465C128.957 11.0465 127.369 12.0811 127.369 13.7636C127.369 15.5769 129.543 16.1806 132.05 16.7843C135.559 17.6035 139.739 18.5962 139.739 23.3847C139.739 26.965 136.899 29.7695 131.591 29.7695C128.205 29.7695 125.238 28.6908 123.188 26.5348L124.986 23.6846Z" fill="#050605"/>
<path d="M21.86 18.821L21.8492 18.5442L21.8325 18.2652L21.8064 17.9847L21.776 17.6997L21.7368 17.4146L21.6926 17.1266L21.6397 16.8371L21.5818 16.5461L21.5144 16.2551L21.4419 15.9626L21.3629 15.6679L21.2781 15.3754L21.189 15.0806L21.0918 14.7859L20.9889 14.4911L20.8795 14.1986L20.7643 13.9076L20.6447 13.6166L20.5186 13.3271L20.3867 13.0391L20.249 12.7526L20.1077 12.4691L19.9591 12.187L19.8077 11.908L19.6497 11.6305L19.4873 11.3582L19.3207 11.0889L19.1489 10.824L18.9779 10.5607L18.7989 10.3041L18.6155 10.0505L18.4271 9.80142L18.2358 9.55679L18.0416 9.31741L17.8444 9.084L17.643 8.85958L17.44 8.63516L17.2321 8.41896L17.0226 8.2095L16.8117 8.00452L16.5943 7.80703L16.3769 7.61627L16.1609 7.42775L15.9435 7.25046L15.7167 7.08139L15.492 6.91831L15.2674 6.76345L15.0427 6.61384L14.8152 6.4747L14.5876 6.34303L14.36 6.2196L14.131 6.10514L13.9049 6.00116L13.6759 5.90241L13.4469 5.81339L13.2179 5.73335L12.9889 5.65854L12.7613 5.5957L12.5338 5.54408L12.3106 5.50294L12.0845 5.47002L11.8598 5.44683L11.6366 5.43262H11.3982L11.1952 5.4386L10.9778 5.45581L10.7604 5.48423L10.5481 5.52314L10.3386 5.57176L10.1364 5.63236L9.93642 5.70267L9.73785 5.78197L9.54653 5.87473L9.36028 5.97797L9.17982 6.09093L9.00372 6.21436L8.83196 6.35051L8.66963 6.49265L8.51454 6.64227L8.3696 6.80385L8.23046 6.9789L8.09856 7.15769L7.97246 7.34247L7.85578 7.53473L7.7449 7.73147L7.64344 7.93645L7.54923 8.15115L7.46444 8.37033L7.38255 8.59401L7.31008 8.82442L7.2463 9.06081L7.19195 9.3002L7.14339 9.54632L7.10209 9.79693L7.0702 10.0505L7.04411 10.3086L7.02454 10.5719L7.01367 10.8383V11.1188V11.3821L7.02454 11.6574L7.04121 11.9364L7.06513 12.2185L7.09701 12.502L7.1347 12.7885L7.18035 13.075L7.23181 13.3645L7.29123 13.6555L7.35646 13.948L7.42893 14.2405L7.50647 14.533L7.59126 14.8278L7.68258 15.1203L7.77969 15.415L7.8826 15.7098L7.99203 16.0023L8.10726 16.294L8.22828 16.585L8.35438 16.8745L8.48628 17.1625L8.62252 17.4491L8.76746 17.7326L8.91241 18.0146L9.06532 18.2936L9.22331 18.5704L9.38564 18.8427L9.55232 19.112L9.72408 19.3784L9.90018 19.6402L10.0792 19.8968L10.2625 20.1504L10.451 20.3995L10.6408 20.6441L10.8365 20.8835L11.0336 21.1169L11.2351 21.3458L11.438 21.5702L11.646 21.7864L11.8554 21.9959L12.0663 22.2009L12.2837 22.3984L12.5012 22.5891L12.7186 22.7739L12.936 22.9512L13.1577 23.1203L13.3824 23.2833L13.6056 23.4382L13.8317 23.5878L14.0593 23.7285L14.2854 23.8601L14.5144 23.9821L14.742 24.098L14.971 24.2042L15.2 24.303L15.429 24.392L15.658 24.472L15.8855 24.5469L16.1146 24.6082L16.3421 24.6613L16.5682 24.704L16.7943 24.7384L17.019 24.7616L17.2422 24.7758H17.4806L17.6821 24.7683L17.8995 24.7511L18.1169 24.7227L18.3293 24.6853L18.5351 24.6336L18.7416 24.5738L18.9416 24.499L19.1388 24.4174L19.3301 24.3247L19.5163 24.2214L19.6982 24.1085L19.8729 23.985L20.0425 23.8519L20.2034 23.7075L20.3584 23.5579L20.507 23.3963L20.6469 23.2272L20.7802 23.0499L20.9049 22.8637L21.023 22.6714L21.1324 22.4724L21.2339 22.266L21.3281 22.0528L21.4143 21.8336L21.4933 21.6091L21.5658 21.3772L21.6296 21.1423L21.6839 20.9015L21.7325 20.6553L21.7716 20.4062L21.805 20.1511L21.831 19.893L21.8492 19.6297L21.8615 19.3634V19.0829L21.86 18.821ZM12.5765 7.13525L12.7555 7.18986L12.9374 7.2527L13.1208 7.32751L13.307 7.40755L13.4955 7.49358L13.6853 7.58934L13.8752 7.69257L14.068 7.80404L14.2608 7.92298L14.4535 8.04791L14.647 8.17583L14.8412 8.31647L15.034 8.46609L15.2282 8.62094L15.421 8.78402L15.6123 8.95309L15.8037 9.12814L15.9921 9.30993L16.1805 9.49769L16.3653 9.69369L16.5501 9.89268L16.7306 10.0992L16.9096 10.3109L17.0857 10.5271L17.2603 10.7515L17.4299 10.9759L17.5966 11.2063L17.7604 11.4412L17.9213 11.6791L18.0778 11.9215L18.2293 12.1676L18.3778 12.4167L18.5228 12.6688L18.6605 12.9224L18.7952 13.179L18.9257 13.4386L19.0518 13.6982L19.1714 13.9615L19.2866 14.2248L19.396 14.4896L19.5004 14.756L19.599 15.0223L19.6932 15.2871L19.7794 15.5534L19.8613 15.8182L19.9388 16.0831L20.0113 16.3464L20.0751 16.6082L20.1331 16.8678L20.186 17.1259L20.2316 17.3825L20.2708 17.6346L20.3055 17.8852L20.3331 18.1328L20.3541 18.3752L20.3693 18.6161L20.3787 18.8525V19.0829V19.3073L20.3693 19.5317L20.3541 19.7494L20.3345 19.9611L20.307 20.1676L20.2751 20.3666L20.2374 20.5611L20.1947 20.7488L20.1461 20.9306L20.0932 21.1057L20.0671 21.1805L19.9946 21.1663L19.8214 21.1274L19.6453 21.0787L19.4663 21.0241L19.2844 20.9598L19.1011 20.8895L18.9148 20.8094L18.7264 20.7219L18.5365 20.6277L18.3452 20.5244L18.1539 20.413L17.9611 20.294L17.7669 20.1691L17.5741 20.0359L17.3799 19.8938L17.1857 19.7442L16.9929 19.5893L16.8001 19.4262L16.6088 19.2572L16.4175 19.0821L16.2291 18.9003L16.0406 18.7126L15.8558 18.5166L15.671 18.3161L15.4906 18.1111L15.3101 17.9009L15.134 17.6847L14.9594 17.4603L14.7898 17.2359L14.6231 17.0039L14.4593 16.7705L14.2984 16.5312L14.1419 16.2888L13.9904 16.0427L13.8419 15.7936L13.6969 15.5414L13.5571 15.2864L13.4237 15.0298L13.2933 14.7717L13.1672 14.5098L13.0476 14.248L12.9324 13.9832L12.8229 13.7184L12.7186 13.4536L12.62 13.1872L12.5258 12.9209L12.4381 12.6561L12.3562 12.3913L12.2837 12.1265L12.2113 11.8631L12.1475 11.6013L12.0881 11.3395L12.0366 11.0829L11.991 10.8263L11.9497 10.5727L11.9163 10.3236L11.8888 10.076L11.8678 9.83134L11.8525 9.59195L11.8431 9.35556V9.12515V8.90072L11.8525 8.6763L11.8678 8.45861L11.8873 8.2469L11.9149 8.04043L11.9468 7.84144L11.9844 7.64694L12.0272 7.45917L12.0758 7.27739L12.1287 7.10234L12.1547 7.02753L12.2272 7.04174L12.4004 7.08064L12.5765 7.13525ZM19.1177 22.6535L19.0134 22.7365L18.9054 22.8113L18.7931 22.8816L18.6778 22.946L18.5597 23.0036L18.4365 23.0552L18.3104 23.1008L18.18 23.1397L18.0452 23.1726L17.9053 23.1996L17.7604 23.2183L17.6154 23.231L17.4654 23.2355H17.3089L17.1509 23.2257L16.9871 23.21L16.8204 23.1853L16.6508 23.1539L16.4776 23.1135L16.3015 23.0664L16.1225 23.0103L15.9406 22.9475L15.7573 22.8726L15.571 22.7926L15.3826 22.7066L15.1927 22.6108L15.0029 22.5076L14.8101 22.3961L14.6173 22.2787L14.4231 22.1515L14.2303 22.0183L14.0361 21.8777L13.8419 21.7281L13.6491 21.5732L13.4563 21.4101L13.265 21.2411L13.0737 21.0675L12.886 20.8932L12.6997 20.7055L12.5135 20.511L12.3301 20.3105L12.1497 20.1055L11.9707 19.8938L11.7931 19.6776L11.6199 19.4532L11.4503 19.2287L11.2822 18.9983L11.1199 18.7634L10.959 18.5255L10.8024 18.2832L10.651 18.037L10.4988 17.7864L10.3539 17.5343L10.214 17.2792L10.0792 17.0226L9.94874 16.7646L9.82409 16.5027L9.70451 16.2409L9.58928 15.9761L9.4842 15.7113L9.37984 15.4464L9.28128 15.1801L9.18852 14.9138L9.10083 14.649L9.01604 14.3849L8.94357 14.1216L8.8711 13.8583L8.80587 13.5949L8.7479 13.3354L8.69644 13.0773L8.64934 12.8222L8.6102 12.5686L8.57687 12.3195L8.54933 12.0718L8.52759 11.8265L8.51092 11.5871L8.50367 11.3507L8.49932 11.1188L8.50367 10.8944L8.51092 10.6699L8.52614 10.4537L8.54715 10.2405L8.57324 10.0356L8.60658 9.83508L8.64282 9.64058L8.68702 9.45206L8.73413 9.27028L8.78848 9.09672L8.84646 8.92766L8.91023 8.76757L8.97691 8.61346L9.04938 8.46759L9.12185 8.32545L9.20229 8.19229L9.28563 8.06736L9.37549 7.95141L9.46681 7.83994L9.56247 7.73521L9.65958 7.63796L9.76104 7.54894L9.8654 7.46441L9.97483 7.3896L10.0857 7.31479L10.2009 7.25046L10.3205 7.19285L10.4415 7.14124L10.5713 7.0971L10.5879 7.09261L10.5379 7.3103L10.4908 7.55642L10.4481 7.80179L10.4147 8.05689L10.3886 8.31498L10.3705 8.5783L10.3604 8.84911L10.3539 9.12814V9.38997L10.3647 9.66676L10.3828 9.9458L10.4068 10.2263L10.4386 10.5113L10.4763 10.7964L10.522 11.0844L10.5734 11.3739L10.6314 11.6649L10.6966 11.9559L10.7691 12.2484L10.8467 12.5431L10.9314 12.8379L11.0228 13.1304L11.1184 13.4251L11.2213 13.7199L11.3308 14.0124L11.446 14.3034L11.5656 14.5944L11.6931 14.8839L11.8236 15.1719L11.9613 15.4584L12.1062 15.7419L12.2511 16.024L12.404 16.303L12.562 16.5783L12.7244 16.8521L12.8911 17.1214L13.0628 17.3877L13.2375 17.6495L13.4179 17.9061L13.6013 18.1597L13.7875 18.4088L13.9788 18.6535L14.1731 18.8929L14.3716 19.1263L14.5717 19.3507L14.7767 19.5751L14.9833 19.7913L15.1927 20.0008L15.4051 20.2057L15.6225 20.4032L15.8399 20.594L16.0573 20.7788L16.2747 20.9561L16.4965 21.1266L16.7197 21.2897L16.9443 21.4446L17.1705 21.5942L17.3966 21.7333L17.6241 21.865L17.8517 21.9884L18.0807 22.1029L18.3097 22.2106L18.5387 22.3078L18.7677 22.3969L18.9953 22.4769L19.2243 22.5517L19.212 22.5644L19.1177 22.6535Z" fill="white"/>
</g>
</svg>
