<?xml version="1.0" encoding="utf-8"?>
<!-- Generator: Adobe Illustrator 25.4.1, SVG Export Plug-In . SVG Version: 6.00 Build 0)  -->
<svg version="1.1" id="Layer_1" xmlns="http://www.w3.org/2000/svg" xmlns:xlink="http://www.w3.org/1999/xlink" x="0px" y="0px"
	 viewBox="0 0 200 200" style="enable-background:new 0 0 200 200;" xml:space="preserve">
<style type="text/css">
	.st0{fill:#E5E4E4;stroke:#010101;stroke-width:0.5;stroke-miterlimit:10;}
</style>
<g>
	<g id="_x30_1_00000102511653820291437730000012446627241544501378_">
		<path id="Path_718_00000027597552903516289090000015250267556470466483_" class="st0" d="M100.25,58.05L51.84,85.99L3.43,58.05
			L51.84,30.1L100.25,58.05z"/>
		<path id="Path_719_00000114046413600784223380000000275434296808305542_" class="st0" d="M51.84,85.99v55.9l48.41-27.95v-55.9
			L51.84,85.99z"/>
		<path id="Path_717_00000054257159558101294900000013948349747079920782_" class="st0" d="M3.44,58.05v55.9l48.41,27.95v-55.9
			L3.44,58.05z"/>
	</g>
	<g id="_x30_3_00000017485298097134925790000013666999622779874993_">
		<path id="Path_742_00000129202266191848997220000009473593039654017930_" class="st0" d="M39.73,106.95l-0.01,0.44l-0.01,0.43
			l-0.03,0.43l-0.04,0.4l-0.06,0.41l-0.06,0.38l-0.09,0.38l-0.09,0.38l-0.09,0.36l-0.11,0.36L39,111.26l-0.13,0.34l-0.14,0.31
			l-0.09,0.16l-0.17-0.01l-0.34-0.03l-0.36-0.06l-0.36-0.06l-0.37-0.08l-0.74-0.2l-0.37-0.13l-0.37-0.14l-0.37-0.16l-0.38-0.17
			l-0.37-0.19l-0.38-0.2l-0.38-0.21l-0.37-0.21l-0.38-0.24l-0.37-0.26l-0.38-0.27l-0.37-0.27l-0.38-0.3l-0.37-0.3l-0.37-0.31
			l-0.36-0.33l-0.37-0.34l-0.36-0.34l-0.36-0.37l-0.36-0.37l-0.34-0.37l-0.34-0.4l-0.33-0.4l-0.34-0.4l-0.31-0.43l-0.33-0.41
			l-0.3-0.44l-0.31-0.43l-0.28-0.46l-0.3-0.44l-0.27-0.46l-0.28-0.47l-0.51-0.94l-0.24-0.47l-0.24-0.49l-0.23-0.49l-0.21-0.49
			l-0.21-0.49l-0.2-0.49l-0.19-0.5l-0.19-0.49l-0.16-0.49l-0.16-0.5l-0.16-0.49l-0.13-0.49l-0.13-0.5l-0.09-0.47l-0.09-0.49
			l-0.09-0.49l-0.14-0.94l-0.04-0.47l-0.04-0.46l-0.03-0.46l-0.03-0.44v-0.88l0.03-0.43l0.03-0.41l0.04-0.41l0.04-0.41l0.07-0.38
			l0.07-0.38l0.09-0.38l0.2-0.71l0.13-0.34l0.13-0.34l0.16-0.31l0.07-0.16l0.17,0.01l0.36,0.03l0.71,0.11l0.36,0.08l0.37,0.09
			l0.74,0.23l0.37,0.14l0.38,0.16l0.37,0.17l0.38,0.19l0.37,0.2l0.38,0.21l0.38,0.23l0.37,0.23l0.38,0.26l0.37,0.27l0.38,0.27
			l0.37,0.3l0.37,0.3l0.37,0.31l0.37,0.33l0.36,0.34l0.37,0.36l0.34,0.36l0.36,0.37l0.34,0.38l0.34,0.38l0.34,0.4l0.66,0.83
			l0.31,0.43l0.31,0.43l0.6,0.88l0.28,0.46l0.28,0.46L36.19,95l0.27,0.48l0.26,0.47l0.24,0.49l0.24,0.47l0.23,0.49l0.21,0.49
			l0.21,0.49l0.19,0.5l0.2,0.49l0.17,0.49l0.17,0.5l0.16,0.49l0.14,0.49l0.13,0.5l0.13,0.49l0.11,0.49l0.09,0.47l0.09,0.49
			l0.09,0.48l0.06,0.47l0.06,0.47l0.04,0.46l0.03,0.46l0.01,0.44L39.73,106.95z"/>
		<path id="Path_743_00000126319803136533167500000017515195931170453125_" class="st0" d="M38.65,112.08l-0.07,0.16l-0.17,0.3
			l-0.17,0.28l-0.2,0.27l-0.19,0.26l-0.21,0.24l-0.21,0.24l-0.23,0.21l-0.24,0.21l-0.24,0.19l-0.26,0.17l-0.27,0.17l-0.27,0.14
			l-0.28,0.14l-0.28,0.11l-0.3,0.09l-0.3,0.08l-0.31,0.07l-0.31,0.06l-0.33,0.04l-0.33,0.03l-0.34,0.01h-0.34l-0.34-0.03l-0.36-0.03
			l-0.34-0.06l-0.37-0.06L31,115.33l-0.37-0.09l-0.37-0.09l-0.37-0.13l-0.37-0.14l-0.38-0.16l-0.37-0.17l-0.38-0.19l-0.37-0.2
			l-0.38-0.21l-0.38-0.21l-0.37-0.24l-0.38-0.26l-0.37-0.27l-0.38-0.27l-0.37-0.3l-0.37-0.3l-0.37-0.31l-0.37-0.33l-0.71-0.69
			l-0.71-0.74l-0.34-0.37l-0.34-0.4l-0.34-0.4l-0.33-0.4l-0.33-0.43l-0.31-0.41l-0.31-0.44l-0.3-0.43l-0.3-0.46l-0.28-0.44
			l-0.28-0.47l-0.27-0.46l-0.51-0.94l-0.26-0.47l-0.23-0.49l-0.23-0.49l-0.23-0.49l-0.2-0.49l-0.2-0.49l-0.19-0.5l-0.19-0.49
			l-0.17-0.5l-0.16-0.49l-0.14-0.49l-0.13-0.49l-0.13-0.5l-0.11-0.49l-0.09-0.48l-0.09-0.49l-0.07-0.47l-0.07-0.47l-0.06-0.48
			l-0.04-0.46l-0.03-0.46l-0.01-0.44v-0.88l0.01-0.43l0.03-0.41l0.04-0.41l0.06-0.41l0.07-0.38l0.07-0.38l0.09-0.38l0.09-0.36
			l0.11-0.36l0.26-0.69l0.14-0.31l0.16-0.31l0.17-0.3l0.19-0.28l0.19-0.27l0.2-0.26l0.2-0.24l0.23-0.24l0.23-0.21l0.23-0.2l0.26-0.2
			l0.26-0.17l0.26-0.17l0.27-0.14l0.28-0.13l0.28-0.13l0.3-0.09l0.3-0.08l0.31-0.07l0.31-0.06l0.33-0.04l0.33-0.03l0.34-0.01h0.34
			l0.17,0.01l-0.07,0.16l-0.16,0.31l-0.13,0.34l-0.13,0.34l-0.2,0.71l-0.09,0.38l-0.07,0.38l-0.07,0.38l-0.04,0.41l-0.04,0.41
			l-0.03,0.41l-0.03,0.43v0.88l0.03,0.44l0.03,0.46l0.04,0.46l0.04,0.47l0.14,0.94l0.09,0.49l0.09,0.49l0.09,0.47l0.13,0.5
			l0.13,0.49l0.16,0.49l0.16,0.5l0.16,0.49l0.19,0.49l0.19,0.5l0.2,0.49l0.21,0.49l0.21,0.49l0.23,0.49l0.24,0.49l0.24,0.47
			l0.51,0.94l0.28,0.47l0.27,0.46l0.3,0.44l0.28,0.46l0.31,0.43l0.3,0.44l0.33,0.41l0.31,0.43l0.34,0.4l0.33,0.4l0.34,0.4l0.34,0.37
			l0.36,0.37l0.36,0.37l0.36,0.34l0.37,0.34l0.36,0.33l0.37,0.31l0.37,0.3l0.38,0.3l0.37,0.27l0.38,0.27l0.37,0.26l0.38,0.24
			l0.37,0.21l0.38,0.21l0.38,0.2l0.37,0.19l0.38,0.17l0.37,0.16l0.37,0.14l0.37,0.13l0.74,0.2l0.37,0.08l0.36,0.06l0.36,0.06
			l0.34,0.03L38.65,112.08z"/>
	</g>
</g>
<g>
	<g id="_x30_1">
		<path id="Path_718_1_" class="st0" d="M148.66,85.99l-48.41,27.95L51.84,85.99l48.41-27.95L148.66,85.99z"/>
		<path id="Path_719_2_" class="st0" d="M100.25,113.94v55.9l48.41-27.95V86L100.25,113.94z"/>
		<path id="Path_717_2_" class="st0" d="M51.85,85.99v55.9l48.41,27.95v-55.9L51.85,85.99z"/>
	</g>
	<g id="_x30_3_00000105384568927800417640000018211298949939795613_">
		<path id="Path_742_00000129928627705935519020000007770628748733556648_" class="st0" d="M88.14,134.9l-0.01,0.44l-0.01,0.43
			l-0.03,0.43l-0.04,0.4l-0.06,0.41l-0.06,0.38l-0.09,0.38l-0.09,0.38l-0.09,0.36l-0.11,0.36l-0.13,0.34l-0.13,0.34l-0.14,0.31
			l-0.09,0.16l-0.17-0.01l-0.34-0.03l-0.36-0.06l-0.36-0.06l-0.37-0.08l-0.74-0.2l-0.37-0.13l-0.37-0.14l-0.37-0.16l-0.38-0.17
			l-0.37-0.19l-0.38-0.2l-0.38-0.21l-0.37-0.21l-0.38-0.24l-0.37-0.26l-0.38-0.27l-0.37-0.27l-0.38-0.3l-0.37-0.3l-0.37-0.31
			l-0.36-0.33l-0.37-0.34l-0.36-0.34l-0.36-0.37l-0.36-0.37l-0.34-0.37l-0.34-0.4l-0.33-0.4l-0.34-0.4l-0.31-0.43l-0.33-0.41
			L75,131.6l-0.31-0.43l-0.28-0.46l-0.3-0.44l-0.27-0.46l-0.28-0.47l-0.51-0.94l-0.24-0.47l-0.24-0.49l-0.23-0.49l-0.21-0.49
			l-0.21-0.49l-0.2-0.49l-0.19-0.5l-0.19-0.49l-0.16-0.49l-0.16-0.5l-0.16-0.49l-0.13-0.49l-0.13-0.5l-0.09-0.47l-0.09-0.49
			l-0.09-0.49l-0.14-0.94l-0.04-0.47l-0.04-0.46l-0.03-0.46l-0.03-0.44v-0.88l0.03-0.43l0.03-0.41l0.04-0.41l0.04-0.41l0.07-0.38
			l0.07-0.38l0.09-0.38l0.2-0.71l0.13-0.34l0.13-0.34l0.16-0.31l0.07-0.16l0.17,0.01l0.36,0.03l0.71,0.11l0.36,0.09l0.37,0.09
			l0.74,0.23l0.37,0.14l0.38,0.16l0.37,0.17l0.38,0.19l0.37,0.2l0.38,0.21l0.38,0.23l0.37,0.23l0.38,0.26l0.37,0.27l0.38,0.27
			l0.37,0.3l0.37,0.3l0.37,0.31l0.37,0.33l0.36,0.34l0.37,0.36l0.34,0.36l0.36,0.37l0.34,0.38l0.34,0.38l0.34,0.4l0.66,0.83
			l0.31,0.43l0.31,0.43l0.6,0.88l0.28,0.46l0.28,0.46l0.27,0.46l0.27,0.48l0.26,0.47l0.24,0.49l0.24,0.47l0.23,0.49l0.21,0.49
			l0.21,0.49l0.19,0.5l0.2,0.49l0.17,0.49l0.17,0.5l0.16,0.49l0.14,0.49l0.13,0.5l0.13,0.49l0.11,0.49l0.09,0.47l0.09,0.49
			l0.09,0.48l0.06,0.47l0.06,0.47l0.04,0.46l0.03,0.46l0.01,0.44L88.14,134.9z"/>
		<path id="Path_743_00000052065315040610221450000000483711459610193282_" class="st0" d="M87.05,140.03l-0.07,0.16l-0.17,0.3
			l-0.17,0.28l-0.2,0.27l-0.19,0.26l-0.21,0.24l-0.21,0.24L85.6,142l-0.24,0.21l-0.24,0.19l-0.26,0.17l-0.27,0.17l-0.27,0.14
			l-0.28,0.14l-0.28,0.11l-0.3,0.09l-0.3,0.09l-0.31,0.07l-0.31,0.06l-0.33,0.04l-0.33,0.03l-0.34,0.01h-0.34l-0.34-0.03l-0.36-0.03
			l-0.34-0.06l-0.37-0.06l-0.36-0.08l-0.37-0.09l-0.37-0.09l-0.37-0.13l-0.37-0.14l-0.38-0.16l-0.37-0.17l-0.38-0.19l-0.37-0.2
			l-0.38-0.21l-0.38-0.21l-0.37-0.24l-0.38-0.26l-0.37-0.27l-0.38-0.27l-0.37-0.3l-0.37-0.3l-0.37-0.31l-0.37-0.33l-0.71-0.69
			l-0.71-0.74l-0.34-0.37l-0.34-0.4l-0.34-0.4l-0.33-0.4l-0.33-0.43l-0.31-0.41l-0.31-0.44l-0.3-0.43l-0.3-0.46l-0.28-0.44
			l-0.28-0.47l-0.27-0.46l-0.51-0.94l-0.26-0.47l-0.23-0.49l-0.23-0.49L66.03,130l-0.2-0.49l-0.2-0.49l-0.19-0.5l-0.19-0.49
			l-0.17-0.5l-0.16-0.49l-0.14-0.49l-0.13-0.49l-0.13-0.5l-0.11-0.49l-0.09-0.48l-0.09-0.49l-0.07-0.47l-0.07-0.47l-0.06-0.48
			L64,122.27l-0.03-0.46l-0.01-0.44v-0.88l0.01-0.43l0.03-0.41l0.04-0.41l0.06-0.41l0.07-0.38l0.07-0.38l0.09-0.38l0.09-0.36
			l0.11-0.36l0.26-0.69l0.14-0.31l0.16-0.31l0.17-0.3l0.19-0.28l0.19-0.27l0.2-0.26l0.2-0.24l0.23-0.24l0.23-0.21l0.23-0.2l0.26-0.2
			l0.26-0.17l0.26-0.17l0.27-0.14l0.28-0.13l0.28-0.13l0.3-0.09l0.3-0.08l0.31-0.07l0.31-0.06l0.33-0.04l0.33-0.03l0.34-0.01h0.34
			l0.17,0.01L71,112.47l-0.16,0.31l-0.13,0.34l-0.13,0.34l-0.2,0.71l-0.09,0.38l-0.07,0.38l-0.07,0.38l-0.04,0.41l-0.04,0.41
			l-0.03,0.41L70,116.99v0.88l0.03,0.44l0.03,0.46l0.04,0.46l0.04,0.47l0.14,0.94l0.09,0.49l0.09,0.49l0.09,0.47l0.13,0.5l0.13,0.49
			l0.16,0.49l0.16,0.5l0.16,0.49l0.19,0.49l0.19,0.5l0.2,0.49l0.21,0.49l0.21,0.49l0.23,0.49l0.24,0.49l0.24,0.47l0.51,0.94
			l0.28,0.47l0.27,0.46l0.3,0.44l0.28,0.46l0.31,0.43l0.3,0.44l0.33,0.41l0.31,0.43l0.34,0.4l0.33,0.4l0.34,0.4l0.34,0.37l0.36,0.37
			l0.36,0.37l0.36,0.34l0.37,0.34l0.36,0.33l0.37,0.31l0.37,0.3l0.38,0.3l0.37,0.27l0.38,0.27l0.37,0.26l0.38,0.24l0.37,0.21
			l0.38,0.21l0.38,0.2l0.37,0.19l0.38,0.17l0.37,0.16l0.37,0.14l0.37,0.13l0.74,0.2l0.37,0.08l0.36,0.06l0.36,0.06l0.34,0.03
			L87.05,140.03z"/>
	</g>
</g>
<g>
	<g id="_x30_1_00000120561145497682097090000017475620642107061169_">
		<path id="Path_718_00000149369159076179509180000018197079033538697648_" class="st0" d="M197.06,113.94l-48.41,27.95
			l-48.41-27.95l48.41-27.95L197.06,113.94z"/>
		<path id="Path_719_00000109750067102828240970000017523404517359333008_" class="st0" d="M148.66,141.89v55.9l48.41-27.95v-55.9
			L148.66,141.89z"/>
		<path id="Path_717_00000050629396352469146260000013205052892331133870_" class="st0" d="M100.25,113.94v55.9l48.41,27.95v-55.9
			L100.25,113.94z"/>
	</g>
	<g id="_x30_3_00000174596465095521080150000009102867664688042917_">
		<path id="Path_742_00000137830761227377167870000014674565492613864604_" class="st0" d="M136.55,162.84l-0.01,0.44l-0.01,0.43
			l-0.03,0.43l-0.04,0.4l-0.06,0.41l-0.06,0.38l-0.09,0.38l-0.09,0.38l-0.09,0.36l-0.11,0.36l-0.13,0.34l-0.13,0.34l-0.14,0.31
			l-0.09,0.16l-0.17-0.01l-0.34-0.03l-0.36-0.06l-0.36-0.06l-0.37-0.09l-0.74-0.2l-0.37-0.13l-0.37-0.14l-0.37-0.16l-0.38-0.17
			l-0.37-0.19l-0.38-0.2l-0.38-0.21l-0.37-0.21l-0.38-0.24l-0.37-0.26l-0.38-0.27l-0.37-0.27l-0.38-0.3l-0.37-0.3l-0.37-0.31
			l-0.36-0.33l-0.37-0.34l-0.36-0.34l-0.36-0.37l-0.36-0.37l-0.34-0.37l-0.34-0.4l-0.33-0.4l-0.34-0.4l-0.31-0.43l-0.33-0.41
			l-0.3-0.44l-0.31-0.43l-0.28-0.46l-0.3-0.44l-0.27-0.46l-0.28-0.47l-0.51-0.94l-0.24-0.47l-0.24-0.49l-0.23-0.49l-0.21-0.49
			l-0.21-0.49l-0.2-0.49l-0.19-0.5l-0.19-0.49l-0.16-0.49l-0.16-0.5l-0.16-0.49l-0.13-0.49l-0.13-0.5l-0.09-0.47l-0.09-0.49
			l-0.09-0.49l-0.14-0.94l-0.04-0.47l-0.04-0.46l-0.03-0.46l-0.03-0.44v-0.88l0.03-0.43l0.03-0.41l0.04-0.41l0.04-0.41l0.07-0.38
			l0.07-0.38l0.09-0.38l0.2-0.71l0.13-0.34l0.13-0.34l0.16-0.31l0.07-0.16l0.17,0.01l0.36,0.03l0.71,0.11l0.36,0.08l0.37,0.09
			l0.74,0.23l0.37,0.14l0.38,0.16l0.37,0.17l0.38,0.19l0.37,0.2l0.38,0.21l0.38,0.23l0.37,0.23l0.38,0.26l0.37,0.27l0.38,0.27
			l0.37,0.3l0.37,0.3l0.37,0.31l0.37,0.33l0.36,0.34l0.37,0.36l0.34,0.36l0.36,0.37l0.34,0.38l0.34,0.38l0.34,0.4l0.66,0.83
			l0.31,0.43l0.31,0.43l0.6,0.88l0.28,0.46l0.28,0.46l0.27,0.46l0.27,0.48l0.26,0.47l0.24,0.49l0.24,0.47l0.23,0.49l0.21,0.49
			l0.21,0.49l0.19,0.5l0.2,0.49l0.17,0.49l0.17,0.5l0.16,0.49l0.14,0.49l0.13,0.5l0.13,0.49l0.11,0.49l0.09,0.47l0.09,0.49
			l0.09,0.48l0.06,0.47l0.06,0.47l0.04,0.46l0.03,0.46l0.01,0.44L136.55,162.84z"/>
		<path id="Path_743_00000145767082882701823990000011683611885875739579_" class="st0" d="M135.46,167.98l-0.07,0.16l-0.17,0.3
			l-0.17,0.28l-0.2,0.27l-0.19,0.26l-0.21,0.24l-0.21,0.24l-0.23,0.21l-0.24,0.21l-0.24,0.19l-0.26,0.17l-0.27,0.17l-0.27,0.14
			l-0.28,0.14l-0.28,0.11l-0.3,0.09l-0.3,0.08l-0.31,0.07l-0.31,0.06l-0.33,0.04l-0.33,0.03l-0.34,0.01h-0.34l-0.34-0.03l-0.36-0.03
			l-0.34-0.06l-0.37-0.06l-0.36-0.08l-0.37-0.09l-0.37-0.09l-0.37-0.13l-0.37-0.14l-0.38-0.16l-0.37-0.17l-0.38-0.19l-0.37-0.2
			l-0.38-0.21l-0.38-0.21l-0.37-0.24l-0.38-0.26l-0.37-0.27l-0.38-0.27l-0.37-0.3l-0.37-0.3l-0.37-0.31l-0.37-0.33l-0.71-0.69
			l-0.71-0.74l-0.34-0.37l-0.34-0.4l-0.34-0.4l-0.33-0.4l-0.33-0.43l-0.31-0.41l-0.31-0.44l-0.3-0.43l-0.3-0.46l-0.28-0.44
			l-0.28-0.47l-0.27-0.46l-0.51-0.94l-0.26-0.47l-0.23-0.49l-0.23-0.49l-0.23-0.49l-0.2-0.49l-0.2-0.49l-0.19-0.5l-0.19-0.49
			l-0.17-0.5l-0.16-0.49l-0.14-0.49l-0.13-0.49l-0.13-0.5l-0.11-0.49l-0.09-0.48l-0.09-0.49l-0.07-0.47l-0.07-0.47l-0.06-0.48
			l-0.04-0.46l-0.03-0.46l-0.01-0.44v-0.88l0.01-0.43l0.03-0.41l0.04-0.41l0.06-0.41l0.07-0.38l0.07-0.38l0.09-0.38l0.09-0.36
			l0.11-0.36l0.26-0.69l0.14-0.31l0.16-0.31l0.17-0.3l0.19-0.28l0.19-0.27l0.2-0.26l0.2-0.24l0.23-0.24l0.23-0.21l0.23-0.2l0.26-0.2
			l0.26-0.17l0.26-0.17l0.27-0.14l0.28-0.13l0.28-0.13l0.3-0.09l0.3-0.08l0.31-0.07l0.31-0.06l0.33-0.04l0.33-0.03l0.34-0.01h0.34
			l0.17,0.01l-0.07,0.16l-0.16,0.31l-0.13,0.34l-0.13,0.34l-0.2,0.71l-0.09,0.38l-0.07,0.38l-0.07,0.38l-0.04,0.41l-0.04,0.41
			l-0.03,0.41l-0.03,0.43v0.88l0.03,0.44l0.03,0.46l0.04,0.46l0.04,0.47l0.14,0.94l0.09,0.49l0.09,0.49l0.09,0.47l0.13,0.5
			l0.13,0.49l0.16,0.49l0.16,0.5l0.16,0.49l0.19,0.49l0.19,0.5l0.2,0.49l0.21,0.49l0.21,0.49l0.23,0.49l0.24,0.49l0.24,0.47
			l0.51,0.94l0.28,0.47l0.27,0.46l0.3,0.44l0.28,0.46l0.31,0.43l0.3,0.44l0.33,0.41l0.31,0.43l0.34,0.4l0.33,0.4l0.34,0.4l0.34,0.37
			l0.36,0.37l0.36,0.37l0.36,0.34l0.37,0.34l0.36,0.33l0.37,0.31l0.37,0.3l0.38,0.3l0.37,0.27l0.38,0.27l0.37,0.26l0.38,0.24
			l0.37,0.21l0.38,0.21l0.38,0.2l0.37,0.19l0.38,0.17l0.37,0.16l0.37,0.14l0.37,0.13l0.74,0.2l0.37,0.08l0.36,0.06l0.36,0.06
			l0.34,0.03L135.46,167.98z"/>
	</g>
	<path id="Path_732_00000091729070206264758460000017836111224234175618_" class="st0" d="M187.78,144.8l-0.27-0.15l-0.28-0.13
		l-0.28-0.12l-0.3-0.1l-0.3-0.09l-0.31-0.07l-0.32-0.06l-0.33-0.04l-0.33-0.03l-0.33-0.01l-0.34,0.01l-0.35,0.02l-0.35,0.03
		l-0.35,0.05l-0.36,0.07l-0.36,0.08l-0.36,0.09l-0.37,0.12l-0.37,0.13l-0.38,0.14l-0.38,0.16l-0.38,0.17l-0.38,0.18l-0.38,0.2
		l-0.38,0.21l-0.38,0.23l-0.38,0.24l-0.38,0.26l-0.38,0.26l-0.38,0.28l-0.38,0.28l-0.37,0.3l-0.37,0.32l-0.36,0.33l-0.36,0.34
		l-0.36,0.35l-0.36,0.36l-0.35,0.37l-0.35,0.38l-0.34,0.39l-0.33,0.4l-0.33,0.41l-0.33,0.42L172.4,152l-0.31,0.43l-0.3,0.44
		l-0.3,0.44l-0.28,0.45l-0.28,0.46l-0.27,0.47l-0.26,0.48l-0.26,0.48l-0.25,0.48l-0.24,0.49l-0.23,0.48l-0.22,0.49l-0.21,0.49
		l-0.2,0.49l-0.19,0.49l-0.18,0.49l-0.16,0.49l-0.16,0.49l-0.14,0.49l-0.14,0.49l-0.12,0.49l-0.11,0.49l-0.1,0.48l-0.09,0.48
		l-0.08,0.48l-0.06,0.48l-0.05,0.47l-0.04,0.47l-0.03,0.45l-0.01,0.45l-0.01,0.44l0.01,0.43l0.01,0.43l0.03,0.42l0.04,0.41l0.05,0.4
		l0.06,0.4l0.08,0.38l0.09,0.38l0.1,0.36l0.11,0.36l0.12,0.34l0.14,0.33l0.14,0.32l0.16,0.31l0.16,0.3l0.18,0.28l0.19,0.27l0.2,0.26
		l0.21,0.24l0.22,0.24l0.23,0.22l0.24,0.21l0.25,0.19l0.26,0.18l0.26,0.17l-6.05-3.5l-0.27-0.16l-0.26-0.18l-0.24-0.2l-0.24-0.2
		l-0.22-0.22l-0.22-0.23l-0.21-0.25l-0.2-0.26l-0.19-0.27l-0.18-0.28l-0.17-0.3l-0.15-0.31l-0.14-0.32l-0.14-0.34l-0.13-0.34
		l-0.11-0.35l-0.1-0.37l-0.09-0.38l-0.08-0.38l-0.06-0.39l-0.05-0.4l-0.05-0.41l-0.03-0.42l-0.02-0.42l-0.01-0.44l0.01-0.44
		l0.02-0.44l0.03-0.46l0.05-0.46l0.05-0.47l0.06-0.48l0.08-0.48l0.09-0.48l0.1-0.49l0.11-0.49l0.13-0.49l0.14-0.49l0.14-0.49
		l0.15-0.49l0.17-0.49l0.18-0.49l0.19-0.49l0.2-0.49l0.21-0.49l0.22-0.49l0.22-0.49l0.24-0.48l0.24-0.48l0.26-0.48l0.27-0.48
		l0.27-0.46l0.28-0.46l0.28-0.45l0.3-0.44l0.3-0.44l0.31-0.43l0.32-0.42l0.32-0.42l0.33-0.4l0.34-0.4l0.69-0.77l0.36-0.37l0.35-0.36
		l0.36-0.35l0.36-0.34l0.36-0.32l0.37-0.32l0.37-0.3l0.38-0.3l0.38-0.28l0.38-0.27l0.38-0.25l0.38-0.24l0.38-0.22l0.38-0.22
		l0.38-0.2l0.38-0.19l0.38-0.17l0.38-0.15l0.37-0.14l0.38-0.13l0.37-0.11l0.36-0.09l0.36-0.08l0.36-0.07l0.36-0.05l0.35-0.03
		l0.35-0.02h0.34l0.34,0.01l0.33,0.03l0.32,0.05l0.32,0.05l0.31,0.07l0.3,0.09l0.3,0.1l0.28,0.12l0.28,0.14l0.27,0.15L187.78,144.8z
		"/>
	<path id="Path_733_00000083807643718649351050000001321369390573010822_" class="st0" d="M191.33,152.65l-0.01,0.44l-0.01,0.45
		l-0.03,0.45l-0.04,0.46l-0.05,0.48l-0.06,0.47l-0.08,0.48l-0.09,0.48l-0.1,0.48l-0.11,0.49l-0.12,0.49l-0.14,0.49l-0.14,0.49
		l-0.32,0.98l-0.18,0.49l-0.19,0.49l-0.2,0.49l-0.21,0.49l-0.22,0.49l-0.23,0.48l-0.24,0.48l-0.25,0.48l-0.25,0.48l-0.27,0.48
		l-0.27,0.47l-0.28,0.45l-0.28,0.46l-0.3,0.44l-0.3,0.44l-0.31,0.43l-0.32,0.42l-0.33,0.42l-0.33,0.4l-0.33,0.4l-0.34,0.39
		l-0.35,0.38l-0.35,0.37l-0.35,0.36l-0.36,0.35l-0.36,0.34l-0.36,0.33l-0.37,0.31l-0.37,0.31l-0.38,0.28l-0.38,0.28l-0.38,0.27
		l-0.38,0.25l-0.38,0.24l-0.38,0.23l-0.38,0.21l-0.38,0.2l-0.38,0.18l-0.38,0.17l-0.38,0.15l-0.38,0.14l-0.37,0.13l-0.37,0.11
		l-0.36,0.1l-0.36,0.08l-0.36,0.06l-0.36,0.05l-0.35,0.03l-0.35,0.02h-0.34l-0.33-0.01l-0.33-0.03l-0.33-0.04l-0.32-0.06l-0.31-0.07
		l-0.3-0.09l-0.3-0.1l-0.28-0.12l-0.28-0.14l-0.27-0.14l-0.26-0.17l-0.26-0.18l-0.25-0.19l-0.24-0.21l-0.23-0.22l-0.22-0.24
		l-0.21-0.24l-0.2-0.26l-0.19-0.27l-0.18-0.28l-0.16-0.3l-0.16-0.31l-0.14-0.32l-0.14-0.33l-0.12-0.34l-0.11-0.36l-0.1-0.36
		l-0.09-0.38l-0.08-0.38l-0.06-0.4l-0.05-0.4l-0.04-0.41l-0.03-0.42l-0.01-0.43l-0.01-0.43l0.01-0.44l0.01-0.45l0.03-0.45l0.04-0.47
		l0.05-0.47l0.06-0.48l0.08-0.48l0.09-0.48l0.1-0.48l0.11-0.49l0.12-0.49l0.14-0.49l0.14-0.49l0.16-0.49l0.16-0.49l0.18-0.49
		l0.19-0.49l0.2-0.49l0.21-0.49l0.22-0.49l0.23-0.48l0.24-0.49l0.25-0.48l0.26-0.48l0.26-0.48l0.27-0.47l0.28-0.46l0.28-0.45
		l0.3-0.44l0.3-0.44l0.31-0.43l0.32-0.42l0.33-0.42l0.33-0.41l0.33-0.4l0.34-0.39l0.35-0.38l0.35-0.37l0.36-0.36l0.36-0.35
		l0.36-0.34l0.36-0.33l0.37-0.32l0.37-0.3l0.38-0.28l0.38-0.28l0.38-0.26l0.38-0.26l0.38-0.24l0.38-0.23l0.38-0.21l0.38-0.2
		l0.38-0.18l0.38-0.17l0.38-0.16l0.38-0.14l0.37-0.13l0.37-0.12l0.36-0.09l0.36-0.08l0.36-0.07l0.35-0.05l0.35-0.03l0.35-0.02
		l0.34-0.01l0.33,0.01l0.33,0.03l0.33,0.04l0.32,0.06l0.31,0.07l0.3,0.09l0.3,0.1l0.28,0.12l0.28,0.13l0.27,0.15l0.27,0.16
		l0.25,0.18l0.25,0.19l0.24,0.21l0.23,0.22l0.22,0.24l0.21,0.24l0.2,0.26l0.19,0.27l0.18,0.28l0.16,0.3l0.16,0.31l0.14,0.32
		l0.14,0.33l0.12,0.34l0.11,0.36l0.1,0.36l0.09,0.38l0.08,0.38l0.06,0.4l0.05,0.4l0.04,0.42l0.03,0.42l0.01,0.43L191.33,152.65z"/>
</g>
<g>
	<g id="_x30_1_00000134226831040528219740000010070479261501619868_">
		<path id="Path_718_00000157269404876157771290000014606118446606449307_" class="st0" d="M148.66,30.1l-48.41,27.95L51.84,30.1
			l48.41-27.95L148.66,30.1z"/>
		<path id="Path_719_00000114762752013590537400000012378694166665913251_" class="st0" d="M100.25,58.05v55.9L148.66,86V30.1
			L100.25,58.05z"/>
		<path id="Path_717_00000072265545946204368750000005649842276276043947_" class="st0" d="M51.85,30.1V86l48.41,27.95v-55.9
			L51.85,30.1z"/>
	</g>
	<g id="_x30_3_00000045582926078524728860000001030121619557932453_">
		<path id="Path_742_00000006691113124947588360000011935714212528065203_" class="st0" d="M88.14,79l-0.01,0.44l-0.01,0.43
			l-0.03,0.43l-0.04,0.4l-0.06,0.41l-0.06,0.38l-0.09,0.38l-0.09,0.38l-0.09,0.36l-0.11,0.36l-0.13,0.34l-0.13,0.34l-0.14,0.31
			l-0.09,0.16l-0.17-0.01l-0.34-0.03l-0.36-0.06l-0.36-0.06l-0.37-0.09l-0.74-0.2l-0.37-0.13l-0.37-0.14l-0.37-0.16l-0.38-0.17
			l-0.37-0.19l-0.38-0.2l-0.38-0.21l-0.37-0.21l-0.38-0.24l-0.37-0.26l-0.38-0.27l-0.37-0.27l-0.38-0.3l-0.37-0.3l-0.37-0.31
			l-0.36-0.33l-0.37-0.34l-0.36-0.34l-0.36-0.37l-0.36-0.37l-0.34-0.37l-0.34-0.4l-0.33-0.4l-0.34-0.4l-0.31-0.43l-0.33-0.41
			L75,75.7l-0.31-0.43l-0.28-0.46l-0.3-0.44l-0.27-0.46l-0.28-0.47l-0.51-0.94l-0.24-0.47l-0.24-0.49l-0.23-0.49l-0.21-0.49
			l-0.21-0.49l-0.2-0.49l-0.19-0.5l-0.19-0.49l-0.16-0.49l-0.16-0.5l-0.16-0.49l-0.13-0.49l-0.13-0.5L70.5,65.7l-0.09-0.49
			l-0.09-0.49l-0.14-0.94l-0.04-0.47l-0.04-0.46l-0.03-0.46l-0.03-0.44v-0.88l0.03-0.43l0.03-0.41l0.04-0.41l0.04-0.41l0.07-0.38
			l0.07-0.38l0.09-0.38l0.2-0.71l0.13-0.34l0.13-0.34l0.16-0.31l0.07-0.16l0.17,0.01l0.36,0.03l0.71,0.11l0.36,0.08l0.37,0.09
			l0.74,0.23l0.37,0.14l0.38,0.16l0.37,0.17l0.38,0.19l0.37,0.2l0.38,0.21l0.38,0.23l0.37,0.23l0.38,0.26l0.37,0.27l0.38,0.27
			l0.37,0.3l0.37,0.3l0.37,0.31l0.37,0.33l0.36,0.34l0.37,0.36l0.34,0.36l0.36,0.37l0.34,0.38l0.34,0.38l0.34,0.4l0.66,0.83
			l0.31,0.43l0.31,0.43l0.6,0.88l0.28,0.46l0.28,0.46l0.27,0.46l0.27,0.48L85.13,68l0.24,0.49l0.24,0.47l0.23,0.49l0.21,0.49
			l0.21,0.49l0.19,0.5l0.2,0.49l0.17,0.49l0.17,0.5l0.16,0.49l0.14,0.49l0.13,0.5l0.13,0.49l0.11,0.49l0.09,0.47l0.09,0.49
			l0.09,0.48l0.06,0.47l0.06,0.47l0.04,0.46l0.03,0.46l0.01,0.44L88.14,79z"/>
		<path id="Path_743_00000132046939686617223220000005289955270322411918_" class="st0" d="M87.05,84.14l-0.07,0.16l-0.17,0.3
			l-0.17,0.28l-0.2,0.27l-0.19,0.26l-0.21,0.24l-0.21,0.24l-0.23,0.21l-0.24,0.21l-0.24,0.19l-0.26,0.17l-0.27,0.17l-0.27,0.14
			l-0.28,0.14l-0.28,0.11l-0.3,0.09l-0.3,0.08l-0.31,0.07l-0.31,0.06l-0.33,0.04l-0.33,0.03l-0.34,0.01h-0.34l-0.34-0.03l-0.36-0.03
			l-0.34-0.06l-0.37-0.06l-0.36-0.09l-0.37-0.09l-0.37-0.09l-0.37-0.13l-0.37-0.14l-0.38-0.16l-0.37-0.17l-0.38-0.19l-0.37-0.2
			L76.04,86l-0.38-0.21l-0.37-0.24l-0.38-0.26l-0.37-0.27l-0.38-0.27l-0.37-0.3l-0.37-0.3l-0.37-0.31l-0.37-0.33l-0.71-0.69
			l-0.71-0.74L70.9,81.7l-0.34-0.4l-0.34-0.4l-0.33-0.4l-0.33-0.43l-0.31-0.41l-0.31-0.44l-0.3-0.43l-0.3-0.46l-0.28-0.44
			l-0.28-0.47l-0.27-0.46l-0.51-0.94l-0.26-0.47l-0.23-0.49l-0.23-0.49l-0.23-0.49l-0.2-0.49l-0.2-0.49l-0.19-0.5l-0.19-0.49
			l-0.17-0.5l-0.16-0.49l-0.14-0.49l-0.13-0.49l-0.13-0.5l-0.11-0.49l-0.09-0.48l-0.09-0.49l-0.07-0.47L64.1,67.3l-0.06-0.48
			L64,66.37l-0.03-0.46l-0.01-0.44v-0.88l0.01-0.43L64,63.75l0.04-0.41l0.06-0.41l0.07-0.39l0.07-0.38l0.09-0.38l0.09-0.36
			l0.11-0.36l0.26-0.69l0.14-0.31l0.16-0.31l0.17-0.3l0.19-0.28l0.19-0.27l0.2-0.26l0.2-0.24l0.23-0.24l0.23-0.21l0.23-0.2l0.26-0.2
			l0.26-0.17l0.26-0.17l0.27-0.14l0.28-0.13l0.28-0.13l0.3-0.09l0.3-0.08l0.31-0.07l0.31-0.06l0.33-0.04l0.33-0.03l0.34-0.01h0.34
			l0.17,0.01L71,56.57l-0.16,0.31l-0.13,0.34l-0.13,0.34l-0.2,0.71l-0.09,0.38l-0.07,0.38l-0.07,0.38l-0.04,0.41l-0.04,0.41
			l-0.03,0.41L70,61.09v0.88l0.03,0.44l0.03,0.46l0.04,0.46l0.04,0.47l0.14,0.94l0.09,0.49l0.09,0.49l0.09,0.47l0.13,0.5l0.13,0.49
			l0.16,0.49l0.16,0.5l0.16,0.49l0.19,0.49l0.19,0.5l0.2,0.49l0.21,0.49l0.21,0.49l0.23,0.49l0.24,0.49l0.24,0.47l0.51,0.94
			l0.28,0.47l0.27,0.46l0.3,0.44l0.28,0.46l0.31,0.43l0.3,0.44l0.33,0.41L75.92,77l0.34,0.4l0.33,0.4l0.34,0.4l0.34,0.37l0.36,0.37
			l0.36,0.37l0.36,0.34l0.37,0.34l0.36,0.33l0.37,0.31l0.37,0.3l0.38,0.3l0.37,0.27l0.38,0.27l0.37,0.26l0.38,0.24l0.37,0.21
			l0.38,0.21l0.38,0.2l0.37,0.19l0.38,0.17l0.37,0.16l0.37,0.14l0.37,0.13l0.74,0.2l0.37,0.08l0.36,0.06l0.36,0.06l0.34,0.03
			L87.05,84.14z"/>
	</g>
	<path id="Path_732_00000093143876278987728700000015931231608460541116_" class="st0" d="M139.37,60.96l-0.27-0.15l-0.28-0.13
		l-0.28-0.12l-0.3-0.1l-0.3-0.09l-0.31-0.07l-0.32-0.06l-0.33-0.04l-0.33-0.03l-0.33-0.01l-0.34,0.01l-0.35,0.02l-0.35,0.03
		l-0.35,0.05l-0.36,0.07l-0.36,0.08l-0.36,0.09l-0.37,0.12l-0.37,0.13l-0.38,0.14l-0.38,0.16l-0.38,0.17l-0.38,0.18l-0.38,0.2
		l-0.38,0.21l-0.38,0.23l-0.38,0.24l-0.38,0.26l-0.38,0.26l-0.38,0.28l-0.38,0.28l-0.37,0.3l-0.37,0.32l-0.36,0.33l-0.36,0.34
		L126.7,65l-0.36,0.36l-0.35,0.37l-0.35,0.38l-0.34,0.39l-0.33,0.4l-0.33,0.41l-0.33,0.42l-0.32,0.42l-0.31,0.43l-0.3,0.44
		l-0.3,0.44l-0.28,0.45l-0.28,0.46l-0.27,0.47l-0.26,0.48l-0.26,0.48l-0.25,0.48l-0.24,0.49l-0.23,0.48l-0.22,0.49l-0.21,0.49
		l-0.2,0.49l-0.19,0.49l-0.18,0.49l-0.16,0.49l-0.16,0.49l-0.14,0.49l-0.14,0.49l-0.12,0.49l-0.11,0.49l-0.1,0.48l-0.09,0.48
		l-0.08,0.48l-0.06,0.48l-0.05,0.47l-0.04,0.47l-0.03,0.45l-0.01,0.45l-0.01,0.44l0.01,0.43l0.01,0.43l0.03,0.42l0.04,0.41l0.05,0.4
		l0.06,0.4l0.08,0.38l0.09,0.38l0.1,0.36l0.11,0.36l0.12,0.34l0.14,0.33l0.14,0.32l0.16,0.31l0.16,0.3l0.18,0.28l0.19,0.27l0.2,0.26
		l0.21,0.24l0.22,0.24l0.23,0.22l0.24,0.21l0.25,0.19l0.26,0.18l0.26,0.17l-6.05-3.5l-0.27-0.16l-0.26-0.18l-0.24-0.2l-0.24-0.2
		l-0.22-0.22l-0.22-0.23l-0.21-0.25l-0.2-0.26l-0.19-0.27l-0.18-0.28l-0.17-0.3l-0.15-0.31l-0.14-0.32l-0.14-0.34l-0.13-0.34
		l-0.11-0.35l-0.1-0.37l-0.09-0.38l-0.08-0.38l-0.06-0.39l-0.05-0.4l-0.05-0.41l-0.03-0.42l-0.02-0.42l-0.01-0.44l0.01-0.44
		l0.02-0.44l0.03-0.46l0.05-0.46l0.05-0.47l0.06-0.48l0.08-0.48l0.09-0.48l0.1-0.49l0.11-0.49l0.13-0.49l0.14-0.49l0.14-0.49
		l0.15-0.49l0.17-0.49l0.18-0.49l0.19-0.49l0.2-0.49l0.21-0.49l0.22-0.49l0.22-0.49l0.24-0.48l0.24-0.48l0.26-0.48l0.27-0.48
		l0.27-0.46l0.28-0.46l0.28-0.45l0.3-0.44l0.3-0.44l0.31-0.43l0.32-0.42l0.32-0.42l0.33-0.4l0.34-0.4l0.69-0.77l0.36-0.37l0.35-0.36
		l0.36-0.35l0.36-0.34l0.36-0.32l0.37-0.32l0.37-0.3l0.38-0.3l0.38-0.28l0.38-0.27l0.38-0.25l0.38-0.24l0.38-0.22l0.38-0.22
		l0.38-0.2l0.38-0.19l0.38-0.17l0.38-0.15l0.37-0.14l0.38-0.13l0.37-0.11l0.36-0.09l0.36-0.08l0.36-0.07l0.36-0.05l0.35-0.03
		l0.35-0.02h0.34l0.34,0.01l0.33,0.03l0.32,0.05l0.32,0.05l0.31,0.07l0.3,0.09l0.3,0.1l0.28,0.12l0.28,0.14l0.27,0.15L139.37,60.96z
		"/>
	<path id="Path_733_00000125582152220864813850000002447953056684515509_" class="st0" d="M142.92,68.81l-0.01,0.44l-0.01,0.45
		l-0.03,0.45l-0.04,0.46l-0.05,0.48l-0.06,0.47l-0.08,0.48l-0.09,0.48l-0.1,0.48l-0.11,0.49l-0.12,0.49l-0.14,0.49l-0.14,0.49
		l-0.32,0.98l-0.18,0.49l-0.19,0.49l-0.2,0.49l-0.21,0.49l-0.22,0.49l-0.23,0.48l-0.24,0.48l-0.25,0.48l-0.25,0.48l-0.27,0.48
		l-0.27,0.47l-0.28,0.45l-0.28,0.46l-0.3,0.44l-0.3,0.44l-0.31,0.43l-0.32,0.42l-0.33,0.42l-0.33,0.4l-0.33,0.4l-0.34,0.39
		l-0.35,0.38l-0.35,0.37l-0.35,0.36l-0.36,0.35l-0.36,0.34l-0.36,0.33l-0.37,0.31l-0.37,0.31l-0.38,0.28l-0.38,0.28l-0.38,0.27
		l-0.38,0.25l-0.38,0.24l-0.38,0.23l-0.38,0.21l-0.38,0.2l-0.38,0.18l-0.38,0.17l-0.38,0.15l-0.38,0.14l-0.37,0.13l-0.37,0.11
		l-0.36,0.1l-0.36,0.08l-0.36,0.06l-0.36,0.05l-0.35,0.03l-0.35,0.02h-0.34l-0.33-0.01l-0.33-0.03l-0.33-0.04l-0.32-0.06l-0.31-0.07
		l-0.3-0.09l-0.3-0.1l-0.28-0.12l-0.28-0.14l-0.27-0.14l-0.26-0.17l-0.26-0.18l-0.25-0.19l-0.24-0.21l-0.23-0.22l-0.22-0.24
		l-0.21-0.24l-0.2-0.26l-0.19-0.27l-0.18-0.28l-0.16-0.3l-0.16-0.31l-0.14-0.32l-0.14-0.33l-0.12-0.34l-0.11-0.36l-0.1-0.36
		l-0.09-0.38l-0.08-0.38l-0.06-0.4l-0.05-0.4l-0.04-0.41l-0.03-0.42l-0.01-0.43l-0.01-0.43l0.01-0.44l0.01-0.45l0.03-0.45l0.04-0.47
		l0.05-0.47l0.06-0.48l0.08-0.48l0.09-0.48l0.1-0.48l0.11-0.49l0.12-0.49l0.14-0.49l0.14-0.49l0.16-0.49l0.16-0.49l0.18-0.49
		l0.19-0.49l0.2-0.49l0.21-0.49l0.22-0.49l0.23-0.48l0.24-0.49l0.25-0.48l0.26-0.48l0.26-0.48l0.27-0.47l0.28-0.46l0.28-0.45
		l0.3-0.44l0.3-0.44l0.31-0.43l0.32-0.42l0.33-0.42l0.33-0.41l0.33-0.4l0.34-0.39l0.35-0.38l0.35-0.37L126.7,65l0.36-0.35l0.36-0.34
		l0.36-0.33l0.37-0.32l0.37-0.3l0.38-0.28l0.38-0.28l0.38-0.26l0.38-0.26l0.38-0.24l0.38-0.23l0.38-0.21l0.38-0.2l0.38-0.18
		l0.38-0.17l0.38-0.16l0.38-0.14l0.37-0.13l0.37-0.12l0.36-0.09l0.36-0.08l0.36-0.07l0.35-0.05l0.35-0.03l0.35-0.02l0.34-0.01
		l0.33,0.01l0.33,0.03l0.33,0.04l0.32,0.06l0.31,0.07l0.3,0.09l0.3,0.1l0.28,0.12l0.28,0.13l0.27,0.15l0.27,0.16l0.25,0.18
		l0.25,0.19l0.24,0.21l0.23,0.22l0.22,0.24l0.21,0.24l0.2,0.26l0.19,0.27l0.18,0.28l0.16,0.3l0.16,0.31l0.14,0.32l0.14,0.33
		l0.12,0.34l0.11,0.36l0.1,0.36l0.09,0.38l0.08,0.38l0.06,0.4l0.05,0.4l0.04,0.42l0.03,0.42l0.01,0.43L142.92,68.81z"/>
</g>
</svg>
