<svg xmlns="http://www.w3.org/2000/svg" xmlns:xlink="http://www.w3.org/1999/xlink" width="199" height="46" viewBox="0 0 199 46">
  <defs>
    <clipPath id="clip-Olous_logo">
      <rect width="199" height="46"/>
    </clipPath>
  </defs>
  <g id="Olous_logo" clip-path="url(#clip-Olous_logo)">
    <g id="Group_10722" data-name="Group 10722" transform="translate(20234 1528)">
      <path id="Path_10901" data-name="Path 10901" d="M31.571,39.792H7.727A7.735,7.735,0,0,1,0,32.066V7.726A7.735,7.735,0,0,1,7.727,0H31.571A7.735,7.735,0,0,1,39.3,7.726v24.34a7.735,7.735,0,0,1-7.726,7.726" transform="translate(-20231.002 -1525)" fill="#fff"/>
      <g id="Group_10548" data-name="Group 10548" transform="translate(-20182.875 -1525)">
        <path id="Path_10902" data-name="Path 10902" d="M42.368.857c11.475,0,19.377,8.478,19.377,19.895s-7.9,19.9-19.377,19.9-19.377-8.476-19.377-19.9S30.893.857,42.368.857m0,5.133c-8.246,0-13.438,6.286-13.438,14.762,0,8.422,5.191,14.765,13.438,14.765,8.131,0,13.438-6.342,13.438-14.765,0-8.476-5.306-14.762-13.438-14.762" transform="translate(-22.991 -0.857)" fill="#fff"/>
        <rect id="Rectangle_11679" data-name="Rectangle 11679" width="5.191" height="38.465" transform="translate(45.618 0.635)" fill="#fff"/>
        <path id="Path_10903" data-name="Path 10903" d="M47.438,19.948c0-8.014,5.423-14.589,14.071-14.589,8.711,0,14.073,6.575,14.073,14.589,0,8.073-5.362,14.647-14.073,14.647-8.647,0-14.071-6.575-14.071-14.647m22.723,0c0-5.247-3.058-9.977-8.652-9.977-5.534,0-8.647,4.729-8.647,9.977,0,5.306,3.114,10.035,8.647,10.035,5.595,0,8.652-4.729,8.652-10.035" transform="translate(9.883 5.197)" fill="#fff"/>
        <path id="Path_10904" data-name="Path 10904" d="M81.045,33.507V29.7a13.762,13.762,0,0,1-9.918,4.5c-5.942,0-8.882-3-8.882-8.879V5.654h5.191V23.589c0,4.612,2.307,6,5.883,6a10.068,10.068,0,0,0,7.726-3.923V5.654h5.191V33.507Z" transform="translate(29.794 5.594)" fill="#fff"/>
        <path id="Path_10905" data-name="Path 10905" d="M77.442,26.464a13.493,13.493,0,0,0,9.344,3.979c3.92,0,6-1.613,6-3.979,0-2.767-3.172-3.691-6.748-4.5C81.306,20.869,75.77,19.6,75.77,13.6c0-4.439,3.805-8.244,10.612-8.244a14.9,14.9,0,0,1,10.61,3.979L94.685,12.97a10.846,10.846,0,0,0-8.246-3.4c-3.517,0-5.709,1.383-5.709,3.632,0,2.424,3,3.231,6.46,4.038,4.842,1.095,10.61,2.422,10.61,8.823,0,4.786-3.92,8.535-11.243,8.535-4.673,0-8.767-1.442-11.595-4.324Z" transform="translate(46.893 5.197)" fill="#fff"/>
      </g>
      <path id="Path_10906" data-name="Path 10906" d="M24.977,21.23l-.015-.37-.023-.373-.036-.375-.042-.381-.054-.381-.061-.385-.073-.387-.08-.389L24.5,17.8l-.1-.391-.109-.394-.117-.391-.123-.394-.134-.394-.142-.394-.151-.391-.159-.389-.165-.389-.174-.387-.182-.385-.19-.383-.195-.379-.205-.377-.209-.373-.218-.371-.224-.364-.23-.36-.237-.354L21,10.188l-.247-.343L20.5,9.506l-.26-.333-.264-.327-.268-.32-.272-.312-.278-.3-.28-.3-.287-.289-.289-.28-.291-.274-.3-.264-.3-.255L17.113,6l-.3-.237L16.5,5.537l-.31-.218-.31-.207-.31-.2-.314-.186-.314-.176-.314-.165-.316-.153L14,4.093l-.316-.132-.316-.119-.316-.107-.316-.1-.314-.084-.314-.069L11.8,3.427l-.312-.044-.31-.031-.308-.019-.329,0-.28.008-.3.023-.3.038-.293.052-.289.065L8.8,3.6l-.276.094L8.25,3.8l-.264.124-.257.138-.249.151-.243.165L7,4.56l-.224.19-.214.2-.2.216L6.17,5.4l-.182.239-.174.247-.161.257L5.5,6.406l-.14.274-.13.287-.117.293L5,7.559l-.1.308-.088.316-.075.32-.067.329-.057.335-.044.339-.036.345-.027.352-.015.356,0,.375,0,.352.015.368.023.373.033.377.044.379.052.383.063.383.071.387.082.389.09.391.1.391.107.391.117.394.126.391.134.394.142.394.151.391L6,17.852l.167.389.174.387.182.385.188.383.2.379.2.377.211.373.218.37.224.364.23.36.237.356.243.35.247.343.253.339.26.333.262.327.27.32.272.312.278.306.28.3.287.289.289.28.291.274.3.264.3.255.3.247.3.237.306.226.31.218.308.207.312.2.314.188.312.176.316.163.314.155.316.142.316.132.316.119.316.107.314.1.316.082.314.071.312.057.312.046.31.031.308.019.329,0,.278-.01.3-.023.3-.038.293-.05L20.389,29l.285-.08.276-.1.272-.109.264-.124.257-.138.251-.151.241-.165.234-.178.222-.193.214-.2.205-.216.193-.226.184-.237.172-.249.163-.257.151-.266.14-.276.13-.285.119-.293.109-.3.1-.31.088-.314.075-.322.067-.329.054-.333.046-.341.036-.345.025-.352.017-.356,0-.375ZM12.167,5.609l.247.073.251.084.253.1.257.107.26.115.262.128.262.138.266.149.266.159.266.167L15.024,7l.268.188.266.2.268.207.266.218.264.226.264.234.26.243.26.251.255.262.255.266.249.276.247.283.243.289.241.3.234.3.23.308.226.314.222.318.216.324.209.329.205.333.2.337.19.339.186.343.18.347.174.347.165.352.159.352.151.354.144.356.136.356.13.354.119.356.113.354.107.354.1.352.088.35.08.347.073.345.063.343.054.337.048.335.038.331.029.324.021.322.013.316,0,.308,0,.3-.013.3-.021.291-.027.283-.038.276-.044.266-.052.26-.059.251-.067.243-.073.234-.036.1-.1-.019-.239-.052-.243-.065-.247-.073-.251-.086-.253-.094-.257-.107-.26-.117-.262-.126-.264-.138-.264-.149-.266-.159-.268-.167-.266-.178-.268-.19-.268-.2-.266-.207-.266-.218-.264-.226-.264-.234-.26-.243-.26-.251-.255-.262-.255-.268-.249-.274L15.939,20l-.243-.289-.241-.3-.234-.3-.23-.31-.226-.312-.222-.32-.216-.324-.209-.329-.205-.333-.2-.337-.193-.341-.184-.343-.18-.345-.174-.35-.165-.35-.159-.354-.151-.354-.144-.354-.136-.356-.13-.356-.121-.354-.113-.354-.1-.354-.1-.352-.088-.35-.082-.35-.071-.343-.063-.343-.057-.339-.046-.333-.038-.331-.029-.327-.021-.32-.013-.316,0-.308,0-.3.013-.3.021-.291.027-.283.038-.276.044-.266.052-.26.059-.251.067-.243.073-.234.036-.1.1.019.239.052Zm9.026,20.744-.144.111-.149.1-.155.094-.159.086-.163.077-.17.069-.174.061-.18.052-.186.044-.193.036-.2.025-.2.017-.207.006-.216,0-.218-.013-.226-.021-.23-.033-.234-.042-.239-.054-.243-.063-.247-.075-.251-.084-.253-.1-.257-.107-.26-.115-.262-.128-.262-.138-.266-.149-.266-.157-.268-.17-.266-.178-.268-.188-.268-.2-.266-.207-.266-.218-.264-.226-.264-.232L12.594,24l-.257-.251-.257-.26-.253-.268-.249-.274-.247-.283-.245-.289-.239-.3-.234-.3-.232-.308-.224-.314-.222-.318-.216-.324-.209-.329L9.3,19.847l-.2-.337-.193-.341-.186-.343-.18-.345-.172-.35-.165-.35-.159-.354L7.9,17.073l-.144-.354-.136-.356-.128-.356-.121-.354L7.254,15.3l-.1-.352-.1-.352-.09-.352-.08-.347-.071-.345-.065-.341-.054-.339-.046-.333-.038-.331L6.58,11.88l-.023-.32-.01-.316-.006-.31.006-.3.01-.3.021-.289.029-.285.036-.274.046-.268.05-.26L6.8,8.706l.065-.243.075-.232.08-.226.088-.214L7.2,7.585l.1-.195L7.4,7.2l.111-.178.115-.167L7.75,6.7l.126-.149.132-.14.134-.13.14-.119.144-.113.151-.1.153-.1.159-.086.165-.077.167-.069L9.4,5.558l.023-.006-.069.291-.065.329L9.23,6.5l-.046.341-.036.345-.025.352L9.109,7.9,9.1,8.273l0,.35.015.37.025.373.033.375.044.381.052.381.063.385.071.387.08.389.09.389.1.391.107.394.117.394.126.391.132.394.142.394.151.391.159.389.165.389.176.387.18.385.19.383.2.379.2.377.211.373.218.368.224.366.23.36.237.356.241.35.249.343.253.339.257.333.264.327.268.32.274.312.276.3.283.3.285.289.289.28.293.274.3.264.3.255.3.247.3.237.306.228.308.218.31.207.312.2.312.186.314.176.314.165.316.153.316.144.316.13.316.119.314.107.316.1,0,0-.017.017Z" transform="translate(-20225.816 -1521.071)" fill="#050605"/>
    </g>
  </g>
</svg>
