<svg xmlns="http://www.w3.org/2000/svg" xmlns:xlink="http://www.w3.org/1999/xlink" width="44" height="37" viewBox="0 0 44 37">
  <defs>
    <clipPath id="clip-Education">
      <rect width="44" height="37"/>
    </clipPath>
  </defs>
  <g id="Education" clip-path="url(#clip-Education)">
    <g id="Group_18605" data-name="Group 18605" transform="translate(1 -9.067)">
      <path id="Path_18353" data-name="Path 18353" d="M4.14,15.292a2.756,2.756,0,0,1,3.014-.026c-1.075.071-.873,1.355-1.861,1.9a1.179,1.179,0,0,1-1.565-.391A1.1,1.1,0,0,1,4.14,15.292ZM2.387,22.083A1.092,1.092,0,0,0,2.5,23.614a1.187,1.187,0,0,0,1.614-.109c.75-.82.122-1.974,1.115-2.37A2.717,2.717,0,0,0,2.387,22.083Zm3.523-4.118a2.738,2.738,0,0,0-2.936.647,1.09,1.09,0,0,0-.062,1.534,1.188,1.188,0,0,0,1.616.059C5.367,19.468,4.877,18.256,5.909,17.965ZM3.554,29A1.112,1.112,0,0,0,4.19,30.41a1.165,1.165,0,0,0,1.488-.6c.426-1.007-.565-1.9.238-2.585A2.617,2.617,0,0,0,3.554,29ZM2.716,14.292a1.144,1.144,0,0,0,2.252-.385,2.544,2.544,0,0,0-1.934-2.192C3.674,12.537,2.513,13.224,2.716,14.292ZM1.353,17.93a1.168,1.168,0,0,0,1.5.581,1.112,1.112,0,0,0,.613-1.421,2.622,2.622,0,0,0-2.391-1.741C1.886,16.019.911,16.929,1.353,17.93Zm1.107,7.6a1.1,1.1,0,0,0,.271-1.513A2.691,2.691,0,0,0,0,22.805c.947.486.2,1.576.866,2.462A1.183,1.183,0,0,0,2.461,25.525Zm2.024,1.308c.65-.893-.106-1.974.835-2.471A2.688,2.688,0,0,0,2.6,25.6a1.118,1.118,0,0,0,.13,1.381,2.521,2.521,0,0,1,.331.22A1.181,1.181,0,0,0,4.485,26.834ZM.7,21.573A1.178,1.178,0,0,0,2.254,22,1.1,1.1,0,0,0,2.7,20.519,2.658,2.658,0,0,0,.122,19.036C1.008,19.617.143,20.624.7,21.573ZM7.293,34.99a1.18,1.18,0,0,0,1.253.972A1.1,1.1,0,0,0,9.57,34.773c-.115-1.08-1.43-1.439-1.052-2.4A2.456,2.456,0,0,0,7.293,34.99Zm30.743-17.9a1.112,1.112,0,0,0,.613,1.421,1.168,1.168,0,0,0,1.5-.581c.442-1-.533-1.911.281-2.581A2.623,2.623,0,0,0,38.036,17.09Zm-.652,6.415A1.187,1.187,0,0,0,39,23.614a1.091,1.091,0,0,0,.115-1.531,2.716,2.716,0,0,0-2.844-.947C37.262,21.531,36.635,22.685,37.384,23.505Zm.072-8.337a1.141,1.141,0,0,0,1.328-.876c.2-1.068-.958-1.755-.318-2.577a2.543,2.543,0,0,0-1.934,2.192A1.139,1.139,0,0,0,37.456,15.168Zm-.484,5.037a1.189,1.189,0,0,0,1.617-.059,1.09,1.09,0,0,0-.062-1.534,2.738,2.738,0,0,0-2.936-.647C36.624,18.256,36.132,19.468,36.972,20.205Zm1.829.314A1.1,1.1,0,0,0,39.247,22a1.178,1.178,0,0,0,1.555-.422c.555-.949-.31-1.955.576-2.537A2.658,2.658,0,0,0,38.8,20.519ZM7.008,29.927a2.536,2.536,0,0,0-1.876,2.238,1.144,1.144,0,0,0,2.261.331C7.568,31.423,6.39,30.763,7.008,29.927Zm-5.226-.889A1.187,1.187,0,0,0,3.4,28.956a1.09,1.09,0,0,0-.088-1.532,2.238,2.238,0,0,0-.247-.222,1.188,1.188,0,0,1-.171-.092,1.082,1.082,0,0,1-.161-.129A2.727,2.727,0,0,0,.364,26.82C1.4,27.1.932,28.315,1.782,29.039Zm31.171,6.923a1.18,1.18,0,0,0,1.253-.972,2.456,2.456,0,0,0-1.225-2.612c.378.957-.937,1.316-1.052,2.4A1.1,1.1,0,0,0,32.954,35.961ZM35.412,33.4a1.142,1.142,0,0,0,.956-1.238,2.535,2.535,0,0,0-1.876-2.238c.618.837-.56,1.5-.386,2.568A1.138,1.138,0,0,0,35.412,33.4Zm.8-16.235a1.179,1.179,0,0,0,1.565-.391,1.1,1.1,0,0,0-.412-1.484,2.755,2.755,0,0,0-3.014-.026C35.421,15.337,35.219,16.621,36.208,17.168Zm-.386,12.639a1.166,1.166,0,0,0,1.488.6A1.113,1.113,0,0,0,37.946,29a2.618,2.618,0,0,0-2.361-1.777C36.387,27.9,35.4,28.8,35.822,29.807Zm-3.148,6.478a1.129,1.129,0,0,0-.826,1.32,1.15,1.15,0,0,0,1.391.784c1.109-.268,1.287-1.555,2.341-1.343A2.727,2.727,0,0,0,32.674,36.285ZM38.9,25.6a2.687,2.687,0,0,0-2.717-1.236c.942.5.185,1.578.835,2.471a1.181,1.181,0,0,0,1.421.367,2.55,2.55,0,0,1,.331-.22A1.118,1.118,0,0,0,38.9,25.6ZM30.809,38.519a1.116,1.116,0,0,1-.373.026,1.181,1.181,0,0,1-.477-.152c-.045,0-.092,0-.138.007a1.167,1.167,0,0,0-1.173,1.056,1.113,1.113,0,0,0,1.113,1.114c1.143.028,1.685-1.164,2.637-.688A2.518,2.518,0,0,0,30.809,38.519ZM35.192,33.7a1.128,1.128,0,0,0-.826,1.32,1.152,1.152,0,0,0,1.391.784c1.109-.268,1.287-1.555,2.341-1.343A2.726,2.726,0,0,0,35.192,33.7Zm1.789-3.018a1.1,1.1,0,0,0-.451,1.474,1.176,1.176,0,0,0,1.554.428c1-.523.835-1.811,1.911-1.858A2.754,2.754,0,0,0,36.981,30.684Zm-5.292,6.889a2.458,2.458,0,0,0-1.225-2.612c.377.957-.938,1.316-1.052,2.4a1.071,1.071,0,0,0,.546,1.036,2.622,2.622,0,0,1,.85.126A1.222,1.222,0,0,0,31.689,37.573Zm-5.314,1.013A1.069,1.069,0,0,0,27.02,40a1.216,1.216,0,0,0,1.484-.612,2.4,2.4,0,0,0-.428-2.83C28.164,37.572,26.8,37.577,26.375,38.587Zm-5.606-2.42A13.05,13.05,0,1,1,33.8,23.1,13.049,13.049,0,0,1,20.77,36.166ZM14.451,13.84a11.22,11.22,0,0,0,1.044.624,14.967,14.967,0,0,1,1.7-1.983A11.168,11.168,0,0,0,14.451,13.84ZM9.564,22.364h3.181a14.807,14.807,0,0,1,1.822-6.426,13.014,13.014,0,0,1-1.524-.964A11.178,11.178,0,0,0,9.564,22.364Zm5.173,8.231A14.813,14.813,0,0,1,12.758,24.1H9.582a11.187,11.187,0,0,0,3.7,7.377A13.061,13.061,0,0,1,14.737,30.595ZM17.2,33.754a15,15,0,0,1-1.493-1.7q-.491.245-.953.537A11.171,11.171,0,0,0,17.2,33.754ZM19.881,30.9a11.209,11.209,0,0,0-2.5.478,15.436,15.436,0,0,0,2.5,2.384Zm0-6.8H14.5a13.041,13.041,0,0,0,1.84,5.793,12.972,12.972,0,0,1,3.542-.735Zm0-6.637a12.994,12.994,0,0,1-3.728-.8,13.891,13.891,0,0,0-1.668,5.7h5.4Zm0-4.992a15.469,15.469,0,0,0-2.747,2.695,11.194,11.194,0,0,0,2.747.557Zm8.576,2.5a13.019,13.019,0,0,1-1.524.964,14.816,14.816,0,0,1,1.822,6.426h3.181A11.181,11.181,0,0,0,28.457,14.974ZM24.3,12.48a14.98,14.98,0,0,1,1.7,1.984,11.264,11.264,0,0,0,1.044-.623A11.167,11.167,0,0,0,24.3,12.48Zm-2.685,3.243a11.2,11.2,0,0,0,2.747-.557,13.624,13.624,0,0,0-2.747-2.694Zm0,6.641h5.4a14.117,14.117,0,0,0-1.668-5.7,12.991,12.991,0,0,1-3.728.8Zm0,6.794a12.981,12.981,0,0,1,3.542.735A13.084,13.084,0,0,0,27,24.1H21.619Zm2.5,2.219a11.215,11.215,0,0,0-2.5-.478v2.862A15.193,15.193,0,0,0,24.123,31.377Zm2.629,1.212q-.463-.291-.953-.537a14.993,14.993,0,0,1-1.493,1.7A11.177,11.177,0,0,0,26.751,32.589ZM31.918,24.1H28.742a14.814,14.814,0,0,1-1.979,6.494,12.962,12.962,0,0,1,1.455.883A11.184,11.184,0,0,0,31.918,24.1ZM23.088,41.072a1.207,1.207,0,0,0-1.427.723,1.077,1.077,0,0,0,.762,1.354c1.095.315,1.949-.7,2.735,0A2.559,2.559,0,0,0,23.088,41.072ZM4.97,32.157a1.1,1.1,0,0,0-.451-1.474,2.753,2.753,0,0,0-3.013.044c1.076.046.908,1.334,1.91,1.858A1.177,1.177,0,0,0,4.97,32.157Zm18.306,7.255a1.049,1.049,0,0,0,.227,1.519,1.239,1.239,0,0,0,1.6-.216,2.4,2.4,0,0,0,.377-2.837C25.284,38.883,23.964,38.545,23.276,39.412Zm3.375.685a1.205,1.205,0,0,0-1.426.723,1.078,1.078,0,0,0,.762,1.354c1.1.315,1.949-.7,2.736,0A2.56,2.56,0,0,0,26.651,40.1ZM12.088,37.356c-.114-1.08-1.429-1.439-1.053-2.4A2.458,2.458,0,0,0,9.81,37.573a1.221,1.221,0,0,0,.881.945,2.635,2.635,0,0,1,.85-.126A1.069,1.069,0,0,0,12.088,37.356Zm26.68-13.343a1.1,1.1,0,0,0,.272,1.513,1.184,1.184,0,0,0,1.595-.258c.662-.886-.081-1.975.866-2.462A2.691,2.691,0,0,0,38.768,24.013ZM7.134,35.021a1.129,1.129,0,0,0-.826-1.32,2.726,2.726,0,0,0-2.906.761c1.054-.212,1.232,1.075,2.341,1.343A1.15,1.15,0,0,0,7.134,35.021ZM9.652,37.6a1.128,1.128,0,0,0-.826-1.32,2.727,2.727,0,0,0-2.905.761c1.053-.212,1.232,1.075,2.34,1.343A1.15,1.15,0,0,0,9.652,37.6Zm2.028.794c-.046,0-.092-.006-.138-.007a1.183,1.183,0,0,1-.477.152,1.127,1.127,0,0,1-.373-.026A2.516,2.516,0,0,0,9.1,39.881c.952-.476,1.494.716,2.637.688a1.113,1.113,0,0,0,1.113-1.114A1.167,1.167,0,0,0,11.679,38.4ZM18,40.932a1.049,1.049,0,0,0,.227-1.519c-.688-.868-2.008-.529-2.207-1.533a2.4,2.4,0,0,0,.377,2.837A1.238,1.238,0,0,0,18,40.932Zm-5-1.548A1.217,1.217,0,0,0,14.481,40a1.068,1.068,0,0,0,.644-1.409c-.42-1.01-1.789-1.015-1.7-2.033A2.4,2.4,0,0,0,13,39.383Zm5.416,1.688a2.559,2.559,0,0,0-2.071,2.077c.786-.7,1.64.315,2.735,0a1.078,1.078,0,0,0,.763-1.354A1.207,1.207,0,0,0,18.413,41.072ZM38.767,26.98a1.078,1.078,0,0,1-.16.129,1.214,1.214,0,0,1-.171.092,2.316,2.316,0,0,0-.247.222,1.09,1.09,0,0,0-.088,1.532,1.188,1.188,0,0,0,1.616.083c.851-.724.381-1.943,1.418-2.219A2.728,2.728,0,0,0,38.767,26.98ZM14.849,40.1a2.559,2.559,0,0,0-2.071,2.077c.786-.7,1.641.316,2.735,0a1.078,1.078,0,0,0,.763-1.354A1.206,1.206,0,0,0,14.849,40.1Z" transform="translate(0 0)" fill="#964b00"/>
    </g>
  </g>
</svg>
