<svg xmlns="http://www.w3.org/2000/svg" width="37" height="46.391" viewBox="0 0 37 46.391">
  <g id="Group_8803" data-name="Group 8803" transform="translate(240.099 -297.431)">
    <path id="Path_10897" data-name="Path 10897" d="M-240.06,320.453q0-9.214,0-18.428c0-2.867,1.518-4.534,4.377-4.561,6.391-.061,12.783-.015,19.175-.033a1.542,1.542,0,0,1,1.173.562q5.833,5.875,11.688,11.727a1.679,1.679,0,0,1,.546,1.3c-.013,9.463,0,18.926-.02,28.389-.007,2.763-1.6,4.305-4.468,4.355-2.738.048-5.478.011-8.218.011-6.309,0-12.62-.11-18.925.039-4.1.1-5.43-2.261-5.367-5.312C-239.974,332.491-240.061,326.471-240.06,320.453Z" transform="translate(0)" fill="#050607"/>
    <path id="Path_10898" data-name="Path 10898" d="M-233.337,325.492q0-9.082,0-18.164c0-2.531.817-3.348,3.332-3.35,5.764,0,11.529.03,17.293-.029,1.03-.011,1.218.324,1.184,1.244-.066,1.822-.021,3.649-.019,5.473,0,3.65,1.536,5.17,5.222,5.174,1.908,0,3.816.034,5.722-.016.765-.02.972.206.97.976-.028,9.082-.011,18.164-.023,27.246,0,2.031-1,2.968-3.12,2.97q-13.747.009-27.495,0c-2.171,0-3.057-.882-3.062-3.112C-233.348,337.767-233.337,331.63-233.337,325.492Z" transform="translate(-5.067 -4.886)" fill="#fff"/>
    <path id="Path_10899" data-name="Path 10899" d="M-139.4,312.26l8.263,8.11c-2.134,0-4.139.074-6.135-.027a2.134,2.134,0,0,1-2.094-2.091C-139.49,316.25-139.4,314.235-139.4,312.26Z" transform="translate(-75.468 -11.117)" fill="#fff"/>
    <path id="Path_10900" data-name="Path 10900" d="M-194.631,369.493a11.343,11.343,0,0,1-5.631-1.638,1.892,1.892,0,0,0-1.628-.195c-2.169.643-4.356,1.229-6.549,1.787a1.894,1.894,0,0,0-1.325,1.114,14.135,14.135,0,0,1-3.516,4.887,3.363,3.363,0,0,1-1.519.79,1.962,1.962,0,0,1-2.1-.743,2.032,2.032,0,0,1-.135-2.219,7.609,7.609,0,0,1,4.064-3.661,5.7,5.7,0,0,0,3.595-4.134,12.539,12.539,0,0,1,.705-1.842c.933-2.026,1.567-3.952.479-6.253a5.592,5.592,0,0,1,.392-5.248c.434-.744.973-1.434,1.927-1.282a2.094,2.094,0,0,1,1.6,1.718c.655,2.278.019,4.433-.782,6.522a1.926,1.926,0,0,0,.193,1.935,17.248,17.248,0,0,0,3.144,3.814,2.284,2.284,0,0,0,2.239.561,10.1,10.1,0,0,1,5.512.076,5.586,5.586,0,0,1,1.12.486c.814.5,1.758,1.023,1.486,2.171-.267,1.122-1.333,1.219-2.28,1.349A7.348,7.348,0,0,1-194.631,369.493Z" transform="translate(-17.097 -40.036)" fill="#050506"/>
    <path id="Path_10901" data-name="Path 10901" d="M-176.124,399.608l-5.661,1.475,2.172-5.637A17.656,17.656,0,0,0-176.124,399.608Z" transform="translate(-43.717 -73.481)" fill="#fdfdfd"/>
    <path id="Path_10902" data-name="Path 10902" d="M-207.221,432.392a7.041,7.041,0,0,1-2.414,3.118c-.212.15-.515.517-.859.148-.319-.342-.018-.621.153-.866A6.711,6.711,0,0,1-207.221,432.392Z" transform="translate(-22.09 -101.178)" fill="#f4f3f4"/>
    <path id="Path_10903" data-name="Path 10903" d="M-175.2,362.951c-.529-1.81-.857-3.432.355-5.2A7.6,7.6,0,0,1-175.2,362.951Z" transform="translate(-48.296 -45.218)" fill="#f9f9f9"/>
    <path id="Path_10904" data-name="Path 10904" d="M-140.448,414.7a5.589,5.589,0,0,1,4.758.719A7.146,7.146,0,0,1-140.448,414.7Z" transform="translate(-74.707 -87.762)" fill="#f2f2f2"/>
  </g>
</svg>
