<svg xmlns="http://www.w3.org/2000/svg" xmlns:xlink="http://www.w3.org/1999/xlink" width="16" height="16" viewBox="0 0 16 16">
  <defs>
    <clipPath id="clip-Send">
      <rect width="16" height="16"/>
    </clipPath>
  </defs>
  <g id="Send" clip-path="url(#clip-Send)">
    <path id="Path_21104" data-name="Path 21104" d="M20.351,6.109a.327.327,0,0,0-.006-.081s0-.008,0-.012a.324.324,0,0,0-.025-.066l-.01-.019a.326.326,0,0,0-.051-.068.331.331,0,0,0-.068-.051l-.019-.01a.334.334,0,0,0-.065-.024l-.013,0a.334.334,0,0,0-.08-.006l-.021,0a.328.328,0,0,0-.069.015l-.01,0L5.979,10.863a.33.33,0,0,0,0,.62l6.352,2.305,2.305,6.352a.33.33,0,0,0,.31.217h0a.329.329,0,0,0,.31-.217L20.333,6.209s0-.007,0-.01a.335.335,0,0,0,.015-.07C20.35,6.122,20.351,6.116,20.351,6.109ZM7.057,11.172l11.68-4.256L12.5,13.148Zm7.891,7.891-1.977-5.447L19.2,7.382Z" transform="translate(5.004 -10.469) rotate(45)" stroke="#000" stroke-width="0.2"/>
  </g>
</svg>
