<svg xmlns="http://www.w3.org/2000/svg" xmlns:xlink="http://www.w3.org/1999/xlink" width="73" height="42" viewBox="0 0 73 42">
  <defs>
    <clipPath id="clip-Sent_1">
      <rect width="73" height="42"/>
    </clipPath>
  </defs>
  <g id="Sent_1" clip-path="url(#clip-Sent_1)">
    <g id="Group_13256" data-name="Group 13256" transform="translate(-2451 283)">
      <rect id="Rectangle_12695" data-name="Rectangle 12695" width="70" height="40" rx="20" transform="translate(2452 -282)" fill="#333"/>
      <path id="Path_17667" data-name="Path 17667" d="M99.867,38.477l8.726,4.689,4.689,8.726a.441.441,0,0,0,.387.23h.029a.433.433,0,0,0,.382-.289l7.952-21.538a.443.443,0,0,0-.568-.568L99.921,37.674a.44.44,0,0,0-.054.8ZM113.6,50.613,109.46,42.92l11.048-11.048Zm6.291-19.363L108.838,42.3l-7.692-4.135Z" transform="translate(2437.406 -369.308) rotate(45)" fill="#fff"/>
    </g>
  </g>
</svg>
