<svg xmlns="http://www.w3.org/2000/svg" xmlns:xlink="http://www.w3.org/1999/xlink" width="13" height="14" viewBox="0 0 13 14">
  <defs>
    <clipPath id="clip-Settings">
      <rect width="13" height="14"/>
    </clipPath>
  </defs>
  <g id="Settings" clip-path="url(#clip-Settings)">
    <g id="Group_16151" data-name="Group 16151" transform="translate(-97 -525.5)">
      <path id="Path_11728" data-name="Path 11728" d="M102.579,27.553c-.1.029-.2.06-.293.1a.206.206,0,0,1-.187-.025c-.165-.118-.41-.291-.586-.414a.611.611,0,0,0-.667-.026h0a6,6,0,0,0-.818.591h0a.612.612,0,0,0-.18.651c.065.2.157.481.217.67a.207.207,0,0,1-.033.188c-.056.072-.11.146-.162.222a.2.2,0,0,1-.167.089l-.72,0a.613.613,0,0,0-.559.371h0a6.021,6.021,0,0,0-.311.961h0a.612.612,0,0,0,.239.63l.587.425a.209.209,0,0,1,.085.169v.081l0,.158a.205.205,0,0,1-.085.172l-.572.414a.613.613,0,0,0-.237.637h0a6.021,6.021,0,0,0,.329.975,0,0,0,0,0,0,0,.612.612,0,0,0,.555.362l.742,0a.2.2,0,0,1,.165.085c.04.056.082.112.125.167a.206.206,0,0,1,.034.19c-.061.19-.15.465-.216.665a.612.612,0,0,0,.183.652h0a6.105,6.105,0,0,0,.864.614,0,0,0,0,1,0,0,.613.613,0,0,0,.66-.031l.6-.425a.2.2,0,0,1,.184-.026c.063.021.125.042.19.06a.2.2,0,0,1,.136.131l.227.676a.614.614,0,0,0,.525.416c.176.016.355.024.536.024s.359-.008.535-.024h0a.615.615,0,0,0,.527-.416l.226-.676a.2.2,0,0,1,.136-.131c.064-.018.127-.039.19-.06a.206.206,0,0,1,.184.026c.167.119.422.3.6.425a.611.611,0,0,0,.659.03h0a6.011,6.011,0,0,0,.865-.613h0a.613.613,0,0,0,.183-.653c-.065-.2-.154-.476-.216-.665a.206.206,0,0,1,.034-.19c.043-.055.084-.11.124-.167a.206.206,0,0,1,.165-.086l.742,0a.612.612,0,0,0,.554-.361h0a6.027,6.027,0,0,0,.332-.975h0a.612.612,0,0,0-.238-.638l-.572-.414a.207.207,0,0,1-.085-.171c0-.052,0-.1,0-.158v-.081a.2.2,0,0,1,.085-.169l.587-.425a.61.61,0,0,0,.238-.629h0a5.974,5.974,0,0,0-.308-.962h0a.613.613,0,0,0-.561-.371l-.719,0a.2.2,0,0,1-.167-.089c-.052-.076-.106-.15-.162-.222a.2.2,0,0,1-.033-.188c.061-.19.153-.471.217-.672a.612.612,0,0,0-.18-.65h0a6.2,6.2,0,0,0-.817-.592,0,0,0,0,1,0,0,.611.611,0,0,0-.668.027l-.584.414a.2.2,0,0,1-.187.026c-.1-.034-.193-.065-.293-.094a.2.2,0,0,1-.137-.131c-.063-.19-.157-.469-.225-.669a.614.614,0,0,0-.529-.416c-.166-.013-.335-.021-.5-.021s-.337.007-.5.02h0a.614.614,0,0,0-.529.416c-.067.2-.161.48-.225.669a.21.21,0,0,1-.139.131Zm.112.392a.613.613,0,0,0,.412-.395c.064-.188.157-.468.225-.669a.2.2,0,0,1,.176-.139c.156-.012.312-.018.471-.018s.315.007.471.02a.2.2,0,0,1,.176.139c.068.2.161.48.225.669a.611.611,0,0,0,.412.393c.09.026.179.055.268.086a.609.609,0,0,0,.561-.077l.586-.414a.2.2,0,0,1,.222-.009,5.67,5.67,0,0,1,.761.552.2.2,0,0,1,.06.216l-.217.67a.609.609,0,0,0,.1.565c.051.065.1.133.148.2a.613.613,0,0,0,.5.267l.72,0a.2.2,0,0,1,.187.123,5.478,5.478,0,0,1,.286.893.2.2,0,0,1-.08.209c-.175.128-.421.306-.586.425a.614.614,0,0,0-.254.506v.074l0,.145a.616.616,0,0,0,.254.516l.572.414a.205.205,0,0,1,.08.212,5.519,5.519,0,0,1-.308.906.206.206,0,0,1-.184.12h0c-.221,0-.535,0-.741,0a.611.611,0,0,0-.5.257c-.037.051-.074.1-.114.152a.614.614,0,0,0-.1.567c.061.188.15.465.216.665a.205.205,0,0,1-.06.217,5.818,5.818,0,0,1-.805.57.205.205,0,0,1-.22-.01c-.179-.125-.431-.306-.6-.423a.612.612,0,0,0-.553-.08q-.084.029-.172.055a.612.612,0,0,0-.408.392l-.227.676a.2.2,0,0,1-.175.139c-.165.014-.332.021-.5.021s-.335-.008-.5-.022a.2.2,0,0,1-.175-.139l-.227-.676a.616.616,0,0,0-.408-.393q-.086-.025-.172-.055a.611.611,0,0,0-.552.08l-.6.425a.205.205,0,0,1-.22.01,5.82,5.82,0,0,1-.805-.571.2.2,0,0,1-.06-.217c.064-.2.154-.476.216-.665a.615.615,0,0,0-.1-.567c-.039-.05-.077-.1-.114-.152a.606.606,0,0,0-.5-.256l-.742,0a.205.205,0,0,1-.186-.12,5.594,5.594,0,0,1-.307-.906.207.207,0,0,1,.078-.212c.171-.125.409-.3.571-.414a.613.613,0,0,0,.254-.516c0-.048,0-.1,0-.145V32.16a.614.614,0,0,0-.254-.506l-.587-.425a.2.2,0,0,1-.08-.209,5.594,5.594,0,0,1,.288-.893A.2.2,0,0,1,98.982,30c.216,0,.516,0,.719,0a.612.612,0,0,0,.5-.268c.047-.069.1-.137.148-.2a.612.612,0,0,0,.1-.565l-.217-.672a.206.206,0,0,1,.06-.217,5.79,5.79,0,0,1,.762-.55.2.2,0,0,1,.221.009l.586.413a.611.611,0,0,0,.562.076c.089-.025.178-.053.268-.079Zm1.283,1.75a2.543,2.543,0,1,0,2.543,2.543A2.545,2.545,0,0,0,103.975,29.7Zm0,.408a2.136,2.136,0,1,1-2.136,2.136A2.136,2.136,0,0,1,103.975,30.1Z" transform="translate(-0.598 500.182)" stroke="#000" stroke-width="0.5"/>
    </g>
  </g>
</svg>
