<svg width="134" height="70" viewBox="0 0 134 70" fill="none" xmlns="http://www.w3.org/2000/svg">
<rect width="134" height="70" fill="white"/>
<path d="M69.8083 51.6938H72.0395V57.6015H69.8083V51.6938ZM69.8083 49.4457H72.0395V50.9874H69.8083V49.4457ZM67.125 51.6938H69.3619V57.4229C69.3619 58.1543 69.3095 58.6706 69.2046 58.9764C69.1 59.2801 68.9073 59.527 68.6268 59.7151C68.3463 59.9049 67.9442 59.9998 67.4205 59.9998C66.9905 59.9998 66.4554 59.9352 65.816 59.8042L66.1505 58.1577C66.3283 58.1939 66.461 58.2129 66.5452 58.2129C66.734 58.2129 66.8782 58.1483 66.9773 58.0154C67.0763 57.8843 67.125 57.6223 67.125 57.2292V51.6938ZM67.125 49.4457H69.3619V51.0028H67.125V49.4457ZM62.656 51.6938H64.7429V52.6603C64.9449 52.2426 65.1524 51.9541 65.3657 51.7964C65.5789 51.6389 65.8426 51.5589 66.1567 51.5589C66.4859 51.5589 66.8451 51.6633 67.2359 51.8704L66.546 53.4845C66.2841 53.3724 66.0744 53.3174 65.9213 53.3174C65.6294 53.3174 65.403 53.4408 65.2421 53.6838C65.0121 54.0295 64.8963 54.6751 64.8963 55.6208V57.6014H62.656V51.6938ZM58.1587 54.6582C58.1587 55.1862 58.2632 55.5754 58.4746 55.826C58.684 56.0785 58.9478 56.2059 59.2656 56.2059C59.5872 56.2059 59.8511 56.0805 60.0568 55.8318C60.2643 55.583 60.3673 55.1862 60.3673 54.6354C60.3673 54.1246 60.2625 53.7428 60.055 53.4923C59.8475 53.2434 59.5892 53.1182 59.2825 53.1182C58.9571 53.1182 58.6878 53.2453 58.4765 53.4978C58.2652 53.7523 58.1587 54.1397 58.1587 54.6582ZM55.9237 54.6639C55.9237 53.7637 56.2228 53.0193 56.8215 52.4364C57.4217 51.8517 58.2297 51.559 59.2489 51.559C60.4141 51.559 61.2949 51.9028 61.8897 52.5882C62.3686 53.1408 62.6079 53.8226 62.6079 54.6315C62.6079 55.5392 62.3104 56.2837 61.7175 56.8647C61.1246 57.4439 60.3037 57.7345 59.2546 57.7345C58.3195 57.7345 57.5639 57.4934 56.9859 57.011C56.2773 56.4146 55.9237 55.6323 55.9237 54.6639ZM51.7221 54.6582C51.7221 55.1862 51.8267 55.5754 52.038 55.826C52.2473 56.0785 52.5111 56.2059 52.8289 56.2059C53.1506 56.2059 53.4144 56.0805 53.6201 55.8318C53.8276 55.583 53.9305 55.1862 53.9305 54.6354C53.9305 54.1246 53.8257 53.7428 53.6182 53.4923C53.4107 53.2434 53.1524 53.1182 52.8457 53.1182C52.5203 53.1182 52.2509 53.2453 52.0396 53.4978C51.8287 53.7523 51.7221 54.1397 51.7221 54.6582ZM49.4872 54.6639C49.4872 53.7637 49.7864 53.0193 50.385 52.4364C50.9853 51.8517 51.7933 51.559 52.8122 51.559C53.9773 51.559 54.8582 51.9028 55.453 52.5882C55.9319 53.1408 56.1712 53.8226 56.1712 54.6315C56.1712 55.5392 55.8737 56.2837 55.2809 56.8647C54.688 57.4439 53.867 57.7345 52.8179 57.7345C51.883 57.7345 51.1274 57.4934 50.5494 57.011C49.8407 56.4146 49.4872 55.6323 49.4872 54.6639ZM45.5714 54.6639C45.5714 55.131 45.6668 55.4785 45.8613 55.7045C46.0539 55.9305 46.2991 56.0445 46.5944 56.0445C46.8543 56.0445 47.0714 55.9361 47.2472 55.7179C47.423 55.5014 47.5109 55.133 47.5109 54.6146C47.5109 54.136 47.4192 53.7846 47.236 53.5605C47.0546 53.3345 46.8301 53.2224 46.5682 53.2224C46.282 53.2224 46.0445 53.3364 45.8557 53.5624C45.665 53.7885 45.5714 54.157 45.5714 54.6639ZM43.3347 59.8499V51.6938H45.4218V52.5675C45.7117 52.1991 45.9754 51.9503 46.2167 51.8212C46.5422 51.6465 46.9012 51.559 47.2959 51.559C48.0738 51.559 48.6759 51.863 49.1025 52.4667C49.5269 53.0706 49.7402 53.8189 49.7402 54.7095C49.7402 55.6911 49.5083 56.4413 49.0445 56.9596C48.5808 57.4761 47.9935 57.7344 47.2864 57.7344C46.9426 57.7344 46.6282 57.6756 46.3458 57.5577C46.0633 57.4382 45.8091 57.2615 45.5865 57.0279V59.8499H43.3347ZM40.7431 54.7968C40.4365 54.9088 40.1167 55.0075 39.7857 55.093C39.3332 55.2146 39.0451 55.3361 38.9254 55.4539C38.8003 55.5771 38.7386 55.7159 38.7386 55.8717C38.7386 56.05 38.8003 56.1944 38.9217 56.3084C39.0452 56.4204 39.2247 56.4772 39.4624 56.4772C39.7111 56.4772 39.9412 56.4164 40.1563 56.2949C40.3692 56.1715 40.5206 56.0215 40.6104 55.8468C40.7002 55.6701 40.7432 55.4404 40.7432 55.1593V54.7968H40.7431ZM38.8096 53.6062L36.6794 53.3782C36.7598 53.0003 36.8757 52.7021 37.0272 52.4858C37.1788 52.2692 37.3955 52.0812 37.6818 51.9217C37.8857 51.8057 38.168 51.7165 38.5253 51.6538C38.8823 51.5912 39.2697 51.5589 39.6866 51.5589C40.3542 51.5589 40.8927 51.5971 41.2967 51.6729C41.7027 51.749 42.0411 51.9083 42.3104 52.1494C42.5012 52.3166 42.6508 52.5522 42.7611 52.858C42.8695 53.1655 42.9239 53.456 42.9239 53.7352V56.3444C42.9239 56.6217 42.9425 56.8402 42.9762 56.9976C43.0117 57.1554 43.0865 57.3566 43.2043 57.6015H41.1115C41.0275 57.4496 40.9731 57.3337 40.9471 57.254C40.9208 57.1742 40.8966 57.0488 40.8703 56.878C40.5787 57.1647 40.287 57.3679 39.999 57.4895C39.6044 57.6528 39.1463 57.7344 38.6244 57.7344C37.9307 57.7344 37.4033 57.571 37.0424 57.2445C36.6831 56.9198 36.5036 56.5171 36.5036 56.0385C36.5036 55.5885 36.6326 55.22 36.8926 54.9316C37.1527 54.6409 37.6294 54.4263 38.3271 54.2859C39.1649 54.115 39.7071 53.9954 39.9559 53.927C40.2029 53.8586 40.4664 53.7676 40.7431 53.6573C40.7431 53.3781 40.6871 53.1844 40.5748 53.0724C40.4607 52.9623 40.2625 52.9053 39.9764 52.9053C39.6119 52.9053 39.3388 52.966 39.1554 53.0838C39.0133 53.177 38.8974 53.3517 38.8096 53.6062ZM30.3398 49.4457H32.571V52.4498C32.874 52.1306 33.1751 51.9028 33.4743 51.766C33.7734 51.6274 34.1289 51.559 34.5383 51.559C35.1444 51.559 35.6211 51.7471 35.9708 52.1211C36.3187 52.4972 36.4926 53.0706 36.4926 53.8453V57.6015H34.2523V54.3525C34.2523 53.982 34.1847 53.7202 34.0502 53.5663C33.9136 53.4105 33.7248 53.3344 33.4797 53.3344C33.2105 53.3344 32.9897 53.4389 32.8234 53.6459C32.6551 53.8528 32.5709 54.227 32.5709 54.7644V57.6014H30.3398V49.4457ZM23 54.9033L25.3621 54.7532C25.4126 55.1424 25.5174 55.4387 25.6745 55.6438C25.9289 55.9743 26.2953 56.1376 26.7704 56.1376C27.1239 56.1376 27.397 56.054 27.5894 55.8849C27.7802 55.716 27.8757 55.5203 27.8757 55.2982C27.8757 55.0873 27.7859 54.8975 27.6026 54.7302C27.4192 54.5633 26.9966 54.4055 26.3309 54.2575C25.2423 54.0086 24.4662 53.6801 24.0023 53.2681C23.5349 52.856 23.301 52.332 23.301 51.6938C23.301 51.2741 23.4207 50.8773 23.6603 50.5052C23.8995 50.1329 24.2586 49.8405 24.7393 49.6259C25.2199 49.4132 25.8783 49.3068 26.7143 49.3068C27.7409 49.3068 28.5243 49.5005 29.063 49.8878C29.6015 50.2752 29.9213 50.8924 30.0243 51.7375L27.6849 51.876C27.6231 51.5095 27.4922 51.2417 27.2921 51.0748C27.094 50.9096 26.8189 50.826 26.4693 50.826C26.1795 50.826 25.9624 50.8868 25.8166 51.0122C25.6707 51.1356 25.5979 51.2875 25.5979 51.4662C25.5979 51.5952 25.6577 51.7109 25.7775 51.8153C25.8952 51.9238 26.1721 52.0224 26.6115 52.1154C27.6962 52.3529 28.4725 52.594 28.9416 52.837C29.4109 53.0801 29.7532 53.3802 29.9665 53.7409C30.1798 54.0998 30.2882 54.5025 30.2882 54.9487C30.2882 55.4709 30.1441 55.9532 29.8598 56.3937C29.5757 56.8362 29.1771 57.1705 28.6647 57.3983C28.1544 57.6263 27.5091 57.7401 26.7312 57.7401C25.3659 57.7401 24.4196 57.4742 23.8941 56.9388C23.3667 56.4052 23.0692 55.7273 23 54.9033Z" fill="#034EA1"/>
<path d="M108.769 51.5471H111V57.4547H108.769V51.5471ZM108.769 49.2988H111V50.8405H108.769V49.2988ZM106.086 51.5471H108.323V57.2762C108.323 58.0074 108.27 58.5239 108.166 58.8295C108.061 59.1333 107.868 59.3803 107.588 59.5683C107.307 59.7582 106.905 59.8531 106.381 59.8531C105.951 59.8531 105.416 59.7885 104.777 59.6575L105.111 58.011C105.289 58.0472 105.422 58.0661 105.506 58.0661C105.695 58.0661 105.839 58.0014 105.938 57.8686C106.037 57.7376 106.086 57.4756 106.086 57.0823V51.5471ZM106.086 49.2988H108.323V50.8559H106.086V49.2988ZM99.5613 51.5471H101.639V52.508C101.95 52.1147 102.264 51.8359 102.582 51.6666C102.9 51.4978 103.287 51.4121 103.743 51.4121C104.36 51.4121 104.843 51.6002 105.192 51.9723C105.54 52.3447 105.714 52.9202 105.714 53.6985V57.4547H103.474V54.2057C103.474 53.8353 103.406 53.5734 103.272 53.4195C103.135 53.2638 102.946 53.1877 102.701 53.1877C102.432 53.1877 102.211 53.292 102.045 53.4992C101.877 53.706 101.792 54.0803 101.792 54.6177V57.4547H99.5613V51.5471ZM95.0864 54.5115C95.0864 55.0393 95.1911 55.4286 95.4023 55.6792C95.6118 55.9317 95.8755 56.0591 96.1934 56.0591C96.515 56.0591 96.7788 55.9338 96.9846 55.6851C97.1921 55.4363 97.2951 55.0393 97.2951 54.4887C97.2951 53.9779 97.1903 53.596 96.9829 53.3454C96.7753 53.0966 96.517 52.9715 96.2104 52.9715C95.885 52.9715 95.6157 53.0985 95.4043 53.3511C95.193 53.6054 95.0864 53.9928 95.0864 54.5115ZM92.8515 54.5171C92.8515 53.617 93.1506 52.8725 93.7492 52.2896C94.3495 51.7048 95.1575 51.4122 96.1766 51.4122C97.3418 51.4122 98.2226 51.7561 98.8174 52.4415C99.2963 52.994 99.5356 53.6759 99.5356 54.4848C99.5356 55.3924 99.2381 56.1369 98.6452 56.718C98.0524 57.2971 97.2315 57.5878 96.1824 57.5878C95.2473 57.5878 94.4917 57.3466 93.9136 56.8643C93.2049 56.2679 92.8515 55.4856 92.8515 54.5171ZM90.5126 49.2988H92.7492V57.4547H90.5126V49.2988ZM87.8237 49.2988H90.0606V57.4547H87.8237V49.2988ZM85.277 54.6501C84.9703 54.7621 84.6503 54.8607 84.3194 54.9463C83.8668 55.0678 83.5788 55.1892 83.4591 55.3072C83.334 55.4304 83.2721 55.5692 83.2721 55.7249C83.2721 55.9033 83.3339 56.0478 83.4553 56.1616C83.5788 56.2737 83.7583 56.3306 83.9959 56.3306C84.2447 56.3306 84.4747 56.2698 84.6898 56.1482C84.9029 56.0248 85.0544 55.8748 85.1441 55.7C85.2338 55.5233 85.277 55.2937 85.277 55.0125V54.6501ZM83.3433 53.4594L81.2132 53.2314C81.2936 52.8536 81.4095 52.5553 81.561 52.339C81.7126 52.1224 81.9293 51.9345 82.2156 51.7749C82.4195 51.659 82.7018 51.5698 83.0591 51.5071C83.416 51.4445 83.8033 51.4121 84.2204 51.4121C84.8881 51.4121 85.4268 51.4502 85.8308 51.5261C86.2367 51.6021 86.575 51.7615 86.8444 52.0027C87.0351 52.1699 87.1847 52.4054 87.2951 52.7111C87.4034 53.0188 87.4578 53.3092 87.4578 53.5885V56.1976C87.4578 56.4749 87.4764 56.6935 87.5101 56.8509C87.5456 57.0085 87.6205 57.2097 87.7383 57.4547H85.6454C85.5613 57.3029 85.5071 57.1869 85.481 57.1071C85.4547 57.0275 85.4305 56.9021 85.4042 56.7311C85.1125 57.0179 84.8208 57.2211 84.5327 57.3426C84.1381 57.506 83.6799 57.5877 83.1581 57.5877C82.4642 57.5877 81.937 57.4243 81.576 57.0977C81.2168 56.773 81.0372 56.3703 81.0372 55.8918C81.0372 55.4417 81.1663 55.0732 81.4261 54.7848C81.6863 54.4942 82.163 54.2795 82.8607 54.1392C83.6984 53.9682 84.2407 53.8487 84.4895 53.7801C84.7365 53.7119 85.0003 53.6208 85.277 53.5106C85.277 53.2313 85.2209 53.0376 85.1086 52.9257C84.9945 52.8156 84.7964 52.7584 84.5101 52.7584C84.1456 52.7584 83.8725 52.8192 83.6892 52.937C83.547 53.0303 83.4311 53.205 83.3433 53.4594ZM77.0788 52.7758H77.6868C78.1655 52.7758 78.5002 52.6922 78.6946 52.5231C78.8873 52.3542 78.9844 52.1377 78.9844 51.8756C78.9844 51.6193 78.9003 51.4007 78.732 51.2243C78.5657 51.0457 78.2496 50.9565 77.7858 50.9565H77.0788V52.7758ZM74.5858 49.2988H78.7115C79.6092 49.2988 80.2821 49.5151 80.7292 49.9501C81.1761 50.3829 81.4006 51.0021 81.4006 51.8015C81.4006 52.6256 81.1574 53.2693 80.6693 53.7328C80.1811 54.1961 79.4369 54.4278 78.4365 54.4278H77.0787V57.4547H74.5857V49.2988H74.5858Z" fill="#0088CF"/>
<path fill-rule="evenodd" clip-rule="evenodd" d="M41.54 37.8405L54.2474 38.4809C54.2474 38.4809 60.8199 36.4558 60.9099 35.9928C60.9999 35.5299 60.8199 29.2344 60.8199 29.2344L41.54 37.8405Z" fill="#BBBDBF"/>
<path fill-rule="evenodd" clip-rule="evenodd" d="M73.0558 29.8549L88.9846 33.349L89.7715 28.3334L67.7898 10.6292L66.8518 11.0602L65.9718 10.6316L48.7354 25.3675L45.351 28.2608L45.3001 33.1678L52.9552 29.5001L60.1712 31.4857L63.4492 38.5156L62.861 39.0976L42.2975 44.864L40.4783 47.6042L52.42 47.6034L64.7599 43.9828L68.4869 46.0203L73.8873 44.4792L73.8527 38.6478L91.138 37.8527L72.8296 30.4529L73.0558 29.8549Z" fill="#D0D2D3"/>
<path fill-rule="evenodd" clip-rule="evenodd" d="M89.2591 32.5491L88.8804 28.3058L80.3022 28.5205L89.2591 32.5491Z" fill="white"/>
<path fill-rule="evenodd" clip-rule="evenodd" d="M45.1223 32.6441L45.5011 28.4008L53.7784 28.5984L45.1223 32.6441Z" fill="white"/>
<path d="M87.0615 29.001C87.0565 28.6024 86.9321 28.2977 86.6818 28.0683C86.4033 27.8129 85.6853 27.4745 85.306 27.2791L66.9043 17.0391L66.9011 10.0016C74.4788 14.1652 84.1279 19.4208 90.7581 23.1189C92.0826 23.7578 93.0248 25.3287 93.0978 27.5235C93.172 29.7592 93.2157 32.5814 93.1013 34.8051C93.0266 36.2547 92.5107 37.2558 91.8165 37.6775C91.2671 37.8884 90.7389 38.1216 88.8222 37.3876L74.7528 31.8616C73.797 31.4862 73.9024 32.4615 73.8777 32.9054L73.8888 44.4813L68.9019 41.3381C68.3416 40.9849 67.7739 40.5589 67.7885 39.0399L67.7884 38.4536L67.7839 26.2724C67.8579 23.2824 69.3775 23.1444 72.2021 24.2664L86.2817 30.5277C86.8033 30.7173 87.0155 30.3213 87.0496 30.0526C87.0723 29.4232 87.0669 29.4499 87.0615 29.001Z" fill="#0088CF"/>
<path d="M40.4597 41.0341L58.373 34.6005C58.7706 34.4577 59.1299 34.3166 59.5178 34.1503C59.8301 34.0165 60.0675 33.8841 60.0666 33.5186L60.0742 32.246C60.1081 31.6178 59.7981 31.4042 58.9947 31.7456L44.2569 37.5848C42.933 38.0446 41.9732 38.0229 41.443 37.8446C40.6225 37.5686 40.5334 36.5708 40.5314 34.8517C40.5292 33.0568 40.5061 30.8731 40.5221 28.8309C40.5303 27.7771 40.6728 26.6841 41.1166 25.785C41.5062 24.9957 42.2386 24.3821 43.004 23.8385C43.5135 23.4768 44.0378 23.1458 44.4853 22.8146L66.9032 10L67.0014 17.0836L47.5379 28.1935C47.0824 28.4536 46.6371 28.6155 46.6317 29.0661C46.6262 29.5361 46.6232 29.8139 46.6232 30.2825C46.6256 30.5045 46.7905 30.7823 47.3619 30.5725L61.6367 24.0244C62.9061 23.454 66.2479 22.7961 66.0812 27.2715L66.0743 35.938C65.9558 37.1881 66.3585 39.3774 63.353 40.4895L40.4784 47.6049L40.4597 41.0341Z" fill="#034EA1"/>
<path d="M71.3832 49.7754C71.3735 49.7913 71.3689 49.7993 71.3665 49.803C71.3709 49.7956 71.3832 49.7754 71.3832 49.7754Z" fill="#22292B"/>
</svg>
