<svg xmlns="http://www.w3.org/2000/svg" xmlns:xlink="http://www.w3.org/1999/xlink" width="38" height="38" viewBox="0 0 38 38">
  <defs>
    <clipPath id="clip-SoftSkills">
      <rect width="38" height="38"/>
    </clipPath>
  </defs>
  <g id="SoftSkills" clip-path="url(#clip-SoftSkills)">
    <g id="Group_9979" data-name="Group 9979" transform="translate(-12536 4409)">
      <rect id="Rectangle_10560" data-name="Rectangle 10560" width="36" height="36" rx="18" transform="translate(12537 -4408)" fill="#fff"/>
      <g id="man-fancy" transform="translate(12110.5 -4546)">
        <circle id="Ellipse_671" data-name="Ellipse 671" cx="4.091" cy="4.091" r="4.091" transform="translate(439.909 147)" fill="none" stroke="#000" stroke-linecap="round" stroke-linejoin="round" stroke-width="1"/>
        <path id="Path_10631" data-name="Path 10631" d="M439.909,159.184c-1.97.773-3.273,2.085-3.273,3.566V165" fill="none" stroke="#000" stroke-linecap="round" stroke-linejoin="round" stroke-width="1"/>
        <path id="Path_10632" data-name="Path 10632" d="M442.247,165l-2.338-3.273v-2.543" fill="none" stroke="#000" stroke-linecap="round" stroke-linejoin="round" stroke-width="1"/>
        <path id="Path_10633" data-name="Path 10633" d="M448.091,159.184v2.543L445.753,165" fill="none" stroke="#000" stroke-linecap="round" stroke-linejoin="round" stroke-width="1"/>
        <path id="Path_10634" data-name="Path 10634" d="M451.364,165v-2.25c0-1.481-1.3-2.793-3.273-3.566" fill="none" stroke="#000" stroke-linecap="round" stroke-linejoin="round" stroke-width="1"/>
        <line id="Line_4073" data-name="Line 4073" y2="1.636" transform="translate(442.364 159.273)" fill="none" stroke="#000" stroke-linecap="round" stroke-linejoin="round" stroke-width="1"/>
        <path id="Path_10635" data-name="Path 10635" d="M445.636,159.273l-1.636.818-1.636-.818" fill="none" stroke="#000" stroke-linecap="round" stroke-linejoin="round" stroke-width="1"/>
        <line id="Line_4074" data-name="Line 4074" y1="1.636" transform="translate(445.636 159.273)" fill="none" stroke="#000" stroke-linecap="round" stroke-linejoin="round" stroke-width="1"/>
        <path id="Path_10636" data-name="Path 10636" d="M442.364,160.909l1.636-.818,1.636.818" fill="none" stroke="#000" stroke-linecap="round" stroke-linejoin="round" stroke-width="1"/>
        <line id="Line_4075" data-name="Line 4075" transform="translate(444 163.364)" fill="none" stroke="#000" stroke-linecap="round" stroke-linejoin="round" stroke-width="1"/>
      </g>
    </g>
  </g>
</svg>
