<svg xmlns="http://www.w3.org/2000/svg" xmlns:xlink="http://www.w3.org/1999/xlink" width="23" height="23" viewBox="0 0 23 23">
  <defs>
    <clipPath id="clip-Tags">
      <rect width="23" height="23"/>
    </clipPath>
  </defs>
  <g id="Tags" clip-path="url(#clip-Tags)">
    <path id="Path_11749" data-name="Path 11749" d="M195.546,117.134,185.2,106.786a1.277,1.277,0,0,0-.905-.388h-6.6a1.3,1.3,0,0,0-1.293,1.293v6.565a1.174,1.174,0,0,0,.388.905l10.348,10.348a1.289,1.289,0,0,0,1.843,0l6.565-6.565a1.309,1.309,0,0,0,0-1.811Zm-13.97-3.945a1.617,1.617,0,1,1,1.617-1.617A1.6,1.6,0,0,1,181.576,113.189Z" transform="translate(-174.656 -104.646)" fill="none" stroke="#000" stroke-width="1.5"/>
  </g>
</svg>
