<svg xmlns="http://www.w3.org/2000/svg" xmlns:xlink="http://www.w3.org/1999/xlink" width="50" height="49" viewBox="0 0 50 49">
  <defs>
    <clipPath id="clip-Trash">
      <rect width="50" height="49"/>
    </clipPath>
  </defs>
  <g id="Trash" clip-path="url(#clip-Trash)">
    <g id="Group_10989" data-name="Group 10989" transform="translate(-2 -2)">
      <g id="Rectangle_11665" data-name="Rectangle 11665" transform="translate(3 3)" fill="none" stroke="#707070" stroke-width="1">
        <rect width="48" height="47" rx="5" stroke="none"/>
        <rect x="0.5" y="0.5" width="47" height="46" rx="4.5" fill="none"/>
      </g>
      <g id="Group_10982" data-name="Group 10982" transform="translate(-600 -1704.238)">
        <text id="Trash-2" data-name="Trash" transform="translate(617 1746.238)" fill="#fff" font-size="8" font-family="SFUIDisplay-Semibold, SF UI Display" font-weight="600"><tspan x="0" y="0">Trash</tspan></text>
        <g id="Group_10380" data-name="Group 10380" transform="translate(620 1714.238)">
          <path id="Path_10890" data-name="Path 10890" d="M32.481,10.976a.87.87,0,0,0-.87-.87H28.6V8.847A1.087,1.087,0,0,0,27.517,7.76H23.964a1.087,1.087,0,0,0-1.087,1.087v1.259H19.87a.87.87,0,0,0-.87.87v1.348a.87.87,0,0,0,.87.87h.463V23.955a2.174,2.174,0,0,0,2.174,2.174h6.467a2.174,2.174,0,0,0,2.174-2.174V13.194h.463a.87.87,0,0,0,.87-.87ZM23.747,8.847a.217.217,0,0,1,.217-.217h3.553a.217.217,0,0,1,.217.217v1.259H23.747ZM30.27,23.955a1.3,1.3,0,0,1-1.3,1.3h-6.46a1.3,1.3,0,0,1-1.3-1.3V13.194h9.078Zm1.342-11.631H19.87V10.976H31.612Z" transform="translate(-19 -7.76)" fill="#fff"/>
          <path id="Path_10891" data-name="Path 10891" d="M48.435,50.341a.435.435,0,0,0,.435-.435V42.535a.435.435,0,1,0-.87,0v7.371A.435.435,0,0,0,48.435,50.341Z" transform="translate(-41.694 -34.634)" fill="#fff"/>
          <path id="Path_10892" data-name="Path 10892" d="M59.435,50.341a.435.435,0,0,0,.435-.435V42.535a.435.435,0,1,0-.87,0v7.371A.435.435,0,0,0,59.435,50.341Z" transform="translate(-50.303 -34.634)" fill="#fff"/>
          <path id="Path_10893" data-name="Path 10893" d="M37.435,50.341a.435.435,0,0,0,.435-.435V42.535a.435.435,0,1,0-.87,0v7.371A.435.435,0,0,0,37.435,50.341Z" transform="translate(-33.087 -34.634)" fill="#fff"/>
        </g>
      </g>
    </g>
  </g>
</svg>
