<svg xmlns="http://www.w3.org/2000/svg" xmlns:xlink="http://www.w3.org/1999/xlink" width="34" height="34" viewBox="0 0 34 34">
  <defs>
    <clipPath id="clip-Twitter">
      <rect width="34" height="34"/>
    </clipPath>
  </defs>
  <g id="Twitter" clip-path="url(#clip-Twitter)">
    <g id="Group_9406" data-name="Group 9406" transform="translate(1 1)">
      <path id="Path_11444" data-name="Path 11444" d="M2667.564,629.556a15.892,15.892,0,1,1-15.88-15.932A15.889,15.889,0,0,1,2667.564,629.556Zm-20.836,1.161a2.75,2.75,0,0,0,2.183,1.789l.031.274-3.3.985a.639.639,0,0,0,.133.108,7.407,7.407,0,0,0,10.869-5.465,3.465,3.465,0,0,1,1.129-2.459c.043-.035.035-.132.061-.241l-.921.153.8-1.225a2.646,2.646,0,0,1-2.605-.12,2.648,2.648,0,0,0-3.625,2.243c-.022.244-.027.489-.042.764a7.787,7.787,0,0,1-5.3-2.675,2.824,2.824,0,0,0,.568,3.414l-1.11-.215a8.44,8.44,0,0,0,.677,1.5,8,8,0,0,0,1.136,1.065Z" transform="translate(-2635.781 -613.623)" fill="#f2f2f2"/>
      <path id="Path_11445" data-name="Path 11445" d="M2695.247,683.555l.689-.107a7.994,7.994,0,0,1-1.136-1.065,8.425,8.425,0,0,1-.677-1.5l1.11.215a2.823,2.823,0,0,1-.569-3.414,7.79,7.79,0,0,0,5.3,2.675c.015-.275.02-.52.042-.764a2.649,2.649,0,0,1,3.626-2.243,2.646,2.646,0,0,0,2.605.12l-.8,1.226.921-.153c-.025.11-.018.206-.06.241a3.464,3.464,0,0,0-1.129,2.459,7.408,7.408,0,0,1-10.869,5.465.652.652,0,0,1-.133-.108l3.3-.985-.031-.274A2.751,2.751,0,0,1,2695.247,683.555Z" transform="translate(-2684.3 -666.461)" fill="#333"/>
    </g>
  </g>
</svg>
