<svg xmlns="http://www.w3.org/2000/svg" xmlns:xlink="http://www.w3.org/1999/xlink" width="16" height="18" viewBox="0 0 16 18">
  <defs>
    <clipPath id="clip-Unlock">
      <rect width="16" height="18"/>
    </clipPath>
  </defs>
  <g id="Unlock" clip-path="url(#clip-Unlock)">
    <g id="Group_10488" data-name="Group 10488" transform="translate(-1.918)">
      <g id="Group_10477" data-name="Group 10477" transform="translate(10550.918 -17549)">
        <path id="Path_11595" data-name="Path 11595" d="M10.841,5.649V2.836A2.829,2.829,0,0,0,8.014,0H5.075A2.809,2.809,0,0,0,2.252,2.765.5.5,0,0,0,3,3.312.505.505,0,0,0,3.224,3a.41.41,0,0,0,.009-.165A1.842,1.842,0,0,1,5.066.99H8.01A1.844,1.844,0,0,1,9.851,2.824V5.579H2.832A2.836,2.836,0,0,0,0,8.4v4.929a2.83,2.83,0,0,0,2.826,2.837h7.426a2.83,2.83,0,0,0,2.831-2.826V8.415a2.809,2.809,0,0,0-2.242-2.766m-.582,9.527H2.829A1.84,1.84,0,0,1,.99,13.342V8.414A1.842,1.842,0,0,1,2.823,6.569h7.43A1.844,1.844,0,0,1,12.094,8.4v4.931a1.842,1.842,0,0,1-1.835,1.845m-7.423.69Z" transform="translate(-10548 17549.918)"/>
        <path id="Path_11596" data-name="Path 11596" d="M6.813,10.4a.509.509,0,0,0-.375-.064.516.516,0,0,0-.386.443v1.17a.5.5,0,0,0,.5.5v-.006a.492.492,0,0,0,.49-.5l-.008-1.235a.5.5,0,0,0-.221-.312" transform="translate(-10548 17549.918)"/>
      </g>
    </g>
  </g>
</svg>
