<svg xmlns="http://www.w3.org/2000/svg" xmlns:xlink="http://www.w3.org/1999/xlink" width="34" height="34" viewBox="0 0 34 34">
  <defs>
    <clipPath id="clip-Youtube">
      <rect width="34" height="34"/>
    </clipPath>
  </defs>
  <g id="Youtube" clip-path="url(#clip-Youtube)">
    <g id="Group_9407" data-name="Group 9407" transform="translate(1 1)">
      <path id="Path_11446" data-name="Path 11446" d="M2200.641,627.313a15.9,15.9,0,1,1-15.8-15.908A15.9,15.9,0,0,1,2200.641,627.313Zm-15.89-5.3v.008c-1.738,0-3.476-.044-5.212.014a2.036,2.036,0,0,0-2.287,2.159c-.1,2.064-.108,4.14-.008,6.2a1.964,1.964,0,0,0,2.2,2.147c3.584.069,7.172.044,10.757-.02a1.82,1.82,0,0,0,2-1.865,53.3,53.3,0,0,0,.03-6.45c-.1-1.6-.833-2.14-2.438-2.185C2188.115,621.972,2186.433,622.008,2184.751,622.008Z" transform="translate(-2168.844 -611.405)" fill="#f2f2f2"/>
      <path id="Path_11447" data-name="Path 11447" d="M2225.889,674.318c1.681,0,3.363-.037,5.044.011,1.6.045,2.335.588,2.438,2.185a53.342,53.342,0,0,1-.03,6.45,1.82,1.82,0,0,1-2,1.866c-3.585.065-7.173.089-10.757.02a1.964,1.964,0,0,1-2.2-2.147c-.1-2.063-.094-4.14.008-6.2a2.036,2.036,0,0,1,2.287-2.159c1.735-.058,3.474-.014,5.211-.014Zm-1.541,7.23,4.058-2.1-4.058-2.121v4.216Z" transform="translate(-2209.982 -663.714)" fill="#333"/>
      <path id="Path_11448" data-name="Path 11448" d="M2254.172,696.5v-4.216l4.058,2.121Z" transform="translate(-2239.806 -678.664)" fill="#f2f2f2"/>
    </g>
  </g>
</svg>
